%FSLAX35Y35*%
%MOIN*%
%IN18=Loetstoppmaskeoben(X.GTS)*%
%ADD10C,0.00591*%
%ADD11C,0.00354*%
%ADD12C,0.00394*%
%ADD13C,0.00409*%
%ADD14C,0.00827*%
%ADD15C,0.01000*%
%ADD16C,0.01181*%
%ADD17C,0.01575*%
%ADD18C,0.01969*%
%ADD19C,0.03937*%
%ADD20C,0.05906*%
%ADD21C,0.07087*%
%ADD22C,0.07874*%
%ADD23C,0.21323*%
%AMR_24*21,1,0.01575,0.01575,0,0,0.000*%
%ADD24R_24*%
%AMR_25*21,1,0.01772,0.01772,0,0,0.000*%
%ADD25R_25*%
%AMR_26*21,1,0.02165,0.02165,0,0,0.000*%
%ADD26R_26*%
%AMR_27*21,1,0.02362,0.02362,0,0,0.000*%
%ADD27R_27*%
%AMR_28*21,1,0.02500,0.02500,0,0,0.000*%
%ADD28R_28*%
%AMR_29*21,1,0.03150,0.03150,0,0,0.000*%
%ADD29R_29*%
%AMR_30*21,1,0.03543,0.03543,0,0,0.000*%
%ADD30R_30*%
%AMR_31*21,1,0.03937,0.03937,0,0,0.000*%
%ADD31R_31*%
%AMR_32*21,1,0.05000,0.09843,0,0,0.000*%
%ADD32R_32*%
%AMR_33*21,1,0.05000,0.10000,0,0,270.000*%
%ADD33R_33*%
%AMR_34*21,1,0.05331,0.05331,0,0,0.000*%
%ADD34R_34*%
%AMR_35*21,1,0.06299,0.06299,0,0,0.000*%
%ADD35R_35*%
%AMR_36*21,1,0.06299,0.06299,0,0,180.000*%
%ADD36R_36*%
%AMR_37*21,1,0.06299,0.06299,0,0,270.000*%
%ADD37R_37*%
%AMR_38*21,1,0.19685,0.19685,0,0,0.000*%
%ADD38R_38*%
%AMOCT_39*4,1,8,0.021654,0.024606,0.010827,0.035433,-0.010827,0.035433,-0.021654,0.024606,-0.021654,-0.024606,-0.010827,-0.035433,0.010827,-0.035433,0.021654,-0.024606,0.021654,0.024606,270.000*%
%ADD39OCT_39*%
%AMOCT_40*4,1,8,0.023622,0.023622,0.011811,0.035433,-0.011811,0.035433,-0.023622,0.023622,-0.023622,-0.023622,-0.011811,-0.035433,0.011811,-0.035433,0.023622,-0.023622,0.023622,0.023622,0.000*%
%ADD40OCT_40*%
%AMOCT_41*4,1,8,0.023622,0.023622,0.011811,0.035433,-0.011811,0.035433,-0.023622,0.023622,-0.023622,-0.023622,-0.011811,-0.035433,0.011811,-0.035433,0.023622,-0.023622,0.023622,0.023622,180.000*%
%ADD41OCT_41*%
%AMOCT_42*4,1,8,0.023622,0.023622,0.011811,0.035433,-0.011811,0.035433,-0.023622,0.023622,-0.023622,-0.023622,-0.011811,-0.035433,0.011811,-0.035433,0.023622,-0.023622,0.023622,0.023622,270.000*%
%ADD42OCT_42*%
%AMOCT_43*4,1,8,0.031496,0.015748,0.015748,0.031496,-0.015748,0.031496,-0.031496,0.015748,-0.031496,-0.015748,-0.015748,-0.031496,0.015748,-0.031496,0.031496,-0.015748,0.031496,0.015748,0.000*%
%ADD43OCT_43*%
%AMOCT_44*4,1,8,0.031496,0.015748,0.015748,0.031496,-0.015748,0.031496,-0.031496,0.015748,-0.031496,-0.015748,-0.015748,-0.031496,0.015748,-0.031496,0.031496,-0.015748,0.031496,0.015748,180.000*%
%ADD44OCT_44*%
%AMOCT_45*4,1,8,0.031496,0.015748,0.015748,0.031496,-0.015748,0.031496,-0.031496,0.015748,-0.031496,-0.015748,-0.015748,-0.031496,0.015748,-0.031496,0.031496,-0.015748,0.031496,0.015748,270.000*%
%ADD45OCT_45*%
%AMOCT_46*4,1,8,0.035433,0.017717,0.017717,0.035433,-0.017717,0.035433,-0.035433,0.017717,-0.035433,-0.017717,-0.017717,-0.035433,0.017717,-0.035433,0.035433,-0.017717,0.035433,0.017717,0.000*%
%ADD46OCT_46*%
%AMOCT_47*4,1,8,0.035433,0.017717,0.017717,0.035433,-0.017717,0.035433,-0.035433,0.017717,-0.035433,-0.017717,-0.017717,-0.035433,0.017717,-0.035433,0.035433,-0.017717,0.035433,0.017717,90.000*%
%ADD47OCT_47*%
%AMOCT_48*4,1,8,0.035433,0.017717,0.017717,0.035433,-0.017717,0.035433,-0.035433,0.017717,-0.035433,-0.017717,-0.017717,-0.035433,0.017717,-0.035433,0.035433,-0.017717,0.035433,0.017717,180.000*%
%ADD48OCT_48*%
%AMOCT_49*4,1,8,0.035433,0.017717,0.017717,0.035433,-0.017717,0.035433,-0.035433,0.017717,-0.035433,-0.017717,-0.017717,-0.035433,0.017717,-0.035433,0.035433,-0.017717,0.035433,0.017717,270.000*%
%ADD49OCT_49*%
%AMOCT_50*4,1,8,0.037402,0.018701,0.018701,0.037402,-0.018701,0.037402,-0.037402,0.018701,-0.037402,-0.018701,-0.018701,-0.037402,0.018701,-0.037402,0.037402,-0.018701,0.037402,0.018701,180.000*%
%ADD50OCT_50*%
%AMOCT_51*4,1,8,0.039370,0.019685,0.019685,0.039370,-0.019685,0.039370,-0.039370,0.019685,-0.039370,-0.019685,-0.019685,-0.039370,0.019685,-0.039370,0.039370,-0.019685,0.039370,0.019685,0.000*%
%ADD51OCT_51*%
%AMOCT_52*4,1,8,0.043307,0.021654,0.021654,0.043307,-0.021654,0.043307,-0.043307,0.021654,-0.043307,-0.021654,-0.021654,-0.043307,0.021654,-0.043307,0.043307,-0.021654,0.043307,0.021654,180.000*%
%ADD52OCT_52*%
%AMOCT_53*4,1,8,0.043307,0.021654,0.021654,0.043307,-0.021654,0.043307,-0.043307,0.021654,-0.043307,-0.021654,-0.021654,-0.043307,0.021654,-0.043307,0.043307,-0.021654,0.043307,0.021654,270.000*%
%ADD53OCT_53*%
%AMOCT_54*4,1,8,0.049213,0.024606,0.024606,0.049213,-0.024606,0.049213,-0.049213,0.024606,-0.049213,-0.024606,-0.024606,-0.049213,0.024606,-0.049213,0.049213,-0.024606,0.049213,0.024606,90.000*%
%ADD54OCT_54*%
%AMO_55*20,1,0.05000,0.00000,-0.02421,0.00000,0.02421,0*1,1,0.05000,0.00000,-0.02421*1,1,0.05000,0.00000,0.02421*%
%ADD55O_55*%
%AMO_56*20,1,0.05000,-0.02500,0.00000,0.02500,0.00000,0*1,1,0.05000,-0.02500,0.00000*1,1,0.05000,0.02500,0.00000*%
%ADD56O_56*%
%AMRR_57*21,1,0.06299,0.05039,0,0,0.000*21,1,0.05039,0.06299,0,0,0.000*1,1,0.01260,0.02520,0.02520*1,1,0.01260,-0.02520,-0.02520*1,1,0.01260,0.02520,-0.02520*1,1,0.01260,-0.02520,0.02520*%
%ADD57RR_57*%
%AMRR_58*21,1,0.15748,0.05315,0,0,270.000*21,1,0.13976,0.07087,0,0,270.000*1,1,0.01772,0.02657,-0.06988*1,1,0.01772,-0.02657,0.06988*1,1,0.01772,-0.02657,-0.06988*1,1,0.01772,0.02657,0.06988*%
%ADD58RR_58*%
G54D21*
X237032Y25000D03*
X256717Y25000D03*
G54D22*
X233125Y208750D03*
G54D23*
X12598Y15723D03*
X12598Y186589D03*
X322047Y186589D03*
X322047Y15723D03*
G54D32*
X65000Y110625D03*
X16250Y89375D03*
X113750Y89375D03*
G54D33*
X201799Y146799D03*
X11875Y145625D03*
G54D35*
X273437Y189687D03*
X292187Y189687D03*
G54D36*
X45000Y13125D03*
X70000Y13125D03*
X95000Y13125D03*
X120000Y13125D03*
X145000Y13125D03*
X170000Y13125D03*
X195000Y13125D03*
X220000Y13125D03*
X302187Y12500D03*
G54D37*
X322187Y128437D03*
X322187Y163125D03*
G54D39*
X151250Y167500D03*
X151250Y160000D03*
X151250Y152500D03*
G54D40*
X13922Y163750D03*
X19827Y163750D03*
G54D41*
X39202Y163750D03*
X33297Y163750D03*
G54D42*
X158953Y124291D03*
X158953Y118386D03*
G54D43*
X263437Y189687D03*
X302187Y189687D03*
X71875Y208750D03*
X81875Y208750D03*
X91875Y208750D03*
X202187Y208750D03*
X212187Y208750D03*
X222187Y208750D03*
X32500Y191562D03*
X42500Y181562D03*
X42500Y191562D03*
X52500Y181562D03*
X52500Y191562D03*
X62500Y181562D03*
X62500Y191562D03*
X72500Y181562D03*
X72500Y191562D03*
X82500Y181562D03*
X82500Y191562D03*
X92500Y181562D03*
X92500Y191562D03*
X102500Y181562D03*
X102500Y191562D03*
X112500Y181562D03*
X112500Y191562D03*
X122500Y181562D03*
X122500Y191562D03*
X132500Y181562D03*
X132500Y191562D03*
X142500Y181562D03*
X142500Y191562D03*
X152500Y181562D03*
X152500Y191562D03*
X162500Y181562D03*
X162500Y191562D03*
X172500Y181562D03*
X172500Y191562D03*
X182500Y181562D03*
X182500Y191562D03*
X192500Y181562D03*
X192500Y191562D03*
X202500Y181562D03*
X202500Y191562D03*
X212500Y181562D03*
X212500Y191562D03*
X222500Y181562D03*
X222500Y191562D03*
X282500Y208750D03*
G54D44*
X35000Y13125D03*
X60000Y13125D03*
X85000Y13125D03*
X110000Y13125D03*
X135000Y13125D03*
X160000Y13125D03*
X185000Y13125D03*
X210000Y13125D03*
X288592Y125000D03*
X268907Y125000D03*
X292187Y12500D03*
X282187Y12500D03*
X272187Y12500D03*
G54D45*
X322187Y118437D03*
X322187Y108437D03*
X322187Y98437D03*
X322187Y153125D03*
X322187Y143125D03*
G54D46*
X94687Y154375D03*
X134687Y154375D03*
X74375Y154375D03*
X84375Y154375D03*
X235625Y95625D03*
X245625Y95625D03*
G54D47*
X158642Y135091D03*
X158642Y145091D03*
X187500Y35625D03*
X187500Y75625D03*
X162500Y35625D03*
X162500Y75625D03*
X137500Y35625D03*
X137500Y75625D03*
X112500Y35625D03*
X112500Y75625D03*
X97500Y35625D03*
X97500Y75625D03*
X72500Y35625D03*
X72500Y75625D03*
X47500Y35625D03*
X47500Y75625D03*
X22500Y35625D03*
X22500Y75625D03*
X282500Y39062D03*
X282500Y49062D03*
X283125Y86250D03*
X283125Y96250D03*
G54D48*
X187500Y138125D03*
X177500Y138125D03*
X187500Y157187D03*
X177500Y157187D03*
X187500Y123750D03*
X177500Y123750D03*
X266562Y95625D03*
X256562Y95625D03*
X63750Y154375D03*
X53750Y154375D03*
X254062Y208750D03*
X244062Y208750D03*
G54D49*
X200000Y75625D03*
X200000Y65625D03*
X175000Y75625D03*
X175000Y65625D03*
X150000Y75625D03*
X150000Y65625D03*
X125000Y75625D03*
X125000Y65625D03*
X85000Y75625D03*
X85000Y65625D03*
X60000Y75625D03*
X60000Y65625D03*
X35000Y75625D03*
X35000Y65625D03*
X10000Y75625D03*
X10000Y65625D03*
X282812Y73125D03*
X282812Y63125D03*
G54D50*
X288784Y162677D03*
X269965Y162677D03*
G54D51*
X200937Y96875D03*
G54D52*
X279375Y162677D03*
G54D53*
X238796Y78698D03*
X254544Y72005D03*
X238796Y65312D03*
X254544Y58619D03*
X238796Y51926D03*
G54D54*
X247941Y125129D03*
X247941Y185129D03*
X220258Y36821D03*
X220258Y96821D03*
G54D55*
X75000Y110625D03*
X85000Y110625D03*
X95000Y110625D03*
X105000Y110625D03*
X115000Y110625D03*
X125000Y110625D03*
X135000Y110625D03*
X135000Y140625D03*
X125000Y140625D03*
X115000Y140625D03*
X105000Y140625D03*
X95000Y140625D03*
X85000Y140625D03*
X75000Y140625D03*
X65000Y140625D03*
X36250Y89375D03*
X46250Y89375D03*
X56250Y89375D03*
X66250Y89375D03*
X76250Y89375D03*
X86250Y89375D03*
X26250Y89375D03*
X133750Y89375D03*
X143750Y89375D03*
X153750Y89375D03*
X163750Y89375D03*
X173750Y89375D03*
X183750Y89375D03*
X123750Y89375D03*
G54D56*
X201799Y136799D03*
X201799Y126799D03*
X201799Y116799D03*
X231799Y116799D03*
X231799Y126799D03*
X231799Y136799D03*
X231799Y146799D03*
X11875Y135625D03*
X11875Y125625D03*
X11875Y115625D03*
X41875Y115625D03*
X41875Y125625D03*
X41875Y135625D03*
X41875Y145625D03*
G54D57*
X61875Y208750D03*
X192187Y208750D03*
X32500Y181562D03*
G54D58*
X312187Y81390D03*
X312187Y43577D03*
M02*
