%FSLAX35Y35*%
%MOIN*%
%IN21=Bestueckungsdruckoben(X.GTO)*%
%ADD10C,0.00591*%
%ADD11C,0.00354*%
%ADD12C,0.00394*%
%ADD13C,0.00409*%
%ADD14C,0.00827*%
%ADD15C,0.01000*%
%ADD16C,0.01181*%
%ADD17C,0.01575*%
%ADD18C,0.01969*%
%ADD19C,0.03937*%
%ADD20C,0.05906*%
%ADD21C,0.07087*%
%ADD22C,0.07874*%
%ADD23C,0.21323*%
%AMR_24*21,1,0.01575,0.01575,0,0,0.000*%
%ADD24R_24*%
%AMR_25*21,1,0.01772,0.01772,0,0,0.000*%
%ADD25R_25*%
%AMR_26*21,1,0.02165,0.02165,0,0,0.000*%
%ADD26R_26*%
%AMR_27*21,1,0.02362,0.02362,0,0,0.000*%
%ADD27R_27*%
%AMR_28*21,1,0.02500,0.02500,0,0,0.000*%
%ADD28R_28*%
%AMR_29*21,1,0.03150,0.03150,0,0,0.000*%
%ADD29R_29*%
%AMR_30*21,1,0.03543,0.03543,0,0,0.000*%
%ADD30R_30*%
%AMR_31*21,1,0.03937,0.03937,0,0,0.000*%
%ADD31R_31*%
%AMR_32*21,1,0.05000,0.09843,0,0,0.000*%
%ADD32R_32*%
%AMR_33*21,1,0.05000,0.10000,0,0,270.000*%
%ADD33R_33*%
%AMR_34*21,1,0.05331,0.05331,0,0,0.000*%
%ADD34R_34*%
%AMR_35*21,1,0.06299,0.06299,0,0,0.000*%
%ADD35R_35*%
%AMR_36*21,1,0.06299,0.06299,0,0,180.000*%
%ADD36R_36*%
%AMR_37*21,1,0.06299,0.06299,0,0,270.000*%
%ADD37R_37*%
%AMR_38*21,1,0.19685,0.19685,0,0,0.000*%
%ADD38R_38*%
%AMOCT_39*4,1,8,0.021654,0.024606,0.010827,0.035433,-0.010827,0.035433,-0.021654,0.024606,-0.021654,-0.024606,-0.010827,-0.035433,0.010827,-0.035433,0.021654,-0.024606,0.021654,0.024606,270.000*%
%ADD39OCT_39*%
%AMOCT_40*4,1,8,0.023622,0.023622,0.011811,0.035433,-0.011811,0.035433,-0.023622,0.023622,-0.023622,-0.023622,-0.011811,-0.035433,0.011811,-0.035433,0.023622,-0.023622,0.023622,0.023622,0.000*%
%ADD40OCT_40*%
%AMOCT_41*4,1,8,0.023622,0.023622,0.011811,0.035433,-0.011811,0.035433,-0.023622,0.023622,-0.023622,-0.023622,-0.011811,-0.035433,0.011811,-0.035433,0.023622,-0.023622,0.023622,0.023622,180.000*%
%ADD41OCT_41*%
%AMOCT_42*4,1,8,0.023622,0.023622,0.011811,0.035433,-0.011811,0.035433,-0.023622,0.023622,-0.023622,-0.023622,-0.011811,-0.035433,0.011811,-0.035433,0.023622,-0.023622,0.023622,0.023622,270.000*%
%ADD42OCT_42*%
%AMOCT_43*4,1,8,0.031496,0.015748,0.015748,0.031496,-0.015748,0.031496,-0.031496,0.015748,-0.031496,-0.015748,-0.015748,-0.031496,0.015748,-0.031496,0.031496,-0.015748,0.031496,0.015748,0.000*%
%ADD43OCT_43*%
%AMOCT_44*4,1,8,0.031496,0.015748,0.015748,0.031496,-0.015748,0.031496,-0.031496,0.015748,-0.031496,-0.015748,-0.015748,-0.031496,0.015748,-0.031496,0.031496,-0.015748,0.031496,0.015748,180.000*%
%ADD44OCT_44*%
%AMOCT_45*4,1,8,0.031496,0.015748,0.015748,0.031496,-0.015748,0.031496,-0.031496,0.015748,-0.031496,-0.015748,-0.015748,-0.031496,0.015748,-0.031496,0.031496,-0.015748,0.031496,0.015748,270.000*%
%ADD45OCT_45*%
%AMOCT_46*4,1,8,0.035433,0.017717,0.017717,0.035433,-0.017717,0.035433,-0.035433,0.017717,-0.035433,-0.017717,-0.017717,-0.035433,0.017717,-0.035433,0.035433,-0.017717,0.035433,0.017717,0.000*%
%ADD46OCT_46*%
%AMOCT_47*4,1,8,0.035433,0.017717,0.017717,0.035433,-0.017717,0.035433,-0.035433,0.017717,-0.035433,-0.017717,-0.017717,-0.035433,0.017717,-0.035433,0.035433,-0.017717,0.035433,0.017717,90.000*%
%ADD47OCT_47*%
%AMOCT_48*4,1,8,0.035433,0.017717,0.017717,0.035433,-0.017717,0.035433,-0.035433,0.017717,-0.035433,-0.017717,-0.017717,-0.035433,0.017717,-0.035433,0.035433,-0.017717,0.035433,0.017717,180.000*%
%ADD48OCT_48*%
%AMOCT_49*4,1,8,0.035433,0.017717,0.017717,0.035433,-0.017717,0.035433,-0.035433,0.017717,-0.035433,-0.017717,-0.017717,-0.035433,0.017717,-0.035433,0.035433,-0.017717,0.035433,0.017717,270.000*%
%ADD49OCT_49*%
%AMOCT_50*4,1,8,0.037402,0.018701,0.018701,0.037402,-0.018701,0.037402,-0.037402,0.018701,-0.037402,-0.018701,-0.018701,-0.037402,0.018701,-0.037402,0.037402,-0.018701,0.037402,0.018701,180.000*%
%ADD50OCT_50*%
%AMOCT_51*4,1,8,0.039370,0.019685,0.019685,0.039370,-0.019685,0.039370,-0.039370,0.019685,-0.039370,-0.019685,-0.019685,-0.039370,0.019685,-0.039370,0.039370,-0.019685,0.039370,0.019685,0.000*%
%ADD51OCT_51*%
%AMOCT_52*4,1,8,0.043307,0.021654,0.021654,0.043307,-0.021654,0.043307,-0.043307,0.021654,-0.043307,-0.021654,-0.021654,-0.043307,0.021654,-0.043307,0.043307,-0.021654,0.043307,0.021654,180.000*%
%ADD52OCT_52*%
%AMOCT_53*4,1,8,0.043307,0.021654,0.021654,0.043307,-0.021654,0.043307,-0.043307,0.021654,-0.043307,-0.021654,-0.021654,-0.043307,0.021654,-0.043307,0.043307,-0.021654,0.043307,0.021654,270.000*%
%ADD53OCT_53*%
%AMOCT_54*4,1,8,0.049213,0.024606,0.024606,0.049213,-0.024606,0.049213,-0.049213,0.024606,-0.049213,-0.024606,-0.024606,-0.049213,0.024606,-0.049213,0.049213,-0.024606,0.049213,0.024606,90.000*%
%ADD54OCT_54*%
%AMO_55*20,1,0.05000,0.00000,-0.02421,0.00000,0.02421,0*1,1,0.05000,0.00000,-0.02421*1,1,0.05000,0.00000,0.02421*%
%ADD55O_55*%
%AMO_56*20,1,0.05000,-0.02500,0.00000,0.02500,0.00000,0*1,1,0.05000,-0.02500,0.00000*1,1,0.05000,0.02500,0.00000*%
%ADD56O_56*%
%AMRR_57*21,1,0.06299,0.05039,0,0,0.000*21,1,0.05039,0.06299,0,0,0.000*1,1,0.01260,0.02520,0.02520*1,1,0.01260,-0.02520,-0.02520*1,1,0.01260,0.02520,-0.02520*1,1,0.01260,-0.02520,0.02520*%
%ADD57RR_57*%
%AMRR_58*21,1,0.15748,0.05315,0,0,270.000*21,1,0.13976,0.07087,0,0,270.000*1,1,0.01772,0.02657,-0.06988*1,1,0.01772,-0.02657,0.06988*1,1,0.01772,-0.02657,-0.06988*1,1,0.01772,0.02657,0.06988*%
%ADD58RR_58*%
G54D10*
X205122Y158007D02*
X206894Y158007D01*
X205989Y158007D02*
X205989Y154464D01*
X207878Y158007D02*
X207878Y154464D01*
X209453Y154464D01*
X212189Y157141D02*
X212071Y157584D01*
X211746Y157908D01*
X211304Y158027D01*
X210861Y157908D01*
X210536Y157584D01*
X210418Y157141D01*
X210437Y157141D02*
X210437Y155330D01*
X210418Y155330D02*
X210536Y154887D01*
X210861Y154563D01*
X211304Y154444D01*
X211746Y154563D01*
X212071Y154887D01*
X212189Y155330D01*
X214611Y157299D02*
X214516Y157653D01*
X214256Y157912D01*
X213902Y158007D01*
X213548Y157912D01*
X213288Y157653D01*
X213193Y157299D01*
X214611Y157299D02*
X213193Y154464D01*
X214611Y154464D01*
X215595Y157496D02*
X215595Y158007D01*
X217012Y158007D01*
X215949Y154464D01*
X219414Y157299D02*
X219319Y157653D01*
X219059Y157912D01*
X218705Y158007D01*
X218351Y157912D01*
X218091Y157653D01*
X217996Y157299D01*
X219414Y157299D02*
X217996Y154464D01*
X219414Y154464D01*
X220398Y154464D02*
X221619Y158007D01*
X222878Y154464D01*
X220752Y155527D02*
X222524Y155527D01*
X225615Y157141D02*
X225496Y157584D01*
X225172Y157908D01*
X224729Y158027D01*
X224286Y157908D01*
X223962Y157584D01*
X223843Y157141D01*
X223863Y157141D02*
X223863Y155330D01*
X223843Y155330D02*
X223962Y154887D01*
X224286Y154563D01*
X224729Y154444D01*
X225172Y154563D01*
X225496Y154887D01*
X225615Y155330D01*
X226619Y154464D02*
X226619Y156236D01*
X227485Y156236D01*
X227485Y156255D02*
X227928Y156374D01*
X228252Y156698D01*
X228371Y157141D01*
X228252Y157584D01*
X227928Y157908D01*
X227485Y158027D01*
X227485Y158007D02*
X226619Y158007D01*
X226619Y156236D01*
X238808Y176745D02*
X239253Y176854D01*
X239585Y177171D01*
X239713Y177611D01*
X238808Y176745D02*
X237941Y176745D01*
X237941Y180288D01*
X238808Y180288D01*
X239713Y179422D02*
X239585Y179863D01*
X239253Y180180D01*
X238808Y180288D01*
X239713Y179422D02*
X239713Y177611D01*
X240697Y179580D02*
X241406Y180288D01*
X241406Y176745D01*
X241044Y138879D02*
X240336Y139588D01*
X243879Y139588D01*
X243879Y140572D02*
X240336Y140572D01*
X243879Y142344D01*
X240336Y142344D01*
X243564Y143446D02*
X243802Y143714D01*
X243879Y144063D01*
X243775Y144406D01*
X243517Y144655D01*
X243170Y144745D01*
X242462Y144745D01*
X242107Y144650D01*
X241848Y144391D01*
X241753Y144036D01*
X241848Y143682D01*
X242107Y143423D01*
X242462Y143328D01*
X240336Y143328D01*
X240336Y144745D01*
X242658Y147147D02*
X243170Y147147D01*
X242658Y147147D02*
X242304Y147052D01*
X242045Y146792D01*
X241950Y146438D01*
X242045Y146084D01*
X242304Y145824D01*
X242658Y145729D01*
X243170Y145729D02*
X242658Y145729D01*
X243170Y145729D02*
X243525Y145824D01*
X243784Y146084D01*
X243879Y146438D01*
X243784Y146792D01*
X243525Y147052D01*
X243170Y147147D01*
X241044Y147147D02*
X241202Y147147D01*
X241044Y147147D02*
X240690Y147052D01*
X240431Y146792D01*
X240336Y146438D01*
X240431Y146084D01*
X240690Y145824D01*
X241044Y145729D01*
X241202Y145729D02*
X241044Y145729D01*
X241202Y145729D02*
X241556Y145824D01*
X241815Y146084D01*
X241910Y146438D01*
X241815Y146792D01*
X241556Y147052D01*
X241202Y147147D01*
X241044Y149548D02*
X240690Y149453D01*
X240431Y149194D01*
X240336Y148840D01*
X240431Y148485D01*
X240690Y148226D01*
X241044Y148131D01*
X241044Y149548D02*
X243879Y148131D01*
X243879Y149548D01*
X241044Y151950D02*
X240690Y151855D01*
X240431Y151595D01*
X240336Y151241D01*
X240431Y150887D01*
X240690Y150627D01*
X241044Y150532D01*
X241044Y151950D02*
X243879Y150532D01*
X243879Y151950D01*
X190846Y138125D02*
X190710Y139067D01*
X190315Y139934D01*
X189691Y140654D01*
X188890Y141169D01*
X187976Y141437D01*
X187023Y141437D01*
X186109Y141169D01*
X185308Y140654D01*
X184684Y139934D01*
X184289Y139067D01*
X184153Y138125D01*
X184289Y137182D01*
X184684Y136315D01*
X185308Y135595D01*
X186109Y135080D01*
X187023Y134812D01*
X187976Y134812D01*
X188890Y135080D01*
X189691Y135595D01*
X190315Y136315D01*
X190710Y137182D01*
X190846Y138124D01*
X185467Y129187D02*
X185467Y132731D01*
X186333Y132731D01*
X186333Y130979D02*
X186776Y131098D01*
X187100Y131422D01*
X187219Y131865D01*
X187100Y132308D01*
X186776Y132632D01*
X186333Y132750D01*
X186333Y130959D02*
X185467Y130959D01*
X186333Y130959D02*
X187239Y129187D01*
X188223Y132022D02*
X188932Y132731D01*
X188932Y129187D01*
X172623Y132022D02*
X173331Y132731D01*
X173331Y129187D01*
X175733Y132022D02*
X175733Y129896D01*
X175733Y132022D02*
X175638Y132376D01*
X175378Y132636D01*
X175024Y132731D01*
X174670Y132636D01*
X174410Y132376D01*
X174315Y132022D01*
X174315Y129896D02*
X174315Y132022D01*
X174315Y129896D02*
X174410Y129542D01*
X174670Y129282D01*
X175024Y129187D01*
X175378Y129282D01*
X175638Y129542D01*
X175733Y129896D01*
X178134Y132022D02*
X178134Y129896D01*
X178134Y132022D02*
X178039Y132376D01*
X177780Y132636D01*
X177426Y132731D01*
X177071Y132636D01*
X176812Y132376D01*
X176717Y132022D01*
X176717Y129896D02*
X176717Y132022D01*
X176717Y129896D02*
X176812Y129542D01*
X177071Y129282D01*
X177426Y129187D01*
X177780Y129282D01*
X178039Y129542D01*
X178134Y129896D01*
X179119Y129187D02*
X179119Y132731D01*
X179119Y130408D02*
X180890Y132731D01*
X179827Y131313D02*
X180890Y129187D01*
X190846Y157187D02*
X190710Y158130D01*
X190315Y158996D01*
X189691Y159716D01*
X188890Y160231D01*
X187976Y160499D01*
X187023Y160499D01*
X186109Y160231D01*
X185308Y159716D01*
X184684Y158996D01*
X184289Y158130D01*
X184153Y157187D01*
X184289Y156244D01*
X184684Y155378D01*
X185308Y154658D01*
X186109Y154143D01*
X187023Y153875D01*
X187976Y153875D01*
X188890Y154143D01*
X189691Y154658D01*
X190315Y155378D01*
X190710Y156244D01*
X190846Y157187D01*
X185625Y147062D02*
X185625Y150605D01*
X186491Y150605D01*
X186491Y148853D02*
X186934Y148972D01*
X187258Y149296D01*
X187376Y149739D01*
X187258Y150182D01*
X186934Y150506D01*
X186491Y150625D01*
X186491Y148833D02*
X185625Y148833D01*
X186491Y148833D02*
X187396Y147062D01*
X189798Y149896D02*
X189703Y150250D01*
X189443Y150510D01*
X189089Y150605D01*
X188735Y150510D01*
X188475Y150250D01*
X188380Y149896D01*
X189798Y149896D02*
X188380Y147062D01*
X189798Y147062D01*
X173750Y149896D02*
X174458Y150605D01*
X174458Y147062D01*
X176860Y149896D02*
X176860Y147770D01*
X176860Y149896D02*
X176765Y150250D01*
X176505Y150510D01*
X176151Y150605D01*
X175797Y150510D01*
X175537Y150250D01*
X175442Y149896D01*
X175442Y147770D02*
X175442Y149896D01*
X175442Y147770D02*
X175537Y147416D01*
X175797Y147156D01*
X176151Y147062D01*
X176505Y147156D01*
X176765Y147416D01*
X176860Y147770D01*
X177844Y147062D02*
X177844Y150605D01*
X177844Y148282D02*
X179616Y150605D01*
X178553Y149187D02*
X179616Y147062D01*
X190846Y123750D02*
X190710Y124692D01*
X190315Y125559D01*
X189691Y126279D01*
X188890Y126794D01*
X187976Y127062D01*
X187023Y127062D01*
X186109Y126794D01*
X185308Y126279D01*
X184684Y125559D01*
X184289Y124692D01*
X184153Y123750D01*
X184289Y122807D01*
X184684Y121940D01*
X185308Y121220D01*
X186109Y120705D01*
X187023Y120437D01*
X187976Y120437D01*
X188890Y120705D01*
X189691Y121220D01*
X190315Y121940D01*
X190710Y122807D01*
X190846Y123749D01*
X185000Y114562D02*
X185000Y118105D01*
X185866Y118105D01*
X185866Y116353D02*
X186309Y116472D01*
X186633Y116796D01*
X186751Y117239D01*
X186633Y117682D01*
X186309Y118006D01*
X185866Y118125D01*
X185866Y116333D02*
X185000Y116333D01*
X185866Y116333D02*
X186771Y114562D01*
X187755Y115270D02*
X187850Y114916D01*
X188110Y114656D01*
X188464Y114562D01*
X188818Y114656D01*
X189078Y114916D01*
X189173Y115270D01*
X189173Y115782D02*
X189173Y115270D01*
X189173Y115782D02*
X189078Y116136D01*
X188818Y116396D01*
X188464Y116491D01*
X188267Y116491D02*
X188464Y116491D01*
X188267Y116491D01*
X188464Y116491D02*
X188826Y116598D01*
X189085Y116872D01*
X189173Y117239D01*
X189173Y117396D02*
X189173Y117239D01*
X189173Y117396D02*
X189078Y117750D01*
X188818Y118010D01*
X188464Y118105D01*
X188110Y118010D01*
X187850Y117750D01*
X187755Y117396D01*
X174315Y115334D02*
X174410Y114980D01*
X174670Y114720D01*
X175024Y114625D01*
X175378Y114720D01*
X175638Y114980D01*
X175733Y115334D01*
X175733Y115846D02*
X175733Y115334D01*
X175733Y115846D02*
X175638Y116200D01*
X175378Y116460D01*
X175024Y116555D01*
X174827Y116555D02*
X175024Y116555D01*
X174827Y116555D01*
X175024Y116555D02*
X175386Y116662D01*
X175645Y116936D01*
X175733Y117303D01*
X175733Y117460D02*
X175733Y117303D01*
X175733Y117460D02*
X175638Y117814D01*
X175378Y118074D01*
X175024Y118169D01*
X174670Y118074D01*
X174410Y117814D01*
X174315Y117460D01*
X176717Y115334D02*
X176812Y114980D01*
X177071Y114720D01*
X177426Y114625D01*
X177780Y114720D01*
X178039Y114980D01*
X178134Y115334D01*
X178134Y115846D02*
X178134Y115334D01*
X178134Y115846D02*
X178039Y116200D01*
X177780Y116460D01*
X177426Y116555D01*
X177229Y116555D02*
X177426Y116555D01*
X177229Y116555D01*
X177426Y116555D02*
X177787Y116662D01*
X178047Y116936D01*
X178134Y117303D01*
X178134Y117460D02*
X178134Y117303D01*
X178134Y117460D02*
X178039Y117814D01*
X177780Y118074D01*
X177426Y118169D01*
X177071Y118074D01*
X176812Y117814D01*
X176717Y117460D01*
X179119Y114625D02*
X179119Y118169D01*
X179119Y115846D02*
X180890Y118169D01*
X179827Y116751D02*
X180890Y114625D01*
X253831Y181966D02*
X257374Y181966D01*
X257374Y183540D01*
X254067Y184682D02*
X253713Y184682D01*
X253713Y185745D02*
X254067Y185745D01*
X254972Y184525D02*
X256587Y184525D01*
X256941Y184620D01*
X257200Y184879D01*
X257295Y185233D01*
X257200Y185588D01*
X256941Y185847D01*
X256587Y185942D01*
X254972Y185942D02*
X257295Y185942D01*
X253831Y187989D02*
X253892Y187721D01*
X254079Y187519D01*
X254343Y187438D01*
X255051Y187438D01*
X257374Y187438D01*
X255051Y186926D02*
X255051Y187989D01*
X255051Y188973D02*
X255051Y190036D01*
X253831Y189485D02*
X256862Y189485D01*
X257125Y189566D01*
X257313Y189768D01*
X257374Y190036D01*
X256154Y191021D02*
X256154Y192438D01*
X255799Y192438D01*
X255445Y192343D01*
X255185Y192084D01*
X255091Y191729D01*
X255185Y191375D01*
X255445Y191116D01*
X255799Y191021D01*
X256665Y191021D01*
X257042Y191129D01*
X257304Y191421D01*
X257370Y191808D01*
X257221Y192171D01*
X256902Y192399D01*
X257374Y193422D02*
X255051Y193422D01*
X255209Y194328D02*
X255067Y194052D01*
X255103Y193743D01*
X255304Y193507D01*
X255602Y193422D01*
X161989Y135091D02*
X161853Y136034D01*
X161457Y136901D01*
X160834Y137621D01*
X160032Y138136D01*
X159119Y138404D01*
X158166Y138404D01*
X157252Y138136D01*
X156451Y137621D01*
X155827Y136901D01*
X155431Y136034D01*
X155296Y135091D01*
X155431Y134149D01*
X155827Y133282D01*
X156451Y132562D01*
X157252Y132047D01*
X158166Y131779D01*
X159119Y131779D01*
X160032Y132047D01*
X160834Y132562D01*
X161457Y133282D01*
X161853Y134149D01*
X161989Y135091D01*
X168455Y143841D02*
X164912Y143841D01*
X164912Y144708D01*
X166664Y144708D02*
X166545Y145151D01*
X166221Y145475D01*
X165778Y145593D01*
X165335Y145475D01*
X165011Y145151D01*
X164892Y144708D01*
X166684Y144708D02*
X166684Y143841D01*
X166684Y144708D02*
X168455Y145613D01*
X164912Y147660D02*
X167589Y146597D01*
X167589Y148015D01*
X166880Y147660D02*
X168455Y147660D01*
X165621Y133384D02*
X165266Y133289D01*
X165007Y133029D01*
X164912Y132675D01*
X165007Y132321D01*
X165266Y132061D01*
X165621Y131966D01*
X165621Y133384D02*
X168455Y131966D01*
X168455Y133384D01*
X165621Y135785D02*
X165266Y135690D01*
X165007Y135431D01*
X164912Y135077D01*
X165007Y134722D01*
X165266Y134463D01*
X165621Y134368D01*
X165621Y135785D02*
X168455Y134368D01*
X168455Y135785D01*
X168455Y136770D02*
X164912Y136770D01*
X167235Y136770D02*
X164912Y138541D01*
X166329Y137478D02*
X168455Y138541D01*
X149157Y129413D02*
X149157Y125870D01*
X149220Y125717D01*
X149373Y125653D01*
X149526Y125717D01*
X149590Y125870D01*
X149590Y129413D01*
X149526Y129566D01*
X149373Y129630D01*
X149220Y129566D01*
X149157Y129413D01*
X149157Y126204D02*
X149590Y126204D01*
X149157Y126756D02*
X149590Y126756D01*
X149157Y127307D02*
X149590Y127307D01*
X149157Y127858D02*
X149590Y127858D01*
X149157Y128409D02*
X149590Y128409D01*
X149157Y128960D02*
X149590Y128960D01*
X149197Y129512D02*
X149549Y129512D01*
X151184Y127819D02*
X147562Y127819D01*
X147409Y127755D01*
X147346Y127602D01*
X147409Y127449D01*
X147562Y127386D01*
X151184Y127386D01*
X151337Y127449D01*
X151401Y127602D01*
X151337Y127755D01*
X151184Y127819D01*
X150968Y111178D02*
X150525Y111060D01*
X150201Y110735D01*
X150082Y110292D01*
X150201Y109849D01*
X150525Y109525D01*
X150968Y109407D01*
X150968Y109426D02*
X152779Y109426D01*
X152779Y109407D02*
X153222Y109525D01*
X153546Y109849D01*
X153665Y110292D01*
X153546Y110735D01*
X153222Y111060D01*
X152779Y111178D01*
X150811Y112182D02*
X150102Y112891D01*
X153645Y112891D01*
X144857Y113228D02*
X147534Y112165D01*
X147534Y113583D01*
X146826Y113228D02*
X148400Y113228D01*
X148400Y114567D02*
X148400Y114921D01*
X149109Y114606D01*
X145369Y115906D02*
X144857Y115906D01*
X144857Y117323D01*
X148400Y116260D01*
X146078Y118661D02*
X147692Y118661D01*
X147692Y118642D02*
X148056Y118739D01*
X148322Y119006D01*
X148420Y119370D01*
X148322Y119734D01*
X148056Y120001D01*
X147692Y120098D01*
X146078Y120118D02*
X148400Y120118D01*
X149581Y118307D02*
X148655Y118583D01*
X147692Y118661D01*
X144857Y122874D02*
X144857Y121102D01*
X146629Y121102D01*
X146629Y122323D01*
X146629Y121102D02*
X148400Y121102D01*
X141653Y150866D02*
X141653Y150000D01*
X141633Y150866D02*
X141515Y151309D01*
X141190Y151633D01*
X140748Y151751D01*
X140305Y151633D01*
X139980Y151309D01*
X139862Y150866D01*
X139881Y150000D02*
X139881Y150866D01*
X143425Y150000D02*
X139881Y150000D01*
X143425Y150866D02*
X143425Y150000D01*
X143444Y150866D02*
X143326Y151309D01*
X143001Y151633D01*
X142559Y151751D01*
X142116Y151633D01*
X141791Y151309D01*
X141673Y150866D01*
X140748Y154507D02*
X140305Y154389D01*
X139980Y154064D01*
X139862Y153622D01*
X139980Y153179D01*
X140305Y152854D01*
X140748Y152736D01*
X140748Y152755D02*
X142559Y152755D01*
X142559Y152736D02*
X143001Y152854D01*
X143326Y153179D01*
X143444Y153622D01*
X143326Y154064D01*
X143001Y154389D01*
X142559Y154507D01*
X142716Y155511D02*
X143070Y155606D01*
X143330Y155866D01*
X143425Y156220D01*
X143330Y156574D01*
X143070Y156834D01*
X142716Y156929D01*
X142204Y156929D02*
X142716Y156929D01*
X142204Y156929D02*
X141850Y156834D01*
X141591Y156574D01*
X141496Y156220D01*
X141496Y156023D02*
X141496Y156220D01*
X141496Y156023D01*
X141496Y156220D02*
X141388Y156582D01*
X141114Y156841D01*
X140748Y156929D01*
X140590Y156929D02*
X140748Y156929D01*
X140590Y156929D02*
X140236Y156834D01*
X139976Y156574D01*
X139881Y156220D01*
X139976Y155866D01*
X140236Y155606D01*
X140590Y155511D01*
X142716Y157913D02*
X143070Y158008D01*
X143330Y158267D01*
X143425Y158622D01*
X143330Y158976D01*
X143070Y159235D01*
X142716Y159330D01*
X142204Y159330D02*
X142716Y159330D01*
X142204Y159330D02*
X141850Y159235D01*
X141591Y158976D01*
X141496Y158622D01*
X141496Y158425D02*
X141496Y158622D01*
X141496Y158425D01*
X141496Y158622D02*
X141388Y158983D01*
X141114Y159243D01*
X140748Y159330D01*
X140590Y159330D02*
X140748Y159330D01*
X140590Y159330D02*
X140236Y159235D01*
X139976Y158976D01*
X139881Y158622D01*
X139976Y158267D01*
X140236Y158008D01*
X140590Y157913D01*
X140393Y160314D02*
X139881Y160314D01*
X139881Y161732D01*
X143425Y160669D01*
X141653Y162716D02*
X141653Y164291D01*
X140590Y166692D02*
X140236Y166597D01*
X139976Y166338D01*
X139881Y165984D01*
X139976Y165629D01*
X140236Y165370D01*
X140590Y165275D01*
X140590Y166692D02*
X143425Y165275D01*
X143425Y166692D01*
X143110Y167795D02*
X143348Y168062D01*
X143425Y168412D01*
X143321Y168755D01*
X143063Y169004D01*
X142716Y169094D01*
X142007Y169094D01*
X141653Y168999D01*
X141394Y168740D01*
X141299Y168385D01*
X141394Y168031D01*
X141653Y167772D01*
X142007Y167677D01*
X139881Y167677D01*
X139881Y169094D01*
X118750Y160937D02*
X118750Y164480D01*
X119616Y164480D01*
X119616Y162728D02*
X120059Y162847D01*
X120383Y163171D01*
X120501Y163614D01*
X120383Y164057D01*
X120059Y164381D01*
X119616Y164500D01*
X119616Y162709D02*
X118750Y162709D01*
X119616Y162709D02*
X120521Y160937D01*
X121624Y161252D02*
X121891Y161014D01*
X122241Y160937D01*
X122584Y161041D01*
X122832Y161299D01*
X122923Y161646D01*
X122923Y162354D01*
X122828Y162709D01*
X122568Y162968D01*
X122214Y163063D01*
X121860Y162968D01*
X121600Y162709D01*
X121505Y162354D01*
X121505Y164480D01*
X122923Y164480D01*
X104687Y161646D02*
X104782Y161291D01*
X105041Y161032D01*
X105396Y160937D01*
X105750Y161032D01*
X106009Y161291D01*
X106104Y161646D01*
X106104Y162157D02*
X106104Y161646D01*
X106104Y162157D02*
X106009Y162512D01*
X105750Y162771D01*
X105396Y162866D01*
X105199Y162866D02*
X105396Y162866D01*
X105199Y162866D01*
X105396Y162866D02*
X105757Y162973D01*
X106017Y163247D01*
X106104Y163614D01*
X106104Y163772D02*
X106104Y163614D01*
X106104Y163772D02*
X106009Y164126D01*
X105750Y164385D01*
X105396Y164480D01*
X105041Y164385D01*
X104782Y164126D01*
X104687Y163772D01*
X107089Y160937D02*
X107443Y160937D01*
X107128Y160228D01*
X108427Y161646D02*
X108522Y161291D01*
X108781Y161032D01*
X109136Y160937D01*
X109490Y161032D01*
X109750Y161291D01*
X109844Y161646D01*
X109844Y162157D02*
X109844Y161646D01*
X109844Y162157D02*
X109750Y162512D01*
X109490Y162771D01*
X109136Y162866D01*
X108939Y162866D02*
X109136Y162866D01*
X108939Y162866D01*
X109136Y162866D02*
X109497Y162973D01*
X109757Y163247D01*
X109844Y163614D01*
X109844Y163772D02*
X109844Y163614D01*
X109844Y163772D02*
X109750Y164126D01*
X109490Y164385D01*
X109136Y164480D01*
X108781Y164385D01*
X108522Y164126D01*
X108427Y163772D01*
X110829Y160937D02*
X110829Y164480D01*
X110829Y162157D02*
X112600Y164480D01*
X111537Y163063D02*
X112600Y160937D01*
X272288Y151897D02*
X271422Y151897D01*
X272288Y151916D02*
X272731Y152035D01*
X273055Y152359D01*
X273174Y152802D01*
X273055Y153245D01*
X272731Y153569D01*
X272288Y153688D01*
X271422Y153668D02*
X272288Y153668D01*
X271422Y150125D02*
X271422Y153668D01*
X272288Y150125D02*
X271422Y150125D01*
X272288Y150105D02*
X272731Y150224D01*
X273055Y150548D01*
X273174Y150991D01*
X273055Y151434D01*
X272731Y151758D01*
X272288Y151877D01*
X275044Y150125D02*
X275489Y150234D01*
X275821Y150551D01*
X275949Y150991D01*
X275044Y150125D02*
X274178Y150125D01*
X274178Y153668D01*
X275044Y153668D01*
X275949Y152802D02*
X275821Y153242D01*
X275489Y153560D01*
X275044Y153668D01*
X275949Y152802D02*
X275949Y150991D01*
X276934Y152960D02*
X277642Y153668D01*
X277642Y150125D01*
X278626Y150834D02*
X278721Y150479D01*
X278981Y150220D01*
X279335Y150125D01*
X279689Y150220D01*
X279949Y150479D01*
X280044Y150834D01*
X280044Y151345D02*
X280044Y150834D01*
X280044Y151345D02*
X279949Y151700D01*
X279689Y151959D01*
X279335Y152054D01*
X279138Y152054D02*
X279335Y152054D01*
X279138Y152054D01*
X279335Y152054D02*
X279697Y152161D01*
X279956Y152435D01*
X280044Y152802D01*
X280044Y152960D02*
X280044Y152802D01*
X280044Y152960D02*
X279949Y153314D01*
X279689Y153573D01*
X279335Y153668D01*
X278981Y153573D01*
X278721Y153314D01*
X278626Y152960D01*
X281028Y152960D02*
X281737Y153668D01*
X281737Y150125D01*
X282721Y151897D02*
X284296Y151897D01*
X285280Y152960D02*
X285989Y153668D01*
X285989Y150125D01*
X288390Y152960D02*
X288295Y153314D01*
X288036Y153573D01*
X287682Y153668D01*
X287327Y153573D01*
X287068Y153314D01*
X286973Y152960D01*
X286973Y150834D01*
X287068Y150479D01*
X287327Y150220D01*
X287682Y150125D01*
X288036Y150220D01*
X288295Y150479D01*
X288390Y150834D01*
X288390Y151542D01*
X288295Y151897D01*
X288036Y152156D01*
X287682Y152251D01*
X287327Y152156D01*
X287068Y151897D01*
X286973Y151542D01*
X57687Y111053D02*
X54143Y111053D01*
X56624Y112273D01*
X54143Y113533D01*
X57687Y113533D01*
X55009Y116269D02*
X54566Y116151D01*
X54242Y115826D01*
X54124Y115383D01*
X54242Y114940D01*
X54566Y114616D01*
X55009Y114498D01*
X55009Y114517D02*
X56820Y114517D01*
X56820Y114498D02*
X57263Y114616D01*
X57588Y114940D01*
X57706Y115383D01*
X57588Y115826D01*
X57263Y116151D01*
X56820Y116269D01*
X57687Y117273D02*
X55915Y117273D01*
X55915Y118139D01*
X55895Y118139D02*
X55776Y118582D01*
X55452Y118906D01*
X55009Y119025D01*
X54566Y118906D01*
X54242Y118582D01*
X54124Y118139D01*
X54143Y118139D02*
X54143Y117273D01*
X55915Y117273D01*
X56978Y120029D02*
X57332Y120124D01*
X57592Y120383D01*
X57687Y120738D01*
X57592Y121092D01*
X57332Y121351D01*
X56978Y121446D01*
X56466Y121446D02*
X56978Y121446D01*
X56466Y121446D02*
X56112Y121351D01*
X55852Y121092D01*
X55757Y120738D01*
X55757Y120541D02*
X55757Y120738D01*
X55757Y120541D01*
X55757Y120738D02*
X55650Y121099D01*
X55376Y121359D01*
X55009Y121446D01*
X54852Y121446D02*
X55009Y121446D01*
X54852Y121446D02*
X54498Y121351D01*
X54238Y121092D01*
X54143Y120738D01*
X54238Y120383D01*
X54498Y120124D01*
X54852Y120029D01*
X54852Y123848D02*
X54498Y123753D01*
X54238Y123494D01*
X54143Y123139D01*
X54238Y122785D01*
X54498Y122526D01*
X54852Y122431D01*
X54852Y123848D02*
X57687Y122431D01*
X57687Y123848D01*
X54852Y126250D02*
X56978Y126250D01*
X54852Y126250D02*
X54498Y126155D01*
X54238Y125895D01*
X54143Y125541D01*
X54238Y125187D01*
X54498Y124927D01*
X54852Y124832D01*
X56978Y124832D02*
X54852Y124832D01*
X56978Y124832D02*
X57332Y124927D01*
X57592Y125187D01*
X57687Y125541D01*
X57592Y125895D01*
X57332Y126155D01*
X56978Y126250D01*
X56466Y128651D02*
X56978Y128651D01*
X56466Y128651D02*
X56112Y128556D01*
X55852Y128297D01*
X55757Y127942D01*
X55852Y127588D01*
X56112Y127329D01*
X56466Y127234D01*
X56978Y127234D02*
X56466Y127234D01*
X56978Y127234D02*
X57332Y127329D01*
X57592Y127588D01*
X57687Y127942D01*
X57592Y128297D01*
X57332Y128556D01*
X56978Y128651D01*
X54852Y128651D02*
X55009Y128651D01*
X54852Y128651D02*
X54498Y128556D01*
X54238Y128297D01*
X54143Y127942D01*
X54238Y127588D01*
X54498Y127329D01*
X54852Y127234D01*
X55009Y127234D02*
X54852Y127234D01*
X55009Y127234D02*
X55364Y127329D01*
X55623Y127588D01*
X55718Y127942D01*
X55623Y128297D01*
X55364Y128556D01*
X55009Y128651D01*
X55915Y129635D02*
X55915Y131210D01*
X55009Y133946D02*
X54566Y133828D01*
X54242Y133503D01*
X54124Y133061D01*
X54242Y132618D01*
X54566Y132293D01*
X55009Y132175D01*
X55009Y132194D02*
X56820Y132194D01*
X56820Y132175D02*
X57263Y132293D01*
X57588Y132618D01*
X57706Y133061D01*
X57588Y133503D01*
X57263Y133828D01*
X56820Y133946D01*
X57687Y134950D02*
X54143Y134950D01*
X54143Y137509D02*
X57687Y135935D01*
X57687Y138494D02*
X55915Y138494D01*
X55915Y139360D01*
X55895Y139360D02*
X55776Y139803D01*
X55452Y140127D01*
X55009Y140246D01*
X54566Y140127D01*
X54242Y139803D01*
X54124Y139360D01*
X54143Y139360D02*
X54143Y138494D01*
X55915Y138494D01*
X74283Y164835D02*
X74992Y165543D01*
X74992Y162000D01*
X77394Y164835D02*
X77394Y162709D01*
X77394Y164835D02*
X77299Y165189D01*
X77039Y165448D01*
X76685Y165543D01*
X76331Y165448D01*
X76071Y165189D01*
X75976Y164835D01*
X75976Y162709D02*
X75976Y164835D01*
X75976Y162709D02*
X76071Y162354D01*
X76331Y162095D01*
X76685Y162000D01*
X77039Y162095D01*
X77299Y162354D01*
X77394Y162709D01*
X79795Y164835D02*
X79795Y162709D01*
X79795Y164835D02*
X79700Y165189D01*
X79441Y165448D01*
X79087Y165543D01*
X78732Y165448D01*
X78473Y165189D01*
X78378Y164835D01*
X78378Y162709D02*
X78378Y164835D01*
X78378Y162709D02*
X78473Y162354D01*
X78732Y162095D01*
X79087Y162000D01*
X79441Y162095D01*
X79700Y162354D01*
X79795Y162709D01*
X80780Y162000D02*
X80780Y164323D01*
X82197Y163575D02*
X82102Y163929D01*
X81843Y164189D01*
X81488Y164283D01*
X81134Y164189D01*
X80874Y163929D01*
X80780Y163575D01*
X82197Y163575D02*
X82197Y162000D01*
X84953Y165543D02*
X83181Y165543D01*
X83181Y163772D01*
X84402Y163772D01*
X83181Y163772D02*
X83181Y162000D01*
X79094Y171240D02*
X78975Y171683D01*
X78651Y172007D01*
X78208Y172125D01*
X77765Y172007D01*
X77441Y171683D01*
X77322Y171240D01*
X77342Y171240D02*
X77342Y169429D01*
X77322Y169429D02*
X77441Y168986D01*
X77765Y168661D01*
X78208Y168543D01*
X78651Y168661D01*
X78975Y168986D01*
X79094Y169429D01*
X81515Y171397D02*
X81420Y171751D01*
X81161Y172011D01*
X80807Y172106D01*
X80452Y172011D01*
X80193Y171751D01*
X80098Y171397D01*
X81515Y171397D02*
X80098Y168562D01*
X81515Y168562D01*
X33125Y26875D02*
X33125Y30418D01*
X33125Y28095D02*
X34896Y30418D01*
X33833Y29000D02*
X34896Y26875D01*
X37298Y28449D02*
X37203Y28804D01*
X36943Y29063D01*
X36589Y29158D01*
X36235Y29063D01*
X35975Y28804D01*
X35880Y28449D01*
X36747Y27937D02*
X37015Y27999D01*
X37217Y28186D01*
X37298Y28449D01*
X36747Y27937D02*
X36392Y27937D01*
X36392Y27918D02*
X36080Y27816D01*
X35887Y27551D01*
X35887Y27222D01*
X36080Y26956D01*
X36392Y26855D01*
X36392Y26875D02*
X36747Y26875D01*
X37015Y26936D01*
X37217Y27123D01*
X37298Y27386D01*
X37298Y28449D02*
X37298Y27229D01*
X37652Y26875D01*
X38636Y26875D02*
X38636Y29197D01*
X40054Y28449D02*
X39959Y28804D01*
X39699Y29063D01*
X39345Y29158D01*
X38991Y29063D01*
X38731Y28804D01*
X38636Y28449D01*
X40054Y28449D02*
X40054Y26875D01*
X42455Y28449D02*
X42360Y28804D01*
X42101Y29063D01*
X41747Y29158D01*
X41392Y29063D01*
X41133Y28804D01*
X41038Y28449D01*
X41904Y27937D02*
X42172Y27999D01*
X42374Y28186D01*
X42455Y28449D01*
X41904Y27937D02*
X41550Y27937D01*
X41550Y27918D02*
X41237Y27816D01*
X41044Y27551D01*
X41044Y27222D01*
X41237Y26956D01*
X41550Y26855D01*
X41550Y26875D02*
X41904Y26875D01*
X42172Y26936D01*
X42374Y27123D01*
X42455Y27386D01*
X42455Y28449D02*
X42455Y27229D01*
X42810Y26875D01*
X43794Y30418D02*
X43794Y27386D01*
X43862Y27130D01*
X44050Y26943D01*
X44306Y26875D01*
X48479Y29709D02*
X48479Y27583D01*
X48479Y29709D02*
X48384Y30063D01*
X48125Y30323D01*
X47770Y30418D01*
X47416Y30323D01*
X47156Y30063D01*
X47062Y29709D01*
X47062Y27583D02*
X47062Y29709D01*
X47062Y27583D02*
X47156Y27229D01*
X47416Y26969D01*
X47770Y26875D01*
X48125Y26969D01*
X48384Y27229D01*
X48479Y27583D01*
X57500Y26875D02*
X57500Y30418D01*
X57500Y28095D02*
X59271Y30418D01*
X58208Y29000D02*
X59271Y26875D01*
X61673Y28449D02*
X61578Y28804D01*
X61318Y29063D01*
X60964Y29158D01*
X60610Y29063D01*
X60350Y28804D01*
X60255Y28449D01*
X61122Y27937D02*
X61390Y27999D01*
X61592Y28186D01*
X61673Y28449D01*
X61122Y27937D02*
X60767Y27937D01*
X60767Y27918D02*
X60455Y27816D01*
X60262Y27551D01*
X60262Y27222D01*
X60455Y26956D01*
X60767Y26855D01*
X60767Y26875D02*
X61122Y26875D01*
X61390Y26936D01*
X61592Y27123D01*
X61673Y27386D01*
X61673Y28449D02*
X61673Y27229D01*
X62027Y26875D01*
X63011Y26875D02*
X63011Y29197D01*
X64429Y28449D02*
X64334Y28804D01*
X64074Y29063D01*
X63720Y29158D01*
X63366Y29063D01*
X63106Y28804D01*
X63011Y28449D01*
X64429Y28449D02*
X64429Y26875D01*
X66830Y28449D02*
X66735Y28804D01*
X66476Y29063D01*
X66122Y29158D01*
X65767Y29063D01*
X65508Y28804D01*
X65413Y28449D01*
X66279Y27937D02*
X66547Y27999D01*
X66749Y28186D01*
X66830Y28449D01*
X66279Y27937D02*
X65925Y27937D01*
X65925Y27918D02*
X65612Y27816D01*
X65419Y27551D01*
X65419Y27222D01*
X65612Y26956D01*
X65925Y26855D01*
X65925Y26875D02*
X66279Y26875D01*
X66547Y26936D01*
X66749Y27123D01*
X66830Y27386D01*
X66830Y28449D02*
X66830Y27229D01*
X67185Y26875D01*
X68169Y30418D02*
X68169Y27386D01*
X68237Y27130D01*
X68425Y26943D01*
X68681Y26875D01*
X71437Y29709D02*
X72145Y30418D01*
X72145Y26875D01*
X81875Y26875D02*
X81875Y30418D01*
X81875Y28095D02*
X83646Y30418D01*
X82583Y29000D02*
X83646Y26875D01*
X86048Y28449D02*
X85953Y28804D01*
X85693Y29063D01*
X85339Y29158D01*
X84985Y29063D01*
X84725Y28804D01*
X84630Y28449D01*
X85497Y27937D02*
X85765Y27999D01*
X85967Y28186D01*
X86048Y28449D01*
X85497Y27937D02*
X85142Y27937D01*
X85142Y27918D02*
X84830Y27816D01*
X84637Y27551D01*
X84637Y27222D01*
X84830Y26956D01*
X85142Y26855D01*
X85142Y26875D02*
X85497Y26875D01*
X85765Y26936D01*
X85967Y27123D01*
X86048Y27386D01*
X86048Y28449D02*
X86048Y27229D01*
X86402Y26875D01*
X87386Y26875D02*
X87386Y29197D01*
X88804Y28449D02*
X88709Y28804D01*
X88449Y29063D01*
X88095Y29158D01*
X87741Y29063D01*
X87481Y28804D01*
X87386Y28449D01*
X88804Y28449D02*
X88804Y26875D01*
X91205Y28449D02*
X91110Y28804D01*
X90851Y29063D01*
X90497Y29158D01*
X90142Y29063D01*
X89883Y28804D01*
X89788Y28449D01*
X90654Y27937D02*
X90922Y27999D01*
X91124Y28186D01*
X91205Y28449D01*
X90654Y27937D02*
X90300Y27937D01*
X90300Y27918D02*
X89987Y27816D01*
X89794Y27551D01*
X89794Y27222D01*
X89987Y26956D01*
X90300Y26855D01*
X90300Y26875D02*
X90654Y26875D01*
X90922Y26936D01*
X91124Y27123D01*
X91205Y27386D01*
X91205Y28449D02*
X91205Y27229D01*
X91560Y26875D01*
X92544Y30418D02*
X92544Y27386D01*
X92612Y27130D01*
X92800Y26943D01*
X93056Y26875D01*
X97229Y29709D02*
X97134Y30063D01*
X96875Y30323D01*
X96520Y30418D01*
X96166Y30323D01*
X95906Y30063D01*
X95812Y29709D01*
X97229Y29709D02*
X95812Y26875D01*
X97229Y26875D01*
X107500Y26875D02*
X107500Y30418D01*
X107500Y28095D02*
X109271Y30418D01*
X108208Y29000D02*
X109271Y26875D01*
X111673Y28449D02*
X111578Y28804D01*
X111318Y29063D01*
X110964Y29158D01*
X110610Y29063D01*
X110350Y28804D01*
X110255Y28449D01*
X111122Y27937D02*
X111390Y27999D01*
X111592Y28186D01*
X111673Y28449D01*
X111122Y27937D02*
X110767Y27937D01*
X110767Y27918D02*
X110455Y27816D01*
X110262Y27551D01*
X110262Y27222D01*
X110455Y26956D01*
X110767Y26855D01*
X110767Y26875D02*
X111122Y26875D01*
X111390Y26936D01*
X111592Y27123D01*
X111673Y27386D01*
X111673Y28449D02*
X111673Y27229D01*
X112027Y26875D01*
X113011Y26875D02*
X113011Y29197D01*
X114429Y28449D02*
X114334Y28804D01*
X114074Y29063D01*
X113720Y29158D01*
X113366Y29063D01*
X113106Y28804D01*
X113011Y28449D01*
X114429Y28449D02*
X114429Y26875D01*
X116830Y28449D02*
X116735Y28804D01*
X116476Y29063D01*
X116122Y29158D01*
X115767Y29063D01*
X115508Y28804D01*
X115413Y28449D01*
X116279Y27937D02*
X116547Y27999D01*
X116749Y28186D01*
X116830Y28449D01*
X116279Y27937D02*
X115925Y27937D01*
X115925Y27918D02*
X115612Y27816D01*
X115419Y27551D01*
X115419Y27222D01*
X115612Y26956D01*
X115925Y26855D01*
X115925Y26875D02*
X116279Y26875D01*
X116547Y26936D01*
X116749Y27123D01*
X116830Y27386D01*
X116830Y28449D02*
X116830Y27229D01*
X117185Y26875D01*
X118169Y30418D02*
X118169Y27386D01*
X118237Y27130D01*
X118425Y26943D01*
X118681Y26875D01*
X121437Y27583D02*
X121531Y27229D01*
X121791Y26969D01*
X122145Y26875D01*
X122500Y26969D01*
X122759Y27229D01*
X122854Y27583D01*
X122854Y28095D02*
X122854Y27583D01*
X122854Y28095D02*
X122759Y28449D01*
X122500Y28709D01*
X122145Y28804D01*
X121948Y28804D02*
X122145Y28804D01*
X121948Y28804D01*
X122145Y28804D02*
X122507Y28911D01*
X122766Y29185D01*
X122854Y29552D01*
X122854Y29709D02*
X122854Y29552D01*
X122854Y29709D02*
X122759Y30063D01*
X122500Y30323D01*
X122145Y30418D01*
X121791Y30323D01*
X121531Y30063D01*
X121437Y29709D01*
X131875Y26875D02*
X131875Y30418D01*
X131875Y28095D02*
X133646Y30418D01*
X132583Y29000D02*
X133646Y26875D01*
X136048Y28449D02*
X135953Y28804D01*
X135693Y29063D01*
X135339Y29158D01*
X134985Y29063D01*
X134725Y28804D01*
X134630Y28449D01*
X135497Y27937D02*
X135765Y27999D01*
X135967Y28186D01*
X136048Y28449D01*
X135497Y27937D02*
X135142Y27937D01*
X135142Y27918D02*
X134830Y27816D01*
X134637Y27551D01*
X134637Y27222D01*
X134830Y26956D01*
X135142Y26855D01*
X135142Y26875D02*
X135497Y26875D01*
X135765Y26936D01*
X135967Y27123D01*
X136048Y27386D01*
X136048Y28449D02*
X136048Y27229D01*
X136402Y26875D01*
X137386Y26875D02*
X137386Y29197D01*
X138804Y28449D02*
X138709Y28804D01*
X138449Y29063D01*
X138095Y29158D01*
X137741Y29063D01*
X137481Y28804D01*
X137386Y28449D01*
X138804Y28449D02*
X138804Y26875D01*
X141205Y28449D02*
X141110Y28804D01*
X140851Y29063D01*
X140497Y29158D01*
X140142Y29063D01*
X139883Y28804D01*
X139788Y28449D01*
X140654Y27937D02*
X140922Y27999D01*
X141124Y28186D01*
X141205Y28449D01*
X140654Y27937D02*
X140300Y27937D01*
X140300Y27918D02*
X139987Y27816D01*
X139794Y27551D01*
X139794Y27222D01*
X139987Y26956D01*
X140300Y26855D01*
X140300Y26875D02*
X140654Y26875D01*
X140922Y26936D01*
X141124Y27123D01*
X141205Y27386D01*
X141205Y28449D02*
X141205Y27229D01*
X141560Y26875D01*
X142544Y30418D02*
X142544Y27386D01*
X142612Y27130D01*
X142800Y26943D01*
X143056Y26875D01*
X146875Y30418D02*
X145812Y27741D01*
X147229Y27741D01*
X146875Y28449D02*
X146875Y26875D01*
X156875Y26875D02*
X156875Y30418D01*
X156875Y28095D02*
X158646Y30418D01*
X157583Y29000D02*
X158646Y26875D01*
X161048Y28449D02*
X160953Y28804D01*
X160693Y29063D01*
X160339Y29158D01*
X159985Y29063D01*
X159725Y28804D01*
X159630Y28449D01*
X160497Y27937D02*
X160765Y27999D01*
X160967Y28186D01*
X161048Y28449D01*
X160497Y27937D02*
X160142Y27937D01*
X160142Y27918D02*
X159830Y27816D01*
X159637Y27551D01*
X159637Y27222D01*
X159830Y26956D01*
X160142Y26855D01*
X160142Y26875D02*
X160497Y26875D01*
X160765Y26936D01*
X160967Y27123D01*
X161048Y27386D01*
X161048Y28449D02*
X161048Y27229D01*
X161402Y26875D01*
X162386Y26875D02*
X162386Y29197D01*
X163804Y28449D02*
X163709Y28804D01*
X163449Y29063D01*
X163095Y29158D01*
X162741Y29063D01*
X162481Y28804D01*
X162386Y28449D01*
X163804Y28449D02*
X163804Y26875D01*
X166205Y28449D02*
X166110Y28804D01*
X165851Y29063D01*
X165497Y29158D01*
X165142Y29063D01*
X164883Y28804D01*
X164788Y28449D01*
X165654Y27937D02*
X165922Y27999D01*
X166124Y28186D01*
X166205Y28449D01*
X165654Y27937D02*
X165300Y27937D01*
X165300Y27918D02*
X164987Y27816D01*
X164794Y27551D01*
X164794Y27222D01*
X164987Y26956D01*
X165300Y26855D01*
X165300Y26875D02*
X165654Y26875D01*
X165922Y26936D01*
X166124Y27123D01*
X166205Y27386D01*
X166205Y28449D02*
X166205Y27229D01*
X166560Y26875D01*
X167544Y30418D02*
X167544Y27386D01*
X167612Y27130D01*
X167800Y26943D01*
X168056Y26875D01*
X170930Y27189D02*
X171197Y26951D01*
X171547Y26874D01*
X171890Y26978D01*
X172138Y27236D01*
X172229Y27583D01*
X172229Y28292D01*
X172134Y28646D01*
X171875Y28906D01*
X171520Y29000D01*
X171166Y28906D01*
X170906Y28646D01*
X170812Y28292D01*
X170812Y30418D01*
X172229Y30418D01*
X182500Y26875D02*
X182500Y30418D01*
X182500Y28095D02*
X184271Y30418D01*
X183208Y29000D02*
X184271Y26875D01*
X186673Y28449D02*
X186578Y28804D01*
X186318Y29063D01*
X185964Y29158D01*
X185610Y29063D01*
X185350Y28804D01*
X185255Y28449D01*
X186122Y27937D02*
X186390Y27999D01*
X186592Y28186D01*
X186673Y28449D01*
X186122Y27937D02*
X185767Y27937D01*
X185767Y27918D02*
X185455Y27816D01*
X185262Y27551D01*
X185262Y27222D01*
X185455Y26956D01*
X185767Y26855D01*
X185767Y26875D02*
X186122Y26875D01*
X186390Y26936D01*
X186592Y27123D01*
X186673Y27386D01*
X186673Y28449D02*
X186673Y27229D01*
X187027Y26875D01*
X188011Y26875D02*
X188011Y29197D01*
X189429Y28449D02*
X189334Y28804D01*
X189074Y29063D01*
X188720Y29158D01*
X188366Y29063D01*
X188106Y28804D01*
X188011Y28449D01*
X189429Y28449D02*
X189429Y26875D01*
X191830Y28449D02*
X191735Y28804D01*
X191476Y29063D01*
X191122Y29158D01*
X190767Y29063D01*
X190508Y28804D01*
X190413Y28449D01*
X191279Y27937D02*
X191547Y27999D01*
X191749Y28186D01*
X191830Y28449D01*
X191279Y27937D02*
X190925Y27937D01*
X190925Y27918D02*
X190612Y27816D01*
X190419Y27551D01*
X190419Y27222D01*
X190612Y26956D01*
X190925Y26855D01*
X190925Y26875D02*
X191279Y26875D01*
X191547Y26936D01*
X191749Y27123D01*
X191830Y27386D01*
X191830Y28449D02*
X191830Y27229D01*
X192185Y26875D01*
X193169Y30418D02*
X193169Y27386D01*
X193237Y27130D01*
X193425Y26943D01*
X193681Y26875D01*
X197854Y29709D02*
X197759Y30063D01*
X197500Y30323D01*
X197145Y30418D01*
X196791Y30323D01*
X196531Y30063D01*
X196437Y29709D01*
X196437Y27583D01*
X196531Y27229D01*
X196791Y26969D01*
X197145Y26875D01*
X197500Y26969D01*
X197759Y27229D01*
X197854Y27583D01*
X197854Y28292D01*
X197759Y28646D01*
X197500Y28906D01*
X197145Y29000D01*
X196791Y28906D01*
X196531Y28646D01*
X196437Y28292D01*
X206875Y26875D02*
X206875Y30418D01*
X206875Y28095D02*
X208646Y30418D01*
X207583Y29000D02*
X208646Y26875D01*
X211048Y28449D02*
X210953Y28804D01*
X210693Y29063D01*
X210339Y29158D01*
X209985Y29063D01*
X209725Y28804D01*
X209630Y28449D01*
X210497Y27937D02*
X210765Y27999D01*
X210967Y28186D01*
X211048Y28449D01*
X210497Y27937D02*
X210142Y27937D01*
X210142Y27918D02*
X209830Y27816D01*
X209637Y27551D01*
X209637Y27222D01*
X209830Y26956D01*
X210142Y26855D01*
X210142Y26875D02*
X210497Y26875D01*
X210765Y26936D01*
X210967Y27123D01*
X211048Y27386D01*
X211048Y28449D02*
X211048Y27229D01*
X211402Y26875D01*
X212386Y26875D02*
X212386Y29197D01*
X213804Y28449D02*
X213709Y28804D01*
X213449Y29063D01*
X213095Y29158D01*
X212741Y29063D01*
X212481Y28804D01*
X212386Y28449D01*
X213804Y28449D02*
X213804Y26875D01*
X216205Y28449D02*
X216110Y28804D01*
X215851Y29063D01*
X215497Y29158D01*
X215142Y29063D01*
X214883Y28804D01*
X214788Y28449D01*
X215654Y27937D02*
X215922Y27999D01*
X216124Y28186D01*
X216205Y28449D01*
X215654Y27937D02*
X215300Y27937D01*
X215300Y27918D02*
X214987Y27816D01*
X214794Y27551D01*
X214794Y27222D01*
X214987Y26956D01*
X215300Y26855D01*
X215300Y26875D02*
X215654Y26875D01*
X215922Y26936D01*
X216124Y27123D01*
X216205Y27386D01*
X216205Y28449D02*
X216205Y27229D01*
X216560Y26875D01*
X217544Y30418D02*
X217544Y27386D01*
X217612Y27130D01*
X217800Y26943D01*
X218056Y26875D01*
X220812Y29906D02*
X220812Y30418D01*
X222229Y30418D01*
X221166Y26875D01*
X181250Y40625D02*
X177706Y40625D01*
X177706Y41491D01*
X179458Y41491D02*
X179339Y41934D01*
X179015Y42258D01*
X178572Y42376D01*
X178129Y42258D01*
X177805Y41934D01*
X177687Y41491D01*
X179478Y41491D02*
X179478Y40625D01*
X179478Y41491D02*
X181250Y42396D01*
X178415Y44798D02*
X178061Y44703D01*
X177801Y44443D01*
X177706Y44089D01*
X177801Y43735D01*
X178061Y43475D01*
X178415Y43380D01*
X180541Y43380D01*
X180895Y43475D01*
X181155Y43735D01*
X181250Y44089D01*
X181155Y44443D01*
X180895Y44703D01*
X180541Y44798D01*
X179832Y44798D01*
X179478Y44703D01*
X179218Y44443D01*
X179124Y44089D01*
X179218Y43735D01*
X179478Y43475D01*
X179832Y43380D01*
X194581Y41687D02*
X197258Y40625D01*
X197258Y42042D01*
X196550Y41687D02*
X198125Y41687D01*
X195093Y43026D02*
X194581Y43026D01*
X194581Y44443D01*
X198125Y43380D01*
X198125Y45428D02*
X194581Y45428D01*
X196904Y45428D02*
X194581Y47199D01*
X195999Y46136D02*
X198125Y47199D01*
X156250Y40625D02*
X152706Y40625D01*
X152706Y41491D01*
X154458Y41491D02*
X154339Y41934D01*
X154015Y42258D01*
X153572Y42376D01*
X153129Y42258D01*
X152805Y41934D01*
X152687Y41491D01*
X154478Y41491D02*
X154478Y40625D01*
X154478Y41491D02*
X156250Y42396D01*
X153218Y43380D02*
X152706Y43380D01*
X152706Y44798D01*
X156250Y43735D01*
X168956Y41687D02*
X171633Y40625D01*
X171633Y42042D01*
X170925Y41687D02*
X172500Y41687D01*
X169468Y43026D02*
X168956Y43026D01*
X168956Y44443D01*
X172500Y43380D01*
X172500Y45428D02*
X168956Y45428D01*
X171279Y45428D02*
X168956Y47199D01*
X170374Y46136D02*
X172500Y47199D01*
X131250Y40625D02*
X127706Y40625D01*
X127706Y41491D01*
X129458Y41491D02*
X129339Y41934D01*
X129015Y42258D01*
X128572Y42376D01*
X128129Y42258D01*
X127805Y41934D01*
X127687Y41491D01*
X129478Y41491D02*
X129478Y40625D01*
X129478Y41491D02*
X131250Y42396D01*
X130029Y44798D02*
X130541Y44798D01*
X130029Y44798D02*
X129675Y44703D01*
X129415Y44443D01*
X129320Y44089D01*
X129415Y43735D01*
X129675Y43475D01*
X130029Y43380D01*
X130541Y43380D02*
X130029Y43380D01*
X130541Y43380D02*
X130895Y43475D01*
X131155Y43735D01*
X131250Y44089D01*
X131155Y44443D01*
X130895Y44703D01*
X130541Y44798D01*
X128415Y44798D02*
X128572Y44798D01*
X128415Y44798D02*
X128061Y44703D01*
X127801Y44443D01*
X127706Y44089D01*
X127801Y43735D01*
X128061Y43475D01*
X128415Y43380D01*
X128572Y43380D02*
X128415Y43380D01*
X128572Y43380D02*
X128927Y43475D01*
X129186Y43735D01*
X129281Y44089D01*
X129186Y44443D01*
X128927Y44703D01*
X128572Y44798D01*
X144581Y41687D02*
X147258Y40625D01*
X147258Y42042D01*
X146550Y41687D02*
X148125Y41687D01*
X145093Y43026D02*
X144581Y43026D01*
X144581Y44443D01*
X148125Y43380D01*
X148125Y45428D02*
X144581Y45428D01*
X146904Y45428D02*
X144581Y47199D01*
X145999Y46136D02*
X148125Y47199D01*
X122863Y40625D02*
X119319Y40625D01*
X119319Y41491D01*
X121071Y41491D02*
X120953Y41934D01*
X120629Y42258D01*
X120186Y42376D01*
X119743Y42258D01*
X119418Y41934D01*
X119300Y41491D01*
X121091Y41491D02*
X121091Y40625D01*
X121091Y41491D02*
X122863Y42396D01*
X122154Y43380D02*
X122508Y43475D01*
X122768Y43735D01*
X122863Y44089D01*
X122768Y44443D01*
X122508Y44703D01*
X122154Y44798D01*
X120028Y44798D01*
X119674Y44703D01*
X119414Y44443D01*
X119319Y44089D01*
X119414Y43735D01*
X119674Y43475D01*
X120028Y43380D01*
X120737Y43380D01*
X121091Y43475D01*
X121351Y43735D01*
X121445Y44089D01*
X121351Y44443D01*
X121091Y44703D01*
X120737Y44798D01*
X118956Y50437D02*
X121633Y49375D01*
X121633Y50792D01*
X120925Y50437D02*
X122500Y50437D01*
X119468Y51776D02*
X118956Y51776D01*
X118956Y53193D01*
X122500Y52130D01*
X122500Y54178D02*
X118956Y54178D01*
X121279Y54178D02*
X118956Y55949D01*
X120374Y54886D02*
X122500Y55949D01*
X91250Y40625D02*
X87706Y40625D01*
X87706Y41491D01*
X89458Y41491D02*
X89339Y41934D01*
X89015Y42258D01*
X88572Y42376D01*
X88129Y42258D01*
X87805Y41934D01*
X87687Y41491D01*
X89478Y41491D02*
X89478Y40625D01*
X89478Y41491D02*
X91250Y42396D01*
X88415Y43380D02*
X87706Y44089D01*
X91250Y44089D01*
X88415Y46491D02*
X90541Y46491D01*
X88415Y46491D02*
X88061Y46396D01*
X87801Y46136D01*
X87706Y45782D01*
X87801Y45428D01*
X88061Y45168D01*
X88415Y45073D01*
X90541Y45073D02*
X88415Y45073D01*
X90541Y45073D02*
X90895Y45168D01*
X91155Y45428D01*
X91250Y45782D01*
X91155Y46136D01*
X90895Y46396D01*
X90541Y46491D01*
X87706Y50437D02*
X90383Y49375D01*
X90383Y50792D01*
X89675Y50437D02*
X91250Y50437D01*
X88218Y51776D02*
X87706Y51776D01*
X87706Y53193D01*
X91250Y52130D01*
X91250Y54178D02*
X87706Y54178D01*
X90029Y54178D02*
X87706Y55949D01*
X89124Y54886D02*
X91250Y55949D01*
X66250Y40625D02*
X62706Y40625D01*
X62706Y41491D01*
X64458Y41491D02*
X64339Y41934D01*
X64015Y42258D01*
X63572Y42376D01*
X63129Y42258D01*
X62805Y41934D01*
X62687Y41491D01*
X64478Y41491D02*
X64478Y40625D01*
X64478Y41491D02*
X66250Y42396D01*
X63415Y43380D02*
X62706Y44089D01*
X66250Y44089D01*
X63415Y45073D02*
X62706Y45782D01*
X66250Y45782D01*
X78956Y41687D02*
X81633Y40625D01*
X81633Y42042D01*
X80925Y41687D02*
X82500Y41687D01*
X79468Y43026D02*
X78956Y43026D01*
X78956Y44443D01*
X82500Y43380D01*
X82500Y45428D02*
X78956Y45428D01*
X81279Y45428D02*
X78956Y47199D01*
X80374Y46136D02*
X82500Y47199D01*
X41250Y40625D02*
X37706Y40625D01*
X37706Y41491D01*
X39458Y41491D02*
X39339Y41934D01*
X39015Y42258D01*
X38572Y42376D01*
X38129Y42258D01*
X37805Y41934D01*
X37687Y41491D01*
X39478Y41491D02*
X39478Y40625D01*
X39478Y41491D02*
X41250Y42396D01*
X38415Y43380D02*
X37706Y44089D01*
X41250Y44089D01*
X38415Y46491D02*
X38061Y46396D01*
X37801Y46136D01*
X37706Y45782D01*
X37801Y45428D01*
X38061Y45168D01*
X38415Y45073D01*
X38415Y46491D02*
X41250Y45073D01*
X41250Y46491D01*
X53956Y41687D02*
X56633Y40625D01*
X56633Y42042D01*
X55925Y41687D02*
X57500Y41687D01*
X54468Y43026D02*
X53956Y43026D01*
X53956Y44443D01*
X57500Y43380D01*
X57500Y45428D02*
X53956Y45428D01*
X56279Y45428D02*
X53956Y47199D01*
X55374Y46136D02*
X57500Y47199D01*
X16250Y40625D02*
X12706Y40625D01*
X12706Y41491D01*
X14458Y41491D02*
X14339Y41934D01*
X14015Y42258D01*
X13572Y42376D01*
X13129Y42258D01*
X12805Y41934D01*
X12687Y41491D01*
X14478Y41491D02*
X14478Y40625D01*
X14478Y41491D02*
X16250Y42396D01*
X13415Y43380D02*
X12706Y44089D01*
X16250Y44089D01*
X15541Y45073D02*
X15895Y45168D01*
X16155Y45428D01*
X16250Y45782D01*
X16155Y46136D01*
X15895Y46396D01*
X15541Y46491D01*
X15029Y46491D02*
X15541Y46491D01*
X15029Y46491D02*
X14675Y46396D01*
X14415Y46136D01*
X14320Y45782D01*
X14320Y45585D02*
X14320Y45782D01*
X14320Y45585D01*
X14320Y45782D02*
X14213Y46144D01*
X13939Y46403D01*
X13572Y46491D01*
X13415Y46491D02*
X13572Y46491D01*
X13415Y46491D02*
X13061Y46396D01*
X12801Y46136D01*
X12706Y45782D01*
X12801Y45428D01*
X13061Y45168D01*
X13415Y45073D01*
X28956Y41687D02*
X31633Y40625D01*
X31633Y42042D01*
X30925Y41687D02*
X32500Y41687D01*
X29468Y43026D02*
X28956Y43026D01*
X28956Y44443D01*
X32500Y43380D01*
X32500Y45428D02*
X28956Y45428D01*
X31279Y45428D02*
X28956Y47199D01*
X30374Y46136D02*
X32500Y47199D01*
X199251Y58302D02*
X199133Y58745D01*
X198809Y59069D01*
X198366Y59187D01*
X197923Y59069D01*
X197598Y58745D01*
X197480Y58302D01*
X197500Y58302D02*
X197500Y56491D01*
X197480Y56491D02*
X197598Y56048D01*
X197923Y55723D01*
X198366Y55605D01*
X198809Y55723D01*
X199133Y56048D01*
X199251Y56491D01*
X200255Y56333D02*
X200350Y55979D01*
X200610Y55719D01*
X200964Y55625D01*
X201318Y55719D01*
X201578Y55979D01*
X201673Y56333D01*
X201673Y56845D02*
X201673Y56333D01*
X201673Y56845D02*
X201578Y57199D01*
X201318Y57459D01*
X200964Y57554D01*
X200767Y57554D02*
X200964Y57554D01*
X200767Y57554D01*
X200964Y57554D02*
X201326Y57661D01*
X201585Y57935D01*
X201673Y58302D01*
X201673Y58459D02*
X201673Y58302D01*
X201673Y58459D02*
X201578Y58813D01*
X201318Y59073D01*
X200964Y59168D01*
X200610Y59073D01*
X200350Y58813D01*
X200255Y58459D01*
X174251Y58302D02*
X174133Y58745D01*
X173809Y59069D01*
X173366Y59187D01*
X172923Y59069D01*
X172598Y58745D01*
X172480Y58302D01*
X172500Y58302D02*
X172500Y56491D01*
X172480Y56491D02*
X172598Y56048D01*
X172923Y55723D01*
X173366Y55605D01*
X173809Y55723D01*
X174133Y56048D01*
X174251Y56491D01*
X176318Y59168D02*
X175255Y56491D01*
X176673Y56491D01*
X176318Y57199D02*
X176318Y55625D01*
X149251Y58302D02*
X149133Y58745D01*
X148809Y59069D01*
X148366Y59187D01*
X147923Y59069D01*
X147598Y58745D01*
X147480Y58302D01*
X147500Y58302D02*
X147500Y56491D01*
X147480Y56491D02*
X147598Y56048D01*
X147923Y55723D01*
X148366Y55605D01*
X148809Y55723D01*
X149133Y56048D01*
X149251Y56491D01*
X150374Y55939D02*
X150641Y55701D01*
X150991Y55624D01*
X151334Y55728D01*
X151582Y55986D01*
X151673Y56333D01*
X151673Y57042D01*
X151578Y57396D01*
X151318Y57656D01*
X150964Y57750D01*
X150610Y57656D01*
X150350Y57396D01*
X150255Y57042D01*
X150255Y59168D01*
X151673Y59168D01*
X124876Y58302D02*
X124758Y58745D01*
X124434Y59069D01*
X123991Y59187D01*
X123548Y59069D01*
X123223Y58745D01*
X123105Y58302D01*
X123125Y58302D02*
X123125Y56491D01*
X123105Y56491D02*
X123223Y56048D01*
X123548Y55723D01*
X123991Y55605D01*
X124434Y55723D01*
X124758Y56048D01*
X124876Y56491D01*
X127298Y58459D02*
X127203Y58813D01*
X126943Y59073D01*
X126589Y59168D01*
X126235Y59073D01*
X125975Y58813D01*
X125880Y58459D01*
X125880Y56333D01*
X125975Y55979D01*
X126235Y55719D01*
X126589Y55625D01*
X126943Y55719D01*
X127203Y55979D01*
X127298Y56333D01*
X127298Y57042D01*
X127203Y57396D01*
X126943Y57656D01*
X126589Y57750D01*
X126235Y57656D01*
X125975Y57396D01*
X125880Y57042D01*
X84876Y58302D02*
X84758Y58745D01*
X84434Y59069D01*
X83991Y59187D01*
X83548Y59069D01*
X83223Y58745D01*
X83105Y58302D01*
X83125Y58302D02*
X83125Y56491D01*
X83105Y56491D02*
X83223Y56048D01*
X83548Y55723D01*
X83991Y55605D01*
X84434Y55723D01*
X84758Y56048D01*
X84876Y56491D01*
X85880Y58656D02*
X85880Y59168D01*
X87298Y59168D01*
X86235Y55625D01*
X59876Y58302D02*
X59758Y58745D01*
X59434Y59069D01*
X58991Y59187D01*
X58548Y59069D01*
X58223Y58745D01*
X58105Y58302D01*
X58125Y58302D02*
X58125Y56491D01*
X58105Y56491D02*
X58223Y56048D01*
X58548Y55723D01*
X58991Y55605D01*
X59434Y55723D01*
X59758Y56048D01*
X59876Y56491D01*
X62298Y56845D02*
X62298Y56333D01*
X62298Y56845D02*
X62203Y57199D01*
X61943Y57459D01*
X61589Y57554D01*
X61235Y57459D01*
X60975Y57199D01*
X60880Y56845D01*
X60880Y56333D02*
X60880Y56845D01*
X60880Y56333D02*
X60975Y55979D01*
X61235Y55719D01*
X61589Y55625D01*
X61943Y55719D01*
X62203Y55979D01*
X62298Y56333D01*
X62298Y58459D02*
X62298Y58302D01*
X62298Y58459D02*
X62203Y58813D01*
X61943Y59073D01*
X61589Y59168D01*
X61235Y59073D01*
X60975Y58813D01*
X60880Y58459D01*
X60880Y58302D02*
X60880Y58459D01*
X60880Y58302D02*
X60975Y57947D01*
X61235Y57688D01*
X61589Y57593D01*
X61943Y57688D01*
X62203Y57947D01*
X62298Y58302D01*
X34251Y58302D02*
X34133Y58745D01*
X33809Y59069D01*
X33366Y59187D01*
X32923Y59069D01*
X32598Y58745D01*
X32480Y58302D01*
X32500Y58302D02*
X32500Y56491D01*
X32480Y56491D02*
X32598Y56048D01*
X32923Y55723D01*
X33366Y55605D01*
X33809Y55723D01*
X34133Y56048D01*
X34251Y56491D01*
X35255Y56333D02*
X35350Y55979D01*
X35610Y55719D01*
X35964Y55625D01*
X36318Y55719D01*
X36578Y55979D01*
X36673Y56333D01*
X36673Y58459D01*
X36578Y58813D01*
X36318Y59073D01*
X35964Y59168D01*
X35610Y59073D01*
X35350Y58813D01*
X35255Y58459D01*
X35255Y57750D01*
X35350Y57396D01*
X35610Y57137D01*
X35964Y57042D01*
X36318Y57137D01*
X36578Y57396D01*
X36673Y57750D01*
X8001Y58302D02*
X7883Y58745D01*
X7559Y59069D01*
X7116Y59187D01*
X6673Y59069D01*
X6348Y58745D01*
X6230Y58302D01*
X6250Y58302D02*
X6250Y56491D01*
X6230Y56491D02*
X6348Y56048D01*
X6673Y55723D01*
X7116Y55605D01*
X7559Y55723D01*
X7883Y56048D01*
X8001Y56491D01*
X9005Y58459D02*
X9714Y59168D01*
X9714Y55625D01*
X12116Y58459D02*
X12116Y56333D01*
X12116Y58459D02*
X12021Y58813D01*
X11761Y59073D01*
X11407Y59168D01*
X11053Y59073D01*
X10793Y58813D01*
X10698Y58459D01*
X10698Y56333D02*
X10698Y58459D01*
X10698Y56333D02*
X10793Y55979D01*
X11053Y55719D01*
X11407Y55625D01*
X11761Y55719D01*
X12021Y55979D01*
X12116Y56333D01*
X302812Y109303D02*
X302703Y109749D01*
X302386Y110080D01*
X301946Y110209D01*
X302812Y109303D02*
X302812Y108437D01*
X299269Y108437D01*
X299269Y109303D01*
X300135Y110209D02*
X299695Y110080D01*
X299377Y109749D01*
X299269Y109303D01*
X300135Y110209D02*
X301946Y110209D01*
X302812Y111193D02*
X300332Y111193D01*
X299623Y111193D02*
X299269Y111193D01*
X302300Y112177D02*
X302556Y112246D01*
X302743Y112433D01*
X302812Y112689D01*
X302812Y113043D01*
X302751Y113312D01*
X302563Y113514D01*
X302300Y113594D01*
X302103Y113594D01*
X301840Y113514D01*
X301653Y113312D01*
X301592Y113043D01*
X301592Y112689D01*
X300489Y112689D02*
X300594Y112365D01*
X300870Y112165D01*
X301211Y112165D01*
X301486Y112365D01*
X301592Y112689D01*
X300489Y112689D02*
X300489Y113043D01*
X301040Y113594D02*
X300765Y113521D01*
X300563Y113319D01*
X300489Y113043D01*
X303875Y114579D02*
X300489Y114579D01*
X302103Y114579D02*
X302458Y114674D01*
X302717Y114933D01*
X302812Y115287D01*
X302717Y115642D01*
X302458Y115901D01*
X302103Y115996D01*
X301237Y115996D02*
X302103Y115996D01*
X301237Y115996D02*
X300883Y115901D01*
X300623Y115642D01*
X300529Y115287D01*
X300623Y114933D01*
X300883Y114674D01*
X301237Y114579D01*
X299269Y116980D02*
X302300Y116980D01*
X302556Y117049D01*
X302743Y117236D01*
X302812Y117492D01*
X301237Y119894D02*
X300883Y119799D01*
X300623Y119539D01*
X300529Y119185D01*
X300623Y118831D01*
X300883Y118571D01*
X301237Y118476D01*
X301749Y119343D02*
X301688Y119611D01*
X301500Y119813D01*
X301237Y119894D01*
X301749Y119343D02*
X301749Y118988D01*
X301769Y118988D02*
X301870Y118676D01*
X302136Y118483D01*
X302464Y118483D01*
X302730Y118676D01*
X302832Y118988D01*
X302812Y118988D02*
X302812Y119343D01*
X302751Y119611D01*
X302563Y119813D01*
X302300Y119894D01*
X301237Y119894D02*
X302458Y119894D01*
X302812Y120248D01*
X300489Y121232D02*
X302812Y122098D01*
X300489Y123004D02*
X303678Y121744D01*
X303836Y121390D01*
X267832Y50312D02*
X271375Y50312D01*
X271375Y51887D01*
X271375Y52871D02*
X267832Y52871D01*
X270312Y54092D01*
X267832Y55351D01*
X271375Y55351D01*
X268540Y57753D02*
X268186Y57658D01*
X267927Y57399D01*
X267832Y57044D01*
X267927Y56690D01*
X268186Y56431D01*
X268540Y56336D01*
X268540Y57753D02*
X271375Y56336D01*
X271375Y57753D01*
X271060Y58855D02*
X271298Y59123D01*
X271375Y59473D01*
X271271Y59816D01*
X271013Y60064D01*
X270666Y60155D01*
X269958Y60155D01*
X269603Y60060D01*
X269344Y59800D01*
X269249Y59446D01*
X269344Y59092D01*
X269603Y58832D01*
X269958Y58737D01*
X267832Y58737D01*
X267832Y60155D01*
X268343Y61139D02*
X267832Y61139D01*
X267832Y62556D01*
X271375Y61493D01*
X268343Y63540D02*
X267832Y63540D01*
X267832Y64958D01*
X271375Y63895D01*
X267832Y65942D02*
X267832Y67714D01*
X267832Y66808D02*
X271375Y66808D01*
X269603Y68698D02*
X269603Y70273D01*
X271375Y71257D02*
X267832Y72477D01*
X271375Y73737D01*
X270312Y71611D02*
X270312Y73383D01*
X271375Y75588D02*
X271266Y76033D01*
X270949Y76365D01*
X270509Y76493D01*
X271375Y75588D02*
X271375Y74721D01*
X267832Y74721D01*
X267832Y75588D01*
X268698Y76493D02*
X268258Y76365D01*
X267940Y76033D01*
X267832Y75588D01*
X268698Y76493D02*
X270509Y76493D01*
X267832Y79249D02*
X270509Y79249D01*
X270509Y77458D02*
X270952Y77576D01*
X271276Y77901D01*
X271395Y78343D01*
X271276Y78786D01*
X270952Y79111D01*
X270509Y79229D01*
X269876Y42677D02*
X269758Y43120D01*
X269434Y43444D01*
X268991Y43562D01*
X268548Y43444D01*
X268223Y43120D01*
X268105Y42677D01*
X268125Y42677D02*
X268125Y40866D01*
X268105Y40866D02*
X268223Y40423D01*
X268548Y40098D01*
X268991Y39980D01*
X269434Y40098D01*
X269758Y40423D01*
X269876Y40866D01*
X270880Y42834D02*
X271589Y43543D01*
X271589Y40000D01*
X272573Y42834D02*
X273282Y43543D01*
X273282Y40000D01*
X266995Y37647D02*
X266995Y35521D01*
X266995Y37647D02*
X266900Y38001D01*
X266641Y38261D01*
X266286Y38356D01*
X265932Y38261D01*
X265673Y38001D01*
X265578Y37647D01*
X265578Y35521D02*
X265578Y37647D01*
X265578Y35521D02*
X265673Y35167D01*
X265932Y34907D01*
X266286Y34812D01*
X266641Y34907D01*
X266900Y35167D01*
X266995Y35521D01*
X267979Y34812D02*
X268334Y34812D01*
X268019Y34104D01*
X269318Y37647D02*
X270027Y38356D01*
X270027Y34812D01*
X271365Y37135D02*
X271365Y35521D01*
X271345Y35521D02*
X271443Y35157D01*
X271710Y34890D01*
X272074Y34793D01*
X272438Y34890D01*
X272705Y35157D01*
X272802Y35521D01*
X272822Y37135D02*
X272822Y34812D01*
X271011Y33631D02*
X271287Y34558D01*
X271365Y35521D01*
X275578Y38356D02*
X273806Y38356D01*
X273806Y36584D01*
X275027Y36584D01*
X273806Y36584D02*
X273806Y34812D01*
X251126Y112352D02*
X251008Y112795D01*
X250684Y113119D01*
X250241Y113238D01*
X249798Y113119D01*
X249473Y112795D01*
X249355Y112352D01*
X249375Y112352D02*
X249375Y110541D01*
X249355Y110541D02*
X249473Y110098D01*
X249798Y109774D01*
X250241Y109655D01*
X250684Y109774D01*
X251008Y110098D01*
X251126Y110541D01*
X252130Y112509D02*
X252839Y113218D01*
X252839Y109675D01*
X255241Y112509D02*
X255146Y112864D01*
X254886Y113123D01*
X254532Y113218D01*
X254178Y113123D01*
X253918Y112864D01*
X253823Y112509D01*
X255241Y112509D02*
X253823Y109675D01*
X255241Y109675D01*
X250760Y107647D02*
X250760Y105521D01*
X250760Y107647D02*
X250665Y108001D01*
X250406Y108261D01*
X250051Y108356D01*
X249697Y108261D01*
X249437Y108001D01*
X249343Y107647D01*
X249343Y105521D02*
X249343Y107647D01*
X249343Y105521D02*
X249437Y105167D01*
X249697Y104907D01*
X250051Y104812D01*
X250406Y104907D01*
X250665Y105167D01*
X250760Y105521D01*
X251744Y104812D02*
X252098Y104812D01*
X251783Y104104D01*
X253083Y105521D02*
X253178Y105167D01*
X253437Y104907D01*
X253791Y104812D01*
X254146Y104907D01*
X254405Y105167D01*
X254500Y105521D01*
X254500Y106033D02*
X254500Y105521D01*
X254500Y106033D02*
X254405Y106387D01*
X254146Y106647D01*
X253791Y106742D01*
X253594Y106742D02*
X253791Y106742D01*
X253594Y106742D01*
X253791Y106742D02*
X254153Y106849D01*
X254412Y107123D01*
X254500Y107490D01*
X254500Y107647D02*
X254500Y107490D01*
X254500Y107647D02*
X254405Y108001D01*
X254146Y108261D01*
X253791Y108356D01*
X253437Y108261D01*
X253178Y108001D01*
X253083Y107647D01*
X255484Y105521D02*
X255579Y105167D01*
X255839Y104907D01*
X256193Y104812D01*
X256547Y104907D01*
X256807Y105167D01*
X256902Y105521D01*
X256902Y106033D02*
X256902Y105521D01*
X256902Y106033D02*
X256807Y106387D01*
X256547Y106647D01*
X256193Y106742D01*
X255996Y106742D02*
X256193Y106742D01*
X255996Y106742D01*
X256193Y106742D02*
X256555Y106849D01*
X256814Y107123D01*
X256902Y107490D01*
X256902Y107647D02*
X256902Y107490D01*
X256902Y107647D02*
X256807Y108001D01*
X256547Y108261D01*
X256193Y108356D01*
X255839Y108261D01*
X255579Y108001D01*
X255484Y107647D01*
X258240Y107135D02*
X258240Y105521D01*
X258220Y105521D02*
X258318Y105157D01*
X258585Y104890D01*
X258949Y104793D01*
X259313Y104890D01*
X259580Y105157D01*
X259677Y105521D01*
X259697Y107135D02*
X259697Y104812D01*
X257886Y103631D02*
X258162Y104558D01*
X258240Y105521D01*
X262453Y108356D02*
X260681Y108356D01*
X260681Y106584D01*
X261902Y106584D01*
X260681Y106584D02*
X260681Y104812D01*
X290093Y146702D02*
X289974Y147145D01*
X289650Y147469D01*
X289207Y147588D01*
X288764Y147469D01*
X288440Y147145D01*
X288321Y146702D01*
X288341Y146702D02*
X288341Y144891D01*
X288321Y144891D02*
X288440Y144448D01*
X288764Y144124D01*
X289207Y144005D01*
X289650Y144124D01*
X289974Y144448D01*
X290093Y144891D01*
X291097Y146860D02*
X291806Y147568D01*
X291806Y144025D01*
X292790Y144734D02*
X292885Y144379D01*
X293144Y144120D01*
X293499Y144025D01*
X293853Y144120D01*
X294112Y144379D01*
X294207Y144734D01*
X294207Y145246D02*
X294207Y144734D01*
X294207Y145246D02*
X294112Y145600D01*
X293853Y145859D01*
X293499Y145954D01*
X293302Y145954D02*
X293499Y145954D01*
X293302Y145954D01*
X293499Y145954D02*
X293860Y146062D01*
X294120Y146335D01*
X294207Y146702D01*
X294207Y146860D02*
X294207Y146702D01*
X294207Y146860D02*
X294112Y147214D01*
X293853Y147473D01*
X293499Y147568D01*
X293144Y147473D01*
X292885Y147214D01*
X292790Y146860D01*
X260580Y147022D02*
X260485Y147376D01*
X260226Y147636D01*
X259872Y147731D01*
X259517Y147636D01*
X259258Y147376D01*
X259163Y147022D01*
X259163Y144896D01*
X259258Y144542D01*
X259517Y144282D01*
X259872Y144187D01*
X260226Y144282D01*
X260485Y144542D01*
X260580Y144896D01*
X260580Y145605D01*
X260485Y145959D01*
X260226Y146219D01*
X259872Y146313D01*
X259517Y146219D01*
X259258Y145959D01*
X259163Y145605D01*
X262982Y145408D02*
X262982Y144896D01*
X262982Y145408D02*
X262887Y145762D01*
X262627Y146022D01*
X262273Y146117D01*
X261919Y146022D01*
X261659Y145762D01*
X261564Y145408D01*
X261564Y144896D02*
X261564Y145408D01*
X261564Y144896D02*
X261659Y144542D01*
X261919Y144282D01*
X262273Y144187D01*
X262627Y144282D01*
X262887Y144542D01*
X262982Y144896D01*
X262982Y147022D02*
X262982Y146865D01*
X262982Y147022D02*
X262887Y147376D01*
X262627Y147636D01*
X262273Y147731D01*
X261919Y147636D01*
X261659Y147376D01*
X261564Y147022D01*
X261564Y146865D02*
X261564Y147022D01*
X261564Y146865D02*
X261659Y146510D01*
X261919Y146251D01*
X262273Y146156D01*
X262627Y146251D01*
X262887Y146510D01*
X262982Y146865D01*
X265383Y147022D02*
X265383Y144896D01*
X265383Y147022D02*
X265288Y147376D01*
X265029Y147636D01*
X264675Y147731D01*
X264320Y147636D01*
X264061Y147376D01*
X263966Y147022D01*
X263966Y144896D02*
X263966Y147022D01*
X263966Y144896D02*
X264061Y144542D01*
X264320Y144282D01*
X264675Y144187D01*
X265029Y144282D01*
X265288Y144542D01*
X265383Y144896D01*
X266722Y146510D02*
X266722Y144896D01*
X266702Y144896D02*
X266800Y144532D01*
X267066Y144265D01*
X267431Y144168D01*
X267795Y144265D01*
X268061Y144532D01*
X268159Y144896D01*
X268179Y146510D02*
X268179Y144187D01*
X266368Y143006D02*
X266643Y143933D01*
X266722Y144896D01*
X270935Y147731D02*
X269163Y147731D01*
X269163Y145959D01*
X270383Y145959D01*
X269163Y145959D02*
X269163Y144187D01*
X298031Y125548D02*
X294488Y125548D01*
X294335Y125485D01*
X294271Y125332D01*
X294335Y125179D01*
X294488Y125115D01*
X298031Y125115D01*
X298184Y125179D01*
X298248Y125332D01*
X298184Y125485D01*
X298031Y125548D01*
X296437Y123521D02*
X296437Y127143D01*
X296373Y127296D01*
X296220Y127359D01*
X296067Y127296D01*
X296003Y127143D01*
X296003Y123521D01*
X296067Y123368D01*
X296220Y123304D01*
X296373Y123368D01*
X296437Y123521D01*
X296003Y123855D02*
X296437Y123855D01*
X296003Y124406D02*
X296437Y124406D01*
X296003Y124958D02*
X296437Y124958D01*
X296003Y125509D02*
X296437Y125509D01*
X296003Y126060D02*
X296437Y126060D01*
X296003Y126611D02*
X296437Y126611D01*
X296012Y127162D02*
X296428Y127162D01*
X238971Y95625D02*
X238835Y96567D01*
X238440Y97434D01*
X237816Y98154D01*
X237015Y98669D01*
X236101Y98937D01*
X235148Y98937D01*
X234234Y98669D01*
X233433Y98154D01*
X232809Y97434D01*
X232414Y96567D01*
X232278Y95625D01*
X232414Y94682D01*
X232809Y93815D01*
X233433Y93095D01*
X234234Y92580D01*
X235148Y92312D01*
X236101Y92312D01*
X237015Y92580D01*
X237816Y93095D01*
X238440Y93815D01*
X238835Y94682D01*
X238971Y95624D01*
X241587Y101500D02*
X241587Y105044D01*
X242453Y105044D01*
X242453Y103292D02*
X242896Y103411D01*
X243220Y103735D01*
X243339Y104178D01*
X243220Y104621D01*
X242896Y104945D01*
X242453Y105063D01*
X242453Y103272D02*
X241587Y103272D01*
X242453Y103272D02*
X243358Y101500D01*
X244343Y104335D02*
X245051Y105044D01*
X245051Y101500D01*
X247098Y105044D02*
X246035Y102367D01*
X247453Y102367D01*
X247098Y103075D02*
X247098Y101500D01*
X232207Y104335D02*
X232112Y104689D01*
X231852Y104949D01*
X231498Y105044D01*
X231144Y104949D01*
X230884Y104689D01*
X230789Y104335D01*
X232207Y104335D02*
X230789Y101500D01*
X232207Y101500D01*
X233191Y101500D02*
X233545Y101500D01*
X233230Y100792D01*
X235947Y104335D02*
X235852Y104689D01*
X235593Y104949D01*
X235238Y105044D01*
X234884Y104949D01*
X234624Y104689D01*
X234530Y104335D01*
X235947Y104335D02*
X234530Y101500D01*
X235947Y101500D01*
X236931Y101500D02*
X236931Y105044D01*
X236931Y102721D02*
X238703Y105044D01*
X237640Y103626D02*
X238703Y101500D01*
X286158Y73125D02*
X286023Y74067D01*
X285627Y74934D01*
X285003Y75654D01*
X284202Y76169D01*
X283288Y76437D01*
X282336Y76437D01*
X281422Y76169D01*
X280621Y75654D01*
X279997Y74934D01*
X279601Y74067D01*
X279466Y73125D01*
X279601Y72182D01*
X279997Y71315D01*
X280621Y70595D01*
X281422Y70080D01*
X282336Y69812D01*
X283288Y69812D01*
X284202Y70080D01*
X285003Y70595D01*
X285627Y71315D01*
X286023Y72182D01*
X286158Y73124D01*
X277249Y69087D02*
X273705Y69087D01*
X273705Y69953D01*
X275457Y69953D02*
X275339Y70396D01*
X275014Y70720D01*
X274571Y70839D01*
X274128Y70720D01*
X273804Y70396D01*
X273686Y69953D01*
X275477Y69953D02*
X275477Y69087D01*
X275477Y69953D02*
X277249Y70858D01*
X274414Y71843D02*
X273705Y72551D01*
X277249Y72551D01*
X276934Y73654D02*
X277172Y73921D01*
X277249Y74271D01*
X277145Y74614D01*
X276887Y74862D01*
X276540Y74953D01*
X275831Y74953D01*
X275477Y74858D01*
X275217Y74598D01*
X275123Y74244D01*
X275217Y73890D01*
X275477Y73630D01*
X275831Y73535D01*
X273705Y73535D01*
X273705Y74953D01*
X274478Y62042D02*
X274124Y61947D01*
X273864Y61687D01*
X273769Y61333D01*
X273864Y60979D01*
X274124Y60719D01*
X274478Y60625D01*
X274478Y62042D02*
X277312Y60625D01*
X277312Y62042D01*
X277312Y63026D02*
X273769Y63026D01*
X276092Y63026D02*
X273769Y64798D01*
X275187Y63735D02*
X277312Y64798D01*
X286471Y86250D02*
X286335Y87192D01*
X285940Y88059D01*
X285316Y88779D01*
X284515Y89294D01*
X283601Y89562D01*
X282648Y89562D01*
X281734Y89294D01*
X280933Y88779D01*
X280309Y88059D01*
X279914Y87192D01*
X279778Y86250D01*
X279914Y85307D01*
X280309Y84440D01*
X280933Y83720D01*
X281734Y83205D01*
X282648Y82937D01*
X283601Y82937D01*
X284515Y83205D01*
X285316Y83720D01*
X285940Y84440D01*
X286335Y85307D01*
X286471Y86249D01*
X277312Y94062D02*
X273769Y94062D01*
X273769Y94928D01*
X275521Y94928D02*
X275402Y95371D01*
X275078Y95695D01*
X274635Y95814D01*
X274192Y95695D01*
X273868Y95371D01*
X273750Y94928D01*
X275541Y94928D02*
X275541Y94062D01*
X275541Y94928D02*
X277312Y95834D01*
X274478Y96818D02*
X273769Y97527D01*
X277312Y97527D01*
X274478Y99928D02*
X274124Y99833D01*
X273864Y99574D01*
X273769Y99219D01*
X273864Y98865D01*
X274124Y98606D01*
X274478Y98511D01*
X276604Y98511D01*
X276958Y98606D01*
X277218Y98865D01*
X277312Y99219D01*
X277218Y99574D01*
X276958Y99833D01*
X276604Y99928D01*
X275895Y99928D01*
X275541Y99833D01*
X275281Y99574D01*
X275187Y99219D01*
X275281Y98865D01*
X275541Y98606D01*
X275895Y98511D01*
X274478Y81562D02*
X273769Y82271D01*
X277312Y82271D01*
X274281Y83255D02*
X273769Y83255D01*
X273769Y84672D01*
X277312Y83609D01*
X277312Y85656D02*
X277312Y86011D01*
X278021Y85696D01*
X273769Y88058D02*
X276446Y86995D01*
X276446Y88412D01*
X275738Y88058D02*
X277312Y88058D01*
X277312Y89397D02*
X273769Y89397D01*
X276092Y89397D02*
X273769Y91168D01*
X275187Y90105D02*
X277312Y91168D01*
X211074Y87884D02*
X211520Y87993D01*
X211851Y88310D01*
X211980Y88750D01*
X211074Y87884D02*
X210208Y87884D01*
X210208Y91427D01*
X211074Y91427D01*
X211980Y90561D02*
X211851Y91001D01*
X211520Y91318D01*
X211074Y91427D01*
X211980Y90561D02*
X211980Y88750D01*
X214381Y90719D02*
X214286Y91073D01*
X214027Y91332D01*
X213673Y91427D01*
X213318Y91332D01*
X213059Y91073D01*
X212964Y90719D01*
X214381Y90719D02*
X212964Y87884D01*
X214381Y87884D01*
X213674Y50258D02*
X212965Y50967D01*
X216508Y50967D01*
X216508Y51951D02*
X212965Y51951D01*
X216508Y53723D01*
X212965Y53723D01*
X216193Y54825D02*
X216432Y55093D01*
X216509Y55443D01*
X216405Y55786D01*
X216146Y56034D01*
X215800Y56125D01*
X215091Y56125D01*
X214737Y56030D01*
X214477Y55770D01*
X214382Y55416D01*
X214477Y55062D01*
X214737Y54802D01*
X215091Y54707D01*
X212965Y54707D01*
X212965Y56125D01*
X215288Y58526D02*
X215800Y58526D01*
X215288Y58526D02*
X214934Y58431D01*
X214674Y58172D01*
X214579Y57817D01*
X214674Y57463D01*
X214934Y57204D01*
X215288Y57109D01*
X215800Y57109D02*
X215288Y57109D01*
X215800Y57109D02*
X216154Y57204D01*
X216413Y57463D01*
X216508Y57817D01*
X216413Y58172D01*
X216154Y58431D01*
X215800Y58526D01*
X213674Y58526D02*
X213831Y58526D01*
X213674Y58526D02*
X213319Y58431D01*
X213060Y58172D01*
X212965Y57817D01*
X213060Y57463D01*
X213319Y57204D01*
X213674Y57109D01*
X213831Y57109D02*
X213674Y57109D01*
X213831Y57109D02*
X214186Y57204D01*
X214445Y57463D01*
X214540Y57817D01*
X214445Y58172D01*
X214186Y58431D01*
X213831Y58526D01*
X213674Y60928D02*
X213319Y60833D01*
X213060Y60573D01*
X212965Y60219D01*
X213060Y59865D01*
X213319Y59605D01*
X213674Y59510D01*
X213674Y60928D02*
X216508Y59510D01*
X216508Y60928D01*
X213674Y63329D02*
X213319Y63234D01*
X213060Y62975D01*
X212965Y62621D01*
X213060Y62266D01*
X213319Y62007D01*
X213674Y61912D01*
X213674Y63329D02*
X216508Y61912D01*
X216508Y63329D01*
X226336Y12487D02*
X226336Y8944D01*
X227910Y8944D01*
X228895Y11779D02*
X229603Y12487D01*
X229603Y8944D01*
X226286Y7148D02*
X226995Y7856D01*
X226995Y4313D01*
X229397Y7148D02*
X229397Y5022D01*
X229397Y7148D02*
X229302Y7502D01*
X229042Y7761D01*
X228688Y7856D01*
X228334Y7761D01*
X228074Y7502D01*
X227979Y7148D01*
X227979Y5022D02*
X227979Y7148D01*
X227979Y5022D02*
X228074Y4667D01*
X228334Y4408D01*
X228688Y4313D01*
X229042Y4408D01*
X229302Y4667D01*
X229397Y5022D01*
X231798Y7148D02*
X231798Y5022D01*
X231798Y7148D02*
X231703Y7502D01*
X231444Y7761D01*
X231090Y7856D01*
X230735Y7761D01*
X230476Y7502D01*
X230381Y7148D01*
X230381Y5022D02*
X230381Y7148D01*
X230381Y5022D02*
X230476Y4667D01*
X230735Y4408D01*
X231090Y4313D01*
X231444Y4408D01*
X231703Y4667D01*
X231798Y5022D01*
X233137Y6636D02*
X233137Y5022D01*
X233117Y5022D02*
X233215Y4657D01*
X233481Y4391D01*
X233845Y4293D01*
X234210Y4391D01*
X234476Y4657D01*
X234574Y5022D01*
X234593Y6636D02*
X234593Y4313D01*
X232782Y3132D02*
X233058Y4058D01*
X233137Y5022D01*
X235578Y4313D02*
X235578Y6085D01*
X237349Y6085D01*
X235578Y6085D02*
X235578Y7856D01*
X237349Y7856D02*
X237349Y4313D01*
X11250Y95875D02*
X11250Y99418D01*
X12116Y99418D01*
X12116Y97666D02*
X12559Y97785D01*
X12883Y98109D01*
X13001Y98552D01*
X12883Y98995D01*
X12559Y99319D01*
X12116Y99437D01*
X12116Y97646D02*
X11250Y97646D01*
X12116Y97646D02*
X13021Y95875D01*
X14005Y98709D02*
X14714Y99418D01*
X14714Y95875D01*
X15698Y98906D02*
X15698Y99418D01*
X17116Y99418D01*
X16053Y95875D01*
X21875Y98709D02*
X22583Y99418D01*
X22583Y95875D01*
X24985Y98709D02*
X24985Y96583D01*
X24985Y98709D02*
X24890Y99063D01*
X24630Y99323D01*
X24276Y99418D01*
X23922Y99323D01*
X23662Y99063D01*
X23567Y98709D01*
X23567Y96583D02*
X23567Y98709D01*
X23567Y96583D02*
X23662Y96229D01*
X23922Y95969D01*
X24276Y95875D01*
X24630Y95969D01*
X24890Y96229D01*
X24985Y96583D01*
X27386Y98709D02*
X27386Y96583D01*
X27386Y98709D02*
X27291Y99063D01*
X27032Y99323D01*
X26678Y99418D01*
X26323Y99323D01*
X26064Y99063D01*
X25969Y98709D01*
X25969Y96583D02*
X25969Y98709D01*
X25969Y96583D02*
X26064Y96229D01*
X26323Y95969D01*
X26678Y95875D01*
X27032Y95969D01*
X27291Y96229D01*
X27386Y96583D01*
X29788Y98709D02*
X29788Y96583D01*
X29788Y98709D02*
X29693Y99063D01*
X29434Y99323D01*
X29079Y99418D01*
X28725Y99323D01*
X28466Y99063D01*
X28371Y98709D01*
X28371Y96583D02*
X28371Y98709D01*
X28371Y96583D02*
X28466Y96229D01*
X28725Y95969D01*
X29079Y95875D01*
X29434Y95969D01*
X29693Y96229D01*
X29788Y96583D01*
X170000Y96187D02*
X170000Y99730D01*
X170866Y99730D01*
X170866Y97978D02*
X171309Y98097D01*
X171633Y98421D01*
X171751Y98864D01*
X171633Y99307D01*
X171309Y99631D01*
X170866Y99750D01*
X170866Y97959D02*
X170000Y97959D01*
X170866Y97959D02*
X171771Y96187D01*
X172755Y99022D02*
X173464Y99730D01*
X173464Y96187D01*
X175866Y97407D02*
X175866Y96896D01*
X175866Y97407D02*
X175771Y97762D01*
X175511Y98021D01*
X175157Y98116D01*
X174803Y98021D01*
X174543Y97762D01*
X174448Y97407D01*
X174448Y96896D02*
X174448Y97407D01*
X174448Y96896D02*
X174543Y96541D01*
X174803Y96282D01*
X175157Y96187D01*
X175511Y96282D01*
X175771Y96541D01*
X175866Y96896D01*
X175866Y99022D02*
X175866Y98864D01*
X175866Y99022D02*
X175771Y99376D01*
X175511Y99635D01*
X175157Y99730D01*
X174803Y99635D01*
X174543Y99376D01*
X174448Y99022D01*
X174448Y98864D02*
X174448Y99022D01*
X174448Y98864D02*
X174543Y98510D01*
X174803Y98250D01*
X175157Y98156D01*
X175511Y98250D01*
X175771Y98510D01*
X175866Y98864D01*
X180000Y99022D02*
X180708Y99730D01*
X180708Y96187D01*
X183110Y99022D02*
X183110Y96896D01*
X183110Y99022D02*
X183015Y99376D01*
X182755Y99635D01*
X182401Y99730D01*
X182047Y99635D01*
X181787Y99376D01*
X181692Y99022D01*
X181692Y96896D02*
X181692Y99022D01*
X181692Y96896D02*
X181787Y96541D01*
X182047Y96282D01*
X182401Y96187D01*
X182755Y96282D01*
X183015Y96541D01*
X183110Y96896D01*
X185511Y99022D02*
X185511Y96896D01*
X185511Y99022D02*
X185416Y99376D01*
X185157Y99635D01*
X184803Y99730D01*
X184448Y99635D01*
X184189Y99376D01*
X184094Y99022D01*
X184094Y96896D02*
X184094Y99022D01*
X184094Y96896D02*
X184189Y96541D01*
X184448Y96282D01*
X184803Y96187D01*
X185157Y96282D01*
X185416Y96541D01*
X185511Y96896D01*
X187913Y99022D02*
X187913Y96896D01*
X187913Y99022D02*
X187818Y99376D01*
X187559Y99635D01*
X187204Y99730D01*
X186850Y99635D01*
X186591Y99376D01*
X186496Y99022D01*
X186496Y96896D02*
X186496Y99022D01*
X186496Y96896D02*
X186591Y96541D01*
X186850Y96282D01*
X187204Y96187D01*
X187559Y96282D01*
X187818Y96541D01*
X187913Y96896D01*
X283727Y181929D02*
X283727Y183700D01*
X282822Y182795D02*
X284633Y182795D01*
X285184Y184803D02*
X285422Y185070D01*
X285499Y185420D01*
X285395Y185763D01*
X285137Y186011D01*
X284790Y186102D01*
X284082Y186102D01*
X283727Y186007D01*
X283468Y185748D01*
X283373Y185393D01*
X283468Y185039D01*
X283727Y184779D01*
X284082Y184685D01*
X281956Y184685D01*
X281956Y186102D01*
X281956Y187086D02*
X285499Y187952D01*
X281956Y188858D01*
X285499Y191614D02*
X281956Y191614D01*
X285499Y192598D02*
X283176Y192598D01*
X283924Y194015D02*
X283570Y193920D01*
X283310Y193661D01*
X283216Y193307D01*
X283310Y192952D01*
X283570Y192693D01*
X283924Y192598D01*
X283924Y194015D02*
X285499Y194015D01*
X21564Y154419D02*
X21446Y154862D01*
X21122Y155186D01*
X20679Y155305D01*
X20236Y155186D01*
X19911Y154862D01*
X19793Y154419D01*
X19812Y154419D02*
X19812Y152608D01*
X19793Y152608D02*
X19911Y152165D01*
X20236Y151841D01*
X20679Y151722D01*
X21122Y151841D01*
X21446Y152165D01*
X21564Y152608D01*
X22568Y154576D02*
X23277Y155285D01*
X23277Y151742D01*
X25679Y154576D02*
X25584Y154931D01*
X25324Y155190D01*
X24970Y155285D01*
X24616Y155190D01*
X24356Y154931D01*
X24261Y154576D01*
X24261Y152450D01*
X24356Y152096D01*
X24616Y151837D01*
X24970Y151742D01*
X25324Y151837D01*
X25584Y152096D01*
X25679Y152450D01*
X25679Y153159D01*
X25584Y153513D01*
X25324Y153773D01*
X24970Y153868D01*
X24616Y153773D01*
X24356Y153513D01*
X24261Y153159D01*
X2312Y171254D02*
X3021Y171963D01*
X3021Y168420D01*
X5423Y171254D02*
X5423Y169128D01*
X5423Y171254D02*
X5328Y171609D01*
X5068Y171868D01*
X4714Y171963D01*
X4360Y171868D01*
X4100Y171609D01*
X4005Y171254D01*
X4005Y169128D02*
X4005Y171254D01*
X4005Y169128D02*
X4100Y168774D01*
X4360Y168515D01*
X4714Y168420D01*
X5068Y168515D01*
X5328Y168774D01*
X5423Y169128D01*
X6761Y170743D02*
X6761Y169128D01*
X6742Y169128D02*
X6839Y168764D01*
X7106Y168498D01*
X7470Y168400D01*
X7834Y168498D01*
X8101Y168764D01*
X8198Y169128D01*
X8218Y170743D02*
X8218Y168420D01*
X6407Y167239D02*
X6683Y168165D01*
X6761Y169128D01*
X10974Y171963D02*
X9202Y171963D01*
X9202Y170191D01*
X10423Y170191D01*
X9202Y170191D02*
X9202Y168420D01*
X12153Y155184D02*
X8609Y155184D01*
X8456Y155121D01*
X8393Y154968D01*
X8456Y154814D01*
X8609Y154751D01*
X12153Y154751D01*
X12306Y154814D01*
X12369Y154968D01*
X12306Y155121D01*
X12153Y155184D01*
X10558Y153156D02*
X10558Y156779D01*
X10495Y156932D01*
X10342Y156995D01*
X10188Y156932D01*
X10125Y156779D01*
X10125Y153156D01*
X10188Y153003D01*
X10342Y152940D01*
X10495Y153003D01*
X10558Y153156D01*
X10125Y153491D02*
X10558Y153491D01*
X10125Y154042D02*
X10558Y154042D01*
X10125Y154593D02*
X10558Y154593D01*
X10125Y155145D02*
X10558Y155145D01*
X10125Y155696D02*
X10558Y155696D01*
X10125Y156247D02*
X10558Y156247D01*
X10133Y156798D02*
X10550Y156798D01*
X300760Y148021D02*
X300349Y147922D01*
X300027Y147648D01*
X299865Y147257D01*
X299899Y146836D01*
X300120Y146475D01*
X300480Y146254D01*
X300901Y146221D01*
X301292Y146383D01*
X301567Y146705D01*
X301665Y147116D01*
X302571Y146250D02*
X303011Y146378D01*
X303328Y146709D01*
X303437Y147155D01*
X303308Y147595D01*
X302977Y147912D01*
X302531Y148021D01*
X302091Y147892D01*
X301774Y147561D01*
X301665Y147116D01*
X302217Y149005D02*
X302217Y150423D01*
X301862Y150423D01*
X301508Y150328D01*
X301248Y150068D01*
X301154Y149714D01*
X301248Y149360D01*
X301508Y149100D01*
X301862Y149005D01*
X302728Y149005D01*
X303105Y149114D01*
X303367Y149406D01*
X303433Y149793D01*
X303284Y150156D01*
X302965Y150383D01*
X303437Y151407D02*
X301114Y151407D01*
X301272Y152312D02*
X301130Y152036D01*
X301166Y151728D01*
X301367Y151492D01*
X301665Y151407D01*
X301114Y153297D02*
X303437Y154163D01*
X301114Y155068D01*
X301862Y157470D02*
X302728Y157470D01*
X301862Y157470D02*
X301508Y157375D01*
X301248Y157116D01*
X301154Y156761D01*
X301248Y156407D01*
X301508Y156148D01*
X301862Y156053D01*
X302728Y156053D02*
X301862Y156053D01*
X302728Y156053D02*
X303083Y156148D01*
X303342Y156407D01*
X303437Y156761D01*
X303342Y157116D01*
X303083Y157375D01*
X302728Y157470D01*
X14924Y104799D02*
X14924Y108342D01*
X16144Y105862D01*
X17404Y108342D01*
X17404Y104799D01*
X18388Y104799D02*
X19609Y108342D01*
X20869Y104799D01*
X18743Y105862D02*
X20514Y105862D01*
X21853Y104799D02*
X23625Y108342D01*
X21853Y108342D02*
X23625Y104799D01*
X26026Y107633D02*
X25931Y107988D01*
X25672Y108247D01*
X25317Y108342D01*
X24963Y108247D01*
X24704Y107988D01*
X24609Y107633D01*
X24609Y105507D01*
X24704Y105153D01*
X24963Y104894D01*
X25317Y104799D01*
X25672Y104894D01*
X25931Y105153D01*
X26026Y105507D01*
X26026Y106216D01*
X25931Y106570D01*
X25672Y106830D01*
X25317Y106925D01*
X24963Y106830D01*
X24704Y106570D01*
X24609Y106216D01*
X28428Y107633D02*
X28428Y105507D01*
X28428Y107633D02*
X28333Y107988D01*
X28073Y108247D01*
X27719Y108342D01*
X27365Y108247D01*
X27105Y107988D01*
X27010Y107633D01*
X27010Y105507D02*
X27010Y107633D01*
X27010Y105507D02*
X27105Y105153D01*
X27365Y104894D01*
X27719Y104799D01*
X28073Y104894D01*
X28333Y105153D01*
X28428Y105507D01*
X30475Y108342D02*
X29412Y105665D01*
X30829Y105665D01*
X30475Y106374D02*
X30475Y104799D01*
X33565Y107476D02*
X33447Y107919D01*
X33123Y108243D01*
X32680Y108362D01*
X32237Y108243D01*
X31912Y107919D01*
X31794Y107476D01*
X31813Y107476D02*
X31813Y105665D01*
X31794Y105665D02*
X31912Y105222D01*
X32237Y104898D01*
X32680Y104779D01*
X33123Y104898D01*
X33447Y105222D01*
X33565Y105665D01*
X34569Y104799D02*
X34569Y106570D01*
X35436Y106570D01*
X35436Y106590D02*
X35878Y106709D01*
X36203Y107033D01*
X36321Y107476D01*
X36203Y107919D01*
X35878Y108243D01*
X35436Y108362D01*
X35436Y108342D02*
X34569Y108342D01*
X34569Y106570D01*
X37325Y104799D02*
X38546Y108342D01*
X39806Y104799D01*
X37680Y105862D02*
X39451Y105862D01*
X31338Y154372D02*
X31219Y154815D01*
X30895Y155139D01*
X30452Y155258D01*
X30009Y155139D01*
X29685Y154815D01*
X29566Y154372D01*
X29586Y154372D02*
X29586Y152561D01*
X29566Y152561D02*
X29685Y152118D01*
X30009Y151794D01*
X30452Y151675D01*
X30895Y151794D01*
X31219Y152118D01*
X31338Y152561D01*
X32342Y154530D02*
X33051Y155238D01*
X33051Y151695D01*
X35098Y155238D02*
X34035Y152561D01*
X35452Y152561D01*
X35098Y153270D02*
X35098Y151695D01*
X42937Y171692D02*
X43646Y172401D01*
X43646Y168858D01*
X46048Y171692D02*
X46048Y169566D01*
X46048Y171692D02*
X45953Y172047D01*
X45693Y172306D01*
X45339Y172401D01*
X44985Y172306D01*
X44725Y172047D01*
X44630Y171692D01*
X44630Y169566D02*
X44630Y171692D01*
X44630Y169566D02*
X44725Y169212D01*
X44985Y168953D01*
X45339Y168858D01*
X45693Y168953D01*
X45953Y169212D01*
X46048Y169566D01*
X47386Y171181D02*
X47386Y169566D01*
X47367Y169566D02*
X47464Y169202D01*
X47731Y168936D01*
X48095Y168838D01*
X48459Y168936D01*
X48726Y169202D01*
X48823Y169566D01*
X48843Y171181D02*
X48843Y168858D01*
X47032Y167677D02*
X47308Y168603D01*
X47386Y169566D01*
X51599Y172401D02*
X49827Y172401D01*
X49827Y170629D01*
X51048Y170629D01*
X49827Y170629D02*
X49827Y168858D01*
X44579Y155398D02*
X41035Y155398D01*
X40882Y155335D01*
X40819Y155182D01*
X40882Y155028D01*
X41035Y154965D01*
X44579Y154965D01*
X44732Y155028D01*
X44795Y155182D01*
X44732Y155335D01*
X44579Y155398D01*
X42984Y153371D02*
X42984Y156993D01*
X42921Y157146D01*
X42768Y157209D01*
X42615Y157146D01*
X42551Y156993D01*
X42551Y153371D01*
X42615Y153217D01*
X42768Y153154D01*
X42921Y153217D01*
X42984Y153371D01*
X42551Y153705D02*
X42984Y153705D01*
X42551Y154256D02*
X42984Y154256D01*
X42551Y154808D02*
X42984Y154808D01*
X42551Y155359D02*
X42984Y155359D01*
X42551Y155910D02*
X42984Y155910D01*
X42551Y156461D02*
X42984Y156461D01*
X42559Y157012D02*
X42976Y157012D01*
X56776Y171459D02*
X56657Y171902D01*
X56333Y172226D01*
X55890Y172344D01*
X55447Y172226D01*
X55123Y171902D01*
X55004Y171459D01*
X55024Y171459D02*
X55024Y169648D01*
X55004Y169648D02*
X55123Y169205D01*
X55447Y168880D01*
X55890Y168762D01*
X56333Y168880D01*
X56657Y169205D01*
X56776Y169648D01*
X57780Y171616D02*
X58489Y172325D01*
X58489Y168781D01*
X59591Y169096D02*
X59859Y168858D01*
X60209Y168781D01*
X60551Y168885D01*
X60800Y169143D01*
X60890Y169490D01*
X60890Y170199D01*
X60795Y170553D01*
X60536Y170813D01*
X60182Y170907D01*
X59827Y170813D01*
X59568Y170553D01*
X59473Y170199D01*
X59473Y172325D01*
X60890Y172325D01*
X53125Y164709D02*
X53833Y165418D01*
X53833Y161875D01*
X56235Y164709D02*
X56235Y162583D01*
X56235Y164709D02*
X56140Y165063D01*
X55880Y165323D01*
X55526Y165418D01*
X55172Y165323D01*
X54912Y165063D01*
X54817Y164709D01*
X54817Y162583D02*
X54817Y164709D01*
X54817Y162583D02*
X54912Y162229D01*
X55172Y161969D01*
X55526Y161875D01*
X55880Y161969D01*
X56140Y162229D01*
X56235Y162583D01*
X58636Y164709D02*
X58636Y162583D01*
X58636Y164709D02*
X58541Y165063D01*
X58282Y165323D01*
X57928Y165418D01*
X57573Y165323D01*
X57314Y165063D01*
X57219Y164709D01*
X57219Y162583D02*
X57219Y164709D01*
X57219Y162583D02*
X57314Y162229D01*
X57573Y161969D01*
X57928Y161875D01*
X58282Y161969D01*
X58541Y162229D01*
X58636Y162583D01*
X59621Y161875D02*
X59621Y164197D01*
X61038Y163449D02*
X60943Y163804D01*
X60684Y164063D01*
X60329Y164158D01*
X59975Y164063D01*
X59716Y163804D01*
X59621Y163449D01*
X61038Y163449D02*
X61038Y161875D01*
X63794Y165418D02*
X62022Y165418D01*
X62022Y163646D01*
X63243Y163646D01*
X62022Y163646D02*
X62022Y161875D01*
X262401Y213021D02*
X262282Y213464D01*
X261958Y213788D01*
X261515Y213907D01*
X261072Y213788D01*
X260748Y213464D01*
X260629Y213021D01*
X260649Y213021D02*
X260649Y211210D01*
X260629Y211210D02*
X260748Y210767D01*
X261072Y210443D01*
X261515Y210324D01*
X261958Y210443D01*
X262282Y210767D01*
X262401Y211210D01*
X263405Y213179D02*
X264114Y213887D01*
X264114Y210344D01*
X265098Y213375D02*
X265098Y213887D01*
X266515Y213887D01*
X265452Y210344D01*
X260625Y207522D02*
X261333Y208230D01*
X261333Y204687D01*
X263735Y207522D02*
X263735Y205396D01*
X263735Y207522D02*
X263640Y207876D01*
X263380Y208135D01*
X263026Y208230D01*
X262672Y208135D01*
X262412Y207876D01*
X262317Y207522D01*
X262317Y205396D02*
X262317Y207522D01*
X262317Y205396D02*
X262412Y205041D01*
X262672Y204782D01*
X263026Y204687D01*
X263380Y204782D01*
X263640Y205041D01*
X263735Y205396D01*
X266136Y207522D02*
X266136Y205396D01*
X266136Y207522D02*
X266041Y207876D01*
X265782Y208135D01*
X265428Y208230D01*
X265073Y208135D01*
X264814Y207876D01*
X264719Y207522D01*
X264719Y205396D02*
X264719Y207522D01*
X264719Y205396D02*
X264814Y205041D01*
X265073Y204782D01*
X265428Y204687D01*
X265782Y204782D01*
X266041Y205041D01*
X266136Y205396D01*
X267121Y204687D02*
X267121Y207010D01*
X268538Y206262D02*
X268443Y206616D01*
X268184Y206876D01*
X267829Y206970D01*
X267475Y206876D01*
X267216Y206616D01*
X267121Y206262D01*
X268538Y206262D02*
X268538Y204687D01*
X271294Y208230D02*
X269522Y208230D01*
X269522Y206459D01*
X270743Y206459D01*
X269522Y206459D02*
X269522Y204687D01*
X299876Y174239D02*
X299758Y174682D01*
X299434Y175006D01*
X298991Y175125D01*
X298548Y175006D01*
X298223Y174682D01*
X298105Y174239D01*
X298125Y174239D02*
X298125Y172428D01*
X298105Y172428D02*
X298223Y171985D01*
X298548Y171661D01*
X298991Y171542D01*
X299434Y171661D01*
X299758Y171985D01*
X299876Y172428D01*
X299896Y172428D02*
X299896Y173334D01*
X298991Y173334D01*
X300880Y171562D02*
X300880Y175105D01*
X302652Y171562D01*
X302652Y175105D01*
X304502Y171562D02*
X304948Y171671D01*
X305280Y171988D01*
X305408Y172428D01*
X304502Y171562D02*
X303636Y171562D01*
X303636Y175105D01*
X304502Y175105D01*
X305408Y174239D02*
X305280Y174679D01*
X304948Y174997D01*
X304502Y175105D01*
X305408Y174239D02*
X305408Y172428D01*
X286875Y173334D02*
X288646Y173334D01*
X287741Y174239D02*
X287741Y172428D01*
X289749Y171877D02*
X290016Y171639D01*
X290366Y171562D01*
X290709Y171666D01*
X290957Y171924D01*
X291048Y172271D01*
X291048Y172979D01*
X290953Y173334D01*
X290693Y173593D01*
X290339Y173688D01*
X289985Y173593D01*
X289725Y173334D01*
X289630Y172979D01*
X289630Y175105D01*
X291048Y175105D01*
X292032Y175105D02*
X292898Y171562D01*
X293804Y175105D01*
X305447Y127064D02*
X305004Y126945D01*
X304680Y126621D01*
X304562Y126178D01*
X304680Y125735D01*
X305004Y125411D01*
X305447Y125292D01*
X305447Y125312D02*
X307258Y125312D01*
X307258Y125292D02*
X307701Y125411D01*
X308026Y125735D01*
X308144Y126178D01*
X308026Y126621D01*
X307701Y126945D01*
X307258Y127064D01*
X307258Y127084D02*
X306353Y127084D01*
X306353Y126178D01*
X308125Y128068D02*
X304581Y128068D01*
X308125Y129840D01*
X304581Y129840D01*
X308124Y131690D02*
X308016Y132136D01*
X307699Y132467D01*
X307258Y132595D01*
X308125Y131690D02*
X308125Y130824D01*
X304581Y130824D01*
X304581Y131690D01*
X305447Y132595D02*
X305007Y132467D01*
X304690Y132136D01*
X304581Y131690D01*
X305447Y132595D02*
X307258Y132595D01*
X308125Y116250D02*
X304581Y116250D01*
X304581Y117116D01*
X306333Y117116D02*
X306214Y117559D01*
X305890Y117883D01*
X305447Y118001D01*
X305004Y117883D01*
X304680Y117559D01*
X304562Y117116D01*
X306353Y117116D02*
X306353Y116250D01*
X306353Y117116D02*
X308125Y118021D01*
X308125Y119005D02*
X304581Y120777D01*
X304581Y119005D02*
X308125Y120777D01*
X305135Y139564D02*
X304692Y139445D01*
X304368Y139121D01*
X304249Y138678D01*
X304368Y138235D01*
X304692Y137911D01*
X305135Y137792D01*
X305135Y137812D02*
X306946Y137812D01*
X306946Y137792D02*
X307389Y137911D01*
X307713Y138235D01*
X307832Y138678D01*
X307713Y139121D01*
X307389Y139445D01*
X306946Y139564D01*
X306946Y139584D02*
X306040Y139584D01*
X306040Y138678D01*
X307812Y140568D02*
X304269Y140568D01*
X307812Y142340D01*
X304269Y142340D01*
X307812Y144190D02*
X307703Y144636D01*
X307386Y144967D01*
X306946Y145095D01*
X307812Y144190D02*
X307812Y143324D01*
X304269Y143324D01*
X304269Y144190D01*
X305135Y145095D02*
X304695Y144967D01*
X304377Y144636D01*
X304269Y144190D01*
X305135Y145095D02*
X306946Y145095D01*
X306040Y150000D02*
X306040Y151771D01*
X305135Y150866D02*
X306946Y150866D01*
X307497Y152874D02*
X307735Y153141D01*
X307812Y153491D01*
X307708Y153834D01*
X307450Y154082D01*
X307103Y154173D01*
X306395Y154173D01*
X306040Y154078D01*
X305781Y153818D01*
X305686Y153464D01*
X305781Y153110D01*
X306040Y152850D01*
X306395Y152755D01*
X304269Y152755D01*
X304269Y154173D01*
X304269Y155157D02*
X307812Y156023D01*
X304269Y156929D01*
X307812Y161491D02*
X307703Y161936D01*
X307386Y162268D01*
X306946Y162396D01*
X307812Y161491D02*
X307812Y160625D01*
X304269Y160625D01*
X304269Y161491D01*
X305135Y162396D02*
X304695Y162268D01*
X304377Y161936D01*
X304269Y161491D01*
X305135Y162396D02*
X306946Y162396D01*
X306237Y164798D02*
X305883Y164703D01*
X305623Y164443D01*
X305529Y164089D01*
X305623Y163735D01*
X305883Y163475D01*
X306237Y163380D01*
X306749Y164247D02*
X306688Y164515D01*
X306500Y164717D01*
X306237Y164798D01*
X306749Y164247D02*
X306749Y163892D01*
X306769Y163892D02*
X306870Y163580D01*
X307136Y163387D01*
X307464Y163387D01*
X307730Y163580D01*
X307832Y163892D01*
X307812Y163892D02*
X307812Y164247D01*
X307751Y164515D01*
X307563Y164717D01*
X307300Y164798D01*
X306237Y164798D02*
X307458Y164798D01*
X307812Y165152D01*
X305489Y166136D02*
X305489Y167199D01*
X304269Y166648D02*
X307300Y166648D01*
X307563Y166729D01*
X307751Y166931D01*
X307812Y167199D01*
X306237Y169601D02*
X305883Y169506D01*
X305623Y169247D01*
X305529Y168892D01*
X305623Y168538D01*
X305883Y168278D01*
X306237Y168184D01*
X306749Y169050D02*
X306688Y169318D01*
X306500Y169520D01*
X306237Y169601D01*
X306749Y169050D02*
X306749Y168695D01*
X306769Y168695D02*
X306870Y168383D01*
X307136Y168190D01*
X307464Y168190D01*
X307730Y168383D01*
X307832Y168695D01*
X307812Y168695D02*
X307812Y169050D01*
X307751Y169318D01*
X307563Y169520D01*
X307300Y169601D01*
X306237Y169601D02*
X307458Y169601D01*
X307812Y169955D01*
X304581Y105000D02*
X304581Y106771D01*
X304581Y105866D02*
X308125Y105866D01*
X308125Y107755D02*
X304581Y109527D01*
X304581Y107755D02*
X308125Y109527D01*
X306353Y94062D02*
X306353Y95834D01*
X305447Y94928D02*
X307258Y94928D01*
X307810Y96936D02*
X308048Y97204D01*
X308125Y97554D01*
X308021Y97896D01*
X307763Y98145D01*
X307416Y98235D01*
X306707Y98235D01*
X306353Y98140D01*
X306093Y97881D01*
X305999Y97527D01*
X306093Y97172D01*
X306353Y96913D01*
X306707Y96818D01*
X304581Y96818D01*
X304581Y98235D01*
X304581Y99219D02*
X308125Y100086D01*
X304581Y100991D01*
X279670Y30152D02*
X279571Y30563D01*
X279297Y30885D01*
X278906Y31046D01*
X278484Y31013D01*
X278124Y30792D01*
X277903Y30432D01*
X277870Y30010D01*
X278032Y29620D01*
X278353Y29345D01*
X278764Y29247D01*
X277898Y28341D02*
X278027Y27901D01*
X278358Y27584D01*
X278803Y27475D01*
X279244Y27604D01*
X279561Y27935D01*
X279669Y28381D01*
X279541Y28821D01*
X279210Y29138D01*
X278764Y29247D01*
X281520Y27475D02*
X281966Y27584D01*
X282297Y27901D01*
X282426Y28341D01*
X281520Y27475D02*
X280654Y27475D01*
X280654Y31018D01*
X281520Y31018D01*
X282426Y30152D02*
X282297Y30592D01*
X281966Y30909D01*
X281520Y31018D01*
X282426Y30152D02*
X282426Y28341D01*
X283410Y27475D02*
X284630Y31018D01*
X285890Y27475D01*
X283764Y28538D02*
X285536Y28538D01*
X302234Y30152D02*
X302115Y30595D01*
X301791Y30919D01*
X301348Y31038D01*
X300905Y30919D01*
X300581Y30595D01*
X300462Y30152D01*
X300482Y30152D02*
X300482Y28341D01*
X300462Y28341D02*
X300581Y27898D01*
X300905Y27574D01*
X301348Y27455D01*
X301791Y27574D01*
X302115Y27898D01*
X302234Y28341D01*
X302253Y28341D02*
X302253Y29247D01*
X301348Y29247D01*
X303238Y27475D02*
X303238Y31018D01*
X305009Y27475D01*
X305009Y31018D01*
X306860Y27475D02*
X307305Y27584D01*
X307637Y27901D01*
X307765Y28341D01*
X306860Y27475D02*
X305994Y27475D01*
X305994Y31018D01*
X306860Y31018D01*
X307765Y30152D02*
X307637Y30592D01*
X307305Y30909D01*
X306860Y31018D01*
X307765Y30152D02*
X307765Y28341D01*
X273171Y174215D02*
X273053Y174657D01*
X272728Y174982D01*
X272285Y175100D01*
X271843Y174982D01*
X271518Y174657D01*
X271400Y174215D01*
X271419Y174215D02*
X271419Y172404D01*
X271400Y172404D02*
X271518Y171961D01*
X271843Y171636D01*
X272285Y171518D01*
X272728Y171636D01*
X273053Y171961D01*
X273171Y172404D01*
X273191Y172404D02*
X273191Y173309D01*
X272285Y173309D01*
X274175Y171537D02*
X274175Y175081D01*
X275947Y171537D01*
X275947Y175081D01*
X277797Y171537D02*
X278243Y171646D01*
X278574Y171963D01*
X278703Y172404D01*
X277797Y171537D02*
X276931Y171537D01*
X276931Y175081D01*
X277797Y175081D01*
X278703Y174215D02*
X278574Y174655D01*
X278243Y174972D01*
X277797Y175081D01*
X278703Y174215D02*
X278703Y172404D01*
X259456Y173309D02*
X261227Y173309D01*
X260322Y174215D02*
X260322Y172404D01*
X262212Y174372D02*
X262920Y175081D01*
X262920Y171537D01*
X265322Y174372D02*
X265227Y174726D01*
X264968Y174986D01*
X264613Y175081D01*
X264259Y174986D01*
X263999Y174726D01*
X263905Y174372D01*
X265322Y174372D02*
X263905Y171537D01*
X265322Y171537D01*
X266306Y175081D02*
X267172Y171537D01*
X268078Y175081D01*
X118895Y209975D02*
X118895Y211747D01*
X119761Y211747D01*
X119761Y211766D02*
X120204Y211885D01*
X120528Y212209D01*
X120647Y212652D01*
X120528Y213095D01*
X120204Y213419D01*
X119761Y213538D01*
X119761Y213518D02*
X118895Y213518D01*
X118895Y211747D01*
X123403Y212652D02*
X123284Y213095D01*
X122960Y213419D01*
X122517Y213538D01*
X122074Y213419D01*
X121750Y213095D01*
X121631Y212652D01*
X121651Y212652D02*
X121651Y210841D01*
X121631Y210841D02*
X121750Y210398D01*
X122074Y210074D01*
X122517Y209955D01*
X122960Y210074D01*
X123284Y210398D01*
X123403Y210841D01*
X125273Y211747D02*
X124406Y211747D01*
X125273Y211766D02*
X125716Y211885D01*
X126040Y212209D01*
X126158Y212652D01*
X126040Y213095D01*
X125716Y213419D01*
X125273Y213538D01*
X124406Y213518D02*
X125273Y213518D01*
X124406Y209975D02*
X124406Y213518D01*
X125273Y209975D02*
X124406Y209975D01*
X125273Y209955D02*
X125716Y210074D01*
X126040Y210398D01*
X126158Y210841D01*
X126040Y211284D01*
X125716Y211608D01*
X125273Y211727D01*
X127162Y212652D02*
X127517Y212652D01*
X127517Y210841D02*
X127162Y210841D01*
X130273Y209975D02*
X131493Y213518D01*
X132753Y209975D01*
X130627Y211038D02*
X132399Y211038D01*
X133737Y213518D02*
X133737Y210487D01*
X133806Y210231D01*
X133993Y210043D01*
X134249Y209975D01*
X135233Y211195D02*
X136651Y211195D01*
X136651Y211550D01*
X136556Y211904D01*
X136296Y212163D01*
X135942Y212258D01*
X135588Y212163D01*
X135328Y211904D01*
X135233Y211550D01*
X135233Y210684D01*
X135342Y210307D01*
X135634Y210045D01*
X136021Y209979D01*
X136383Y210128D01*
X136611Y210447D01*
X137635Y209975D02*
X139052Y212298D01*
X137635Y212298D02*
X139052Y209975D01*
X141454Y211550D02*
X141359Y211904D01*
X141099Y212163D01*
X140745Y212258D01*
X140391Y212163D01*
X140131Y211904D01*
X140036Y211550D01*
X140903Y211038D02*
X141171Y211099D01*
X141373Y211287D01*
X141454Y211550D01*
X140903Y211038D02*
X140548Y211038D01*
X140548Y211018D02*
X140236Y210917D01*
X140043Y210651D01*
X140043Y210322D01*
X140236Y210057D01*
X140548Y209955D01*
X140548Y209975D02*
X140903Y209975D01*
X141171Y210036D01*
X141373Y210224D01*
X141454Y210487D01*
X141454Y211550D02*
X141454Y210329D01*
X141808Y209975D01*
X142792Y209975D02*
X142792Y212298D01*
X144210Y211550D02*
X144115Y211904D01*
X143855Y212163D01*
X143501Y212258D01*
X143147Y212163D01*
X142887Y211904D01*
X142792Y211550D01*
X144210Y211550D02*
X144210Y209975D01*
X146611Y213518D02*
X146611Y209975D01*
X146611Y211550D02*
X146516Y211904D01*
X146257Y212163D01*
X145903Y212258D01*
X145548Y212163D01*
X145289Y211904D01*
X145194Y211550D01*
X145194Y210684D01*
X145289Y210329D01*
X145548Y210070D01*
X145903Y209975D01*
X146257Y210070D01*
X146516Y210329D01*
X146611Y210684D01*
X147595Y211195D02*
X149013Y211195D01*
X149013Y211550D01*
X148918Y211904D01*
X148658Y212163D01*
X148304Y212258D01*
X147950Y212163D01*
X147690Y211904D01*
X147595Y211550D01*
X147595Y210684D01*
X147704Y210307D01*
X147996Y210045D01*
X148383Y209979D01*
X148746Y210128D01*
X148973Y210447D01*
X149997Y209975D02*
X149997Y212298D01*
X150903Y212140D02*
X150626Y212282D01*
X150318Y212246D01*
X150082Y212045D01*
X149997Y211747D01*
X155430Y212652D02*
X155331Y213063D01*
X155057Y213385D01*
X154666Y213546D01*
X154245Y213513D01*
X153884Y213292D01*
X153663Y212932D01*
X153630Y212510D01*
X153792Y212120D01*
X154114Y211845D01*
X154525Y211747D01*
X153658Y210841D02*
X153787Y210401D01*
X154118Y210084D01*
X154564Y209975D01*
X155004Y210104D01*
X155321Y210435D01*
X155430Y210881D01*
X155301Y211321D01*
X154970Y211638D01*
X154525Y211747D01*
X157832Y211550D02*
X157737Y211904D01*
X157477Y212163D01*
X157123Y212258D01*
X156769Y212163D01*
X156509Y211904D01*
X156414Y211550D01*
X156414Y210684D01*
X156509Y210329D01*
X156769Y210070D01*
X157123Y209975D01*
X157477Y210070D01*
X157737Y210329D01*
X157832Y210684D01*
X158816Y209975D02*
X158816Y213518D01*
X160233Y211550D02*
X160138Y211904D01*
X159879Y212163D01*
X159525Y212258D01*
X159170Y212163D01*
X158911Y211904D01*
X158816Y211550D01*
X160233Y211550D02*
X160233Y209975D01*
X161375Y213282D02*
X161375Y213636D01*
X162438Y213636D02*
X162438Y213282D01*
X162635Y211668D02*
X162540Y212022D01*
X162281Y212282D01*
X161926Y212376D01*
X161572Y212282D01*
X161312Y212022D01*
X161218Y211668D01*
X162084Y211117D02*
X162359Y211190D01*
X162561Y211392D01*
X162635Y211668D01*
X162084Y211117D02*
X161729Y211117D01*
X161729Y211136D02*
X161417Y211035D01*
X161224Y210769D01*
X161224Y210441D01*
X161417Y210175D01*
X161729Y210073D01*
X161729Y210054D02*
X162084Y210054D01*
X162359Y210127D01*
X162561Y210329D01*
X162635Y210605D01*
X162635Y211668D02*
X162635Y210408D01*
X162989Y210054D01*
X165036Y213518D02*
X164768Y213457D01*
X164566Y213270D01*
X164485Y213006D01*
X164485Y212298D01*
X164485Y209975D01*
X163973Y212298D02*
X165036Y212298D01*
X166021Y211195D02*
X167438Y211195D01*
X167438Y211550D01*
X167343Y211904D01*
X167084Y212163D01*
X166729Y212258D01*
X166375Y212163D01*
X166116Y211904D01*
X166021Y211550D01*
X166021Y210684D01*
X166129Y210307D01*
X166421Y210045D01*
X166808Y209979D01*
X167171Y210128D01*
X167399Y210447D01*
X168422Y209975D02*
X168422Y212298D01*
X169328Y212140D02*
X169052Y212282D01*
X168743Y212246D01*
X168507Y212045D01*
X168422Y211747D01*
X294891Y39773D02*
X291348Y39773D01*
X291195Y39710D01*
X291131Y39557D01*
X291195Y39403D01*
X291348Y39340D01*
X294891Y39340D01*
X295044Y39403D01*
X295108Y39557D01*
X295044Y39710D01*
X294891Y39773D01*
X293297Y37746D02*
X293297Y41368D01*
X293233Y41521D01*
X293080Y41584D01*
X292927Y41521D01*
X292864Y41368D01*
X292864Y37746D01*
X292927Y37592D01*
X293080Y37529D01*
X293233Y37592D01*
X293297Y37746D01*
X292864Y38080D02*
X293297Y38080D01*
X292864Y38631D02*
X293297Y38631D01*
X292864Y39183D02*
X293297Y39183D01*
X292864Y39734D02*
X293297Y39734D01*
X292864Y40285D02*
X293297Y40285D01*
X292864Y40836D02*
X293297Y40836D01*
X292872Y41387D02*
X293289Y41387D01*
X254579Y101648D02*
X251035Y101648D01*
X250882Y101585D01*
X250819Y101432D01*
X250882Y101278D01*
X251035Y101215D01*
X254579Y101215D01*
X254732Y101278D01*
X254795Y101432D01*
X254732Y101585D01*
X254579Y101648D01*
X252984Y99621D02*
X252984Y103243D01*
X252921Y103396D01*
X252768Y103459D01*
X252615Y103396D01*
X252551Y103243D01*
X252551Y99621D01*
X252615Y99467D01*
X252768Y99404D01*
X252921Y99467D01*
X252984Y99621D01*
X252551Y99955D02*
X252984Y99955D01*
X252551Y100506D02*
X252984Y100506D01*
X252551Y101058D02*
X252984Y101058D01*
X252551Y101609D02*
X252984Y101609D01*
X252551Y102160D02*
X252984Y102160D01*
X252551Y102711D02*
X252984Y102711D01*
X252559Y103262D02*
X252976Y103262D01*
X289360Y55521D02*
X288949Y55422D01*
X288627Y55148D01*
X288465Y54757D01*
X288499Y54336D01*
X288719Y53975D01*
X289080Y53754D01*
X289501Y53721D01*
X289892Y53883D01*
X290167Y54205D01*
X290265Y54616D01*
X291171Y53750D02*
X291611Y53878D01*
X291928Y54209D01*
X292036Y54655D01*
X291908Y55095D01*
X291577Y55412D01*
X291131Y55521D01*
X290691Y55392D01*
X290374Y55061D01*
X290265Y54616D01*
X289714Y56505D02*
X291328Y56505D01*
X291683Y56600D01*
X291942Y56860D01*
X292037Y57214D01*
X291942Y57568D01*
X291683Y57828D01*
X291328Y57923D01*
X289714Y57923D02*
X292037Y57923D01*
X292037Y58907D02*
X289714Y58907D01*
X290462Y60324D02*
X290108Y60229D01*
X289848Y59970D01*
X289753Y59616D01*
X289848Y59261D01*
X290108Y59002D01*
X290462Y58907D01*
X290462Y60324D02*
X292037Y60324D01*
X290462Y61742D02*
X290108Y61647D01*
X289848Y61387D01*
X289753Y61033D01*
X289848Y60679D01*
X290108Y60419D01*
X290462Y60324D01*
X290462Y61742D02*
X292037Y61742D01*
X292037Y62726D02*
X289714Y62726D01*
X290462Y64143D02*
X290108Y64048D01*
X289848Y63789D01*
X289753Y63435D01*
X289848Y63080D01*
X290108Y62821D01*
X290462Y62726D01*
X290462Y64143D02*
X292037Y64143D01*
X290462Y65561D02*
X290108Y65466D01*
X289848Y65206D01*
X289753Y64852D01*
X289848Y64498D01*
X290108Y64238D01*
X290462Y64143D01*
X290462Y65561D02*
X292037Y65561D01*
X290816Y66545D02*
X290816Y67962D01*
X290462Y67962D01*
X290108Y67867D01*
X289848Y67608D01*
X289753Y67253D01*
X289848Y66899D01*
X290108Y66640D01*
X290462Y66545D01*
X291328Y66545D01*
X291705Y66653D01*
X291967Y66946D01*
X292033Y67332D01*
X291884Y67695D01*
X291564Y67923D01*
X292037Y68946D02*
X289714Y68946D01*
X289872Y69852D02*
X289730Y69576D01*
X289766Y69268D01*
X289967Y69031D01*
X290265Y68946D01*
X118769Y202298D02*
X119478Y199975D01*
X120187Y202298D01*
X120895Y199975D01*
X121604Y202298D01*
X122588Y202298D02*
X123297Y199975D01*
X124005Y202298D01*
X124714Y199975D01*
X125423Y202298D01*
X126407Y202298D02*
X127116Y199975D01*
X127824Y202298D01*
X128533Y199975D01*
X129242Y202298D01*
X130226Y200329D02*
X130226Y199975D01*
X131210Y202298D02*
X131919Y199975D01*
X132627Y202298D01*
X133336Y199975D01*
X134045Y202298D01*
X135029Y203518D02*
X135029Y200487D01*
X135098Y200231D01*
X135285Y200043D01*
X135541Y199975D01*
X137942Y201550D02*
X137847Y201904D01*
X137588Y202163D01*
X137234Y202258D01*
X136879Y202163D01*
X136620Y201904D01*
X136525Y201550D01*
X137391Y201038D02*
X137660Y201099D01*
X137861Y201287D01*
X137942Y201550D01*
X137391Y201038D02*
X137037Y201038D01*
X137037Y201018D02*
X136724Y200917D01*
X136531Y200651D01*
X136531Y200322D01*
X136724Y200057D01*
X137037Y199955D01*
X137037Y199975D02*
X137391Y199975D01*
X137660Y200036D01*
X137861Y200224D01*
X137942Y200487D01*
X137942Y201550D02*
X137942Y200329D01*
X138297Y199975D01*
X139281Y199975D02*
X139281Y202298D01*
X140698Y201550D02*
X140603Y201904D01*
X140344Y202163D01*
X139990Y202258D01*
X139635Y202163D01*
X139376Y201904D01*
X139281Y201550D01*
X140698Y201550D02*
X140698Y199975D01*
X141683Y202298D02*
X142746Y202298D01*
X142194Y203518D02*
X142194Y200487D01*
X142275Y200224D01*
X142477Y200036D01*
X142746Y199975D01*
X143730Y199975D02*
X143730Y203518D01*
X145147Y201550D02*
X145052Y201904D01*
X144793Y202163D01*
X144438Y202258D01*
X144084Y202163D01*
X143825Y201904D01*
X143730Y201550D01*
X145147Y201550D02*
X145147Y199975D01*
X146131Y201195D02*
X147549Y201195D01*
X147549Y201550D01*
X147454Y201904D01*
X147194Y202163D01*
X146840Y202258D01*
X146486Y202163D01*
X146226Y201904D01*
X146131Y201550D01*
X146131Y200684D01*
X146240Y200307D01*
X146532Y200045D01*
X146919Y199979D01*
X147282Y200128D01*
X147509Y200447D01*
X148533Y199975D02*
X148533Y202298D01*
X149438Y202140D02*
X149162Y202282D01*
X148854Y202246D01*
X148618Y202045D01*
X148533Y201747D01*
X150423Y199975D02*
X150423Y202298D01*
X151840Y201550D02*
X151745Y201904D01*
X151486Y202163D01*
X151131Y202258D01*
X150777Y202163D01*
X150518Y201904D01*
X150423Y201550D01*
X151840Y201550D02*
X151840Y199975D01*
X153257Y201550D02*
X153162Y201904D01*
X152903Y202163D01*
X152549Y202258D01*
X152194Y202163D01*
X151935Y201904D01*
X151840Y201550D01*
X153257Y201550D02*
X153257Y199975D01*
X155659Y201550D02*
X155659Y200684D01*
X155659Y201550D02*
X155564Y201904D01*
X155305Y202163D01*
X154950Y202258D01*
X154596Y202163D01*
X154337Y201904D01*
X154242Y201550D01*
X154242Y200684D02*
X154242Y201550D01*
X154242Y200684D02*
X154337Y200329D01*
X154596Y200070D01*
X154950Y199975D01*
X155305Y200070D01*
X155564Y200329D01*
X155659Y200684D01*
X156643Y200329D02*
X156643Y199975D01*
X159045Y201550D02*
X158950Y201904D01*
X158690Y202163D01*
X158336Y202258D01*
X157982Y202163D01*
X157722Y201904D01*
X157627Y201550D01*
X157627Y200684D01*
X157722Y200329D01*
X157982Y200070D01*
X158336Y199975D01*
X158690Y200070D01*
X158950Y200329D01*
X159045Y200684D01*
X161446Y201550D02*
X161446Y200684D01*
X161446Y201550D02*
X161351Y201904D01*
X161092Y202163D01*
X160738Y202258D01*
X160383Y202163D01*
X160124Y201904D01*
X160029Y201550D01*
X160029Y200684D02*
X160029Y201550D01*
X160029Y200684D02*
X160124Y200329D01*
X160383Y200070D01*
X160738Y199975D01*
X161092Y200070D01*
X161351Y200329D01*
X161446Y200684D01*
X162431Y199975D02*
X162431Y202298D01*
X163848Y201550D02*
X163753Y201904D01*
X163494Y202163D01*
X163139Y202258D01*
X162785Y202163D01*
X162526Y201904D01*
X162431Y201550D01*
X163848Y201550D02*
X163848Y199975D01*
X165265Y201550D02*
X165170Y201904D01*
X164911Y202163D01*
X164557Y202258D01*
X164202Y202163D01*
X163943Y201904D01*
X163848Y201550D01*
X165265Y201550D02*
X165265Y199975D01*
X118521Y207298D02*
X119229Y204975D01*
X119938Y207298D01*
X120647Y204975D01*
X121355Y207298D01*
X122340Y207298D02*
X123048Y204975D01*
X123757Y207298D01*
X124466Y204975D01*
X125174Y207298D01*
X126158Y207298D02*
X126867Y204975D01*
X127576Y207298D01*
X128284Y204975D01*
X128993Y207298D01*
X129977Y205329D02*
X129977Y204975D01*
X131001Y204384D02*
X131229Y204065D01*
X131592Y203916D01*
X131978Y203982D01*
X132270Y204244D01*
X132379Y204621D01*
X132379Y206550D01*
X132284Y206904D01*
X132025Y207163D01*
X131670Y207258D01*
X131316Y207163D01*
X131057Y206904D01*
X130962Y206550D01*
X130962Y205684D01*
X131057Y205329D01*
X131316Y205070D01*
X131670Y204975D01*
X132025Y205070D01*
X132284Y205329D01*
X132379Y205684D01*
X133363Y204975D02*
X133363Y207298D01*
X134269Y207140D02*
X133993Y207282D01*
X133684Y207246D01*
X133448Y207045D01*
X133363Y206747D01*
X135253Y204975D02*
X135253Y207455D01*
X135253Y208164D02*
X135253Y208518D01*
X136237Y208518D02*
X136237Y205487D01*
X136306Y205231D01*
X136493Y205043D01*
X136749Y204975D01*
X137733Y208518D02*
X137733Y205487D01*
X137802Y205231D01*
X137989Y205043D01*
X138245Y204975D01*
X139229Y205487D02*
X139298Y205231D01*
X139485Y205043D01*
X139741Y204975D01*
X140095Y204975D01*
X140364Y205036D01*
X140566Y205224D01*
X140647Y205487D01*
X140647Y205684D01*
X140566Y205947D01*
X140364Y206134D01*
X140095Y206195D01*
X139741Y206195D01*
X139741Y207298D02*
X139417Y207192D01*
X139217Y206917D01*
X139217Y206576D01*
X139417Y206301D01*
X139741Y206195D01*
X139741Y207298D02*
X140095Y207298D01*
X140647Y206747D02*
X140573Y207022D01*
X140371Y207224D01*
X140095Y207298D01*
X141631Y203912D02*
X141631Y207298D01*
X141631Y205684D02*
X141726Y205329D01*
X141985Y205070D01*
X142340Y204975D01*
X142694Y205070D01*
X142953Y205329D01*
X143048Y205684D01*
X143048Y206550D02*
X143048Y205684D01*
X143048Y206550D02*
X142953Y206904D01*
X142694Y207163D01*
X142340Y207258D01*
X141985Y207163D01*
X141726Y206904D01*
X141631Y206550D01*
X145450Y206550D02*
X145450Y205684D01*
X145450Y206550D02*
X145355Y206904D01*
X145095Y207163D01*
X144741Y207258D01*
X144387Y207163D01*
X144127Y206904D01*
X144032Y206550D01*
X144032Y205684D02*
X144032Y206550D01*
X144032Y205684D02*
X144127Y205329D01*
X144387Y205070D01*
X144741Y204975D01*
X145095Y205070D01*
X145355Y205329D01*
X145450Y205684D01*
X146434Y204975D02*
X146434Y207298D01*
X147340Y207140D02*
X147063Y207282D01*
X146755Y207246D01*
X146519Y207045D01*
X146434Y206747D01*
X148324Y207298D02*
X149387Y207298D01*
X148836Y208518D02*
X148836Y205487D01*
X148917Y205224D01*
X149118Y205036D01*
X149387Y204975D01*
X150371Y207298D02*
X151237Y204975D01*
X152143Y207298D01*
X153127Y206195D02*
X154544Y206195D01*
X154544Y206550D01*
X154449Y206904D01*
X154190Y207163D01*
X153836Y207258D01*
X153481Y207163D01*
X153222Y206904D01*
X153127Y206550D01*
X153127Y205684D01*
X153235Y205307D01*
X153528Y205045D01*
X153914Y204979D01*
X154277Y205128D01*
X154505Y205447D01*
X155529Y204975D02*
X155529Y207298D01*
X156434Y207140D02*
X156158Y207282D01*
X155850Y207246D01*
X155613Y207045D01*
X155529Y206747D01*
X157418Y206195D02*
X158836Y206195D01*
X158836Y206550D01*
X158741Y206904D01*
X158481Y207163D01*
X158127Y207258D01*
X157773Y207163D01*
X157513Y206904D01*
X157418Y206550D01*
X157418Y205684D01*
X157527Y205307D01*
X157819Y205045D01*
X158206Y204979D01*
X158568Y205128D01*
X158796Y205447D01*
X159820Y204975D02*
X159820Y207455D01*
X159820Y208164D02*
X159820Y208518D01*
X160804Y204975D02*
X160804Y207298D01*
X162221Y206550D02*
X162127Y206904D01*
X161867Y207163D01*
X161513Y207258D01*
X161158Y207163D01*
X160899Y206904D01*
X160804Y206550D01*
X162221Y206550D02*
X162221Y204975D01*
X163206Y205329D02*
X163206Y204975D01*
X165607Y206550D02*
X165512Y206904D01*
X165253Y207163D01*
X164899Y207258D01*
X164544Y207163D01*
X164285Y206904D01*
X164190Y206550D01*
X164190Y205684D01*
X164285Y205329D01*
X164544Y205070D01*
X164899Y204975D01*
X165253Y205070D01*
X165512Y205329D01*
X165607Y205684D01*
X168009Y206550D02*
X168009Y205684D01*
X168009Y206550D02*
X167914Y206904D01*
X167655Y207163D01*
X167300Y207258D01*
X166946Y207163D01*
X166686Y206904D01*
X166592Y206550D01*
X166592Y205684D02*
X166592Y206550D01*
X166592Y205684D02*
X166686Y205329D01*
X166946Y205070D01*
X167300Y204975D01*
X167655Y205070D01*
X167914Y205329D01*
X168009Y205684D01*
X168993Y204975D02*
X168993Y207298D01*
X170410Y206550D02*
X170315Y206904D01*
X170056Y207163D01*
X169702Y207258D01*
X169347Y207163D01*
X169088Y206904D01*
X168993Y206550D01*
X170410Y206550D02*
X170410Y204975D01*
X171828Y206550D02*
X171733Y206904D01*
X171473Y207163D01*
X171119Y207258D01*
X170765Y207163D01*
X170505Y206904D01*
X170410Y206550D01*
X171828Y206550D02*
X171828Y204975D01*
X268024Y29084D02*
X269795Y29084D01*
X268890Y29990D02*
X268890Y28179D01*
X270898Y27627D02*
X271165Y27389D01*
X271515Y27312D01*
X271858Y27416D01*
X272106Y27674D01*
X272197Y28021D01*
X272197Y28730D01*
X272102Y29084D01*
X271843Y29344D01*
X271488Y29438D01*
X271134Y29344D01*
X270874Y29084D01*
X270780Y28730D01*
X270780Y30856D01*
X272197Y30856D01*
X273181Y30856D02*
X274047Y27312D01*
X274953Y30856D01*
X292138Y30152D02*
X292039Y30563D01*
X291765Y30885D01*
X291374Y31046D01*
X290952Y31013D01*
X290592Y30792D01*
X290371Y30432D01*
X290338Y30010D01*
X290500Y29620D01*
X290821Y29345D01*
X291232Y29247D01*
X290366Y28341D02*
X290495Y27901D01*
X290826Y27584D01*
X291271Y27475D01*
X291712Y27604D01*
X292029Y27935D01*
X292137Y28381D01*
X292009Y28821D01*
X291678Y29138D01*
X291232Y29247D01*
X294874Y30152D02*
X294755Y30595D01*
X294431Y30919D01*
X293988Y31038D01*
X293545Y30919D01*
X293221Y30595D01*
X293102Y30152D01*
X293122Y30152D02*
X293122Y28341D01*
X293102Y28341D02*
X293221Y27898D01*
X293545Y27574D01*
X293988Y27455D01*
X294431Y27574D01*
X294755Y27898D01*
X294874Y28341D01*
X295878Y31018D02*
X295878Y27475D01*
X297453Y27475D01*
X229375Y198125D02*
X230595Y201668D01*
X231855Y198125D01*
X229729Y199187D02*
X231500Y199187D01*
X232839Y198125D02*
X232839Y201668D01*
X234611Y198125D01*
X234611Y201668D01*
X235595Y201668D02*
X237367Y201668D01*
X236461Y201668D02*
X236461Y198125D01*
X218750Y198125D02*
X219970Y201668D01*
X221230Y198125D01*
X219104Y199187D02*
X220875Y199187D01*
X222214Y198125D02*
X222214Y201668D01*
X223986Y198125D01*
X223986Y201668D01*
X224970Y201668D02*
X226742Y201668D01*
X225836Y201668D02*
X225836Y198125D01*
X210501Y200802D02*
X210383Y201245D01*
X210059Y201569D01*
X209616Y201687D01*
X209173Y201569D01*
X208848Y201245D01*
X208730Y200802D01*
X208750Y200802D02*
X208750Y198991D01*
X208730Y198991D02*
X208848Y198548D01*
X209173Y198223D01*
X209616Y198105D01*
X210059Y198223D01*
X210383Y198548D01*
X210501Y198991D01*
X210521Y198991D02*
X210521Y199896D01*
X209616Y199896D01*
X211505Y198125D02*
X211505Y201668D01*
X213277Y198125D01*
X213277Y201668D01*
X215127Y198125D02*
X215573Y198233D01*
X215905Y198550D01*
X216033Y198991D01*
X215127Y198125D02*
X214261Y198125D01*
X214261Y201668D01*
X215127Y201668D01*
X216033Y200802D02*
X215905Y201242D01*
X215573Y201559D01*
X215127Y201668D01*
X216033Y200802D02*
X216033Y198991D01*
X200501Y200802D02*
X200383Y201245D01*
X200059Y201569D01*
X199616Y201687D01*
X199173Y201569D01*
X198848Y201245D01*
X198730Y200802D01*
X198750Y200802D02*
X198750Y198991D01*
X198730Y198991D02*
X198848Y198548D01*
X199173Y198223D01*
X199616Y198105D01*
X200059Y198223D01*
X200383Y198548D01*
X200501Y198991D01*
X200521Y198991D02*
X200521Y199896D01*
X199616Y199896D01*
X201505Y198125D02*
X201505Y201668D01*
X203277Y198125D01*
X203277Y201668D01*
X205127Y198125D02*
X205573Y198233D01*
X205905Y198550D01*
X206033Y198991D01*
X205127Y198125D02*
X204261Y198125D01*
X204261Y201668D01*
X205127Y201668D01*
X206033Y200802D02*
X205905Y201242D01*
X205573Y201559D01*
X205127Y201668D01*
X206033Y200802D02*
X206033Y198991D01*
X187500Y198833D02*
X187594Y198479D01*
X187854Y198219D01*
X188208Y198125D01*
X188562Y198219D01*
X188822Y198479D01*
X188917Y198833D01*
X188917Y199345D02*
X188917Y198833D01*
X188917Y199345D02*
X188822Y199699D01*
X188562Y199959D01*
X188208Y200054D01*
X188011Y200054D02*
X188208Y200054D01*
X188011Y200054D01*
X188208Y200054D02*
X188570Y200161D01*
X188829Y200435D01*
X188917Y200802D01*
X188917Y200959D02*
X188917Y200802D01*
X188917Y200959D02*
X188822Y201313D01*
X188562Y201573D01*
X188208Y201668D01*
X187854Y201573D01*
X187594Y201313D01*
X187500Y200959D01*
X189901Y198125D02*
X190255Y198125D01*
X189940Y197416D01*
X191240Y198833D02*
X191335Y198479D01*
X191594Y198219D01*
X191948Y198125D01*
X192303Y198219D01*
X192562Y198479D01*
X192657Y198833D01*
X192657Y199345D02*
X192657Y198833D01*
X192657Y199345D02*
X192562Y199699D01*
X192303Y199959D01*
X191948Y200054D01*
X191751Y200054D02*
X191948Y200054D01*
X191751Y200054D01*
X191948Y200054D02*
X192310Y200161D01*
X192569Y200435D01*
X192657Y200802D01*
X192657Y200959D02*
X192657Y200802D01*
X192657Y200959D02*
X192562Y201313D01*
X192303Y201573D01*
X191948Y201668D01*
X191594Y201573D01*
X191335Y201313D01*
X191240Y200959D01*
X193641Y201668D02*
X194507Y198125D01*
X195413Y201668D01*
X88750Y198833D02*
X88844Y198479D01*
X89104Y198219D01*
X89458Y198125D01*
X89812Y198219D01*
X90072Y198479D01*
X90167Y198833D01*
X90167Y199345D02*
X90167Y198833D01*
X90167Y199345D02*
X90072Y199699D01*
X89812Y199959D01*
X89458Y200054D01*
X89261Y200054D02*
X89458Y200054D01*
X89261Y200054D01*
X89458Y200054D02*
X89820Y200161D01*
X90079Y200435D01*
X90167Y200802D01*
X90167Y200959D02*
X90167Y200802D01*
X90167Y200959D02*
X90072Y201313D01*
X89812Y201573D01*
X89458Y201668D01*
X89104Y201573D01*
X88844Y201313D01*
X88750Y200959D01*
X91151Y198125D02*
X91505Y198125D01*
X91190Y197416D01*
X92490Y198833D02*
X92585Y198479D01*
X92844Y198219D01*
X93198Y198125D01*
X93553Y198219D01*
X93812Y198479D01*
X93907Y198833D01*
X93907Y199345D02*
X93907Y198833D01*
X93907Y199345D02*
X93812Y199699D01*
X93553Y199959D01*
X93198Y200054D01*
X93001Y200054D02*
X93198Y200054D01*
X93001Y200054D01*
X93198Y200054D02*
X93560Y200161D01*
X93819Y200435D01*
X93907Y200802D01*
X93907Y200959D02*
X93907Y200802D01*
X93907Y200959D02*
X93812Y201313D01*
X93553Y201573D01*
X93198Y201668D01*
X92844Y201573D01*
X92585Y201313D01*
X92490Y200959D01*
X94891Y201668D02*
X95757Y198125D01*
X96663Y201668D01*
X78991Y198125D02*
X79436Y198233D01*
X79768Y198550D01*
X79896Y198991D01*
X78991Y198125D02*
X78125Y198125D01*
X78125Y201668D01*
X78991Y201668D01*
X79896Y200802D02*
X79768Y201242D01*
X79436Y201559D01*
X78991Y201668D01*
X79896Y200802D02*
X79896Y198991D01*
X82652Y201668D02*
X80880Y201668D01*
X80880Y199896D01*
X82101Y199896D01*
X80880Y199896D02*
X80880Y198125D01*
X82652Y198125D01*
X83636Y198125D02*
X83636Y201668D01*
X84502Y201668D01*
X84502Y199916D02*
X84945Y200035D01*
X85270Y200359D01*
X85388Y200802D01*
X85270Y201245D01*
X84945Y201569D01*
X84502Y201687D01*
X84502Y199896D02*
X83636Y199896D01*
X84502Y199896D02*
X85408Y198125D01*
X67741Y198125D02*
X68186Y198233D01*
X68518Y198550D01*
X68646Y198991D01*
X67741Y198125D02*
X66875Y198125D01*
X66875Y201668D01*
X67741Y201668D01*
X68646Y200802D02*
X68518Y201242D01*
X68186Y201559D01*
X67741Y201668D01*
X68646Y200802D02*
X68646Y198991D01*
X71048Y199699D02*
X70953Y200054D01*
X70693Y200313D01*
X70339Y200408D01*
X69985Y200313D01*
X69725Y200054D01*
X69630Y199699D01*
X70497Y199187D02*
X70765Y199249D01*
X70967Y199436D01*
X71048Y199699D01*
X70497Y199187D02*
X70142Y199187D01*
X70142Y199168D02*
X69830Y199066D01*
X69637Y198801D01*
X69637Y198472D01*
X69830Y198206D01*
X70142Y198105D01*
X70142Y198125D02*
X70497Y198125D01*
X70765Y198186D01*
X70967Y198373D01*
X71048Y198636D01*
X71048Y199699D02*
X71048Y198479D01*
X71402Y198125D01*
X72386Y200447D02*
X73449Y200447D01*
X72898Y201668D02*
X72898Y198636D01*
X72979Y198373D01*
X73181Y198186D01*
X73449Y198125D01*
X75851Y199699D02*
X75756Y200054D01*
X75497Y200313D01*
X75142Y200408D01*
X74788Y200313D01*
X74528Y200054D01*
X74434Y199699D01*
X75300Y199187D02*
X75568Y199249D01*
X75770Y199436D01*
X75851Y199699D01*
X75300Y199187D02*
X74945Y199187D01*
X74945Y199168D02*
X74633Y199066D01*
X74440Y198801D01*
X74440Y198472D01*
X74633Y198206D01*
X74945Y198105D01*
X74945Y198125D02*
X75300Y198125D01*
X75568Y198186D01*
X75770Y198373D01*
X75851Y198636D01*
X75851Y199699D02*
X75851Y198479D01*
X76205Y198125D01*
X58939Y200802D02*
X58820Y201245D01*
X58496Y201569D01*
X58053Y201687D01*
X57610Y201569D01*
X57286Y201245D01*
X57167Y200802D01*
X57187Y200802D02*
X57187Y198991D01*
X57167Y198991D02*
X57286Y198548D01*
X57610Y198223D01*
X58053Y198105D01*
X58496Y198223D01*
X58820Y198548D01*
X58939Y198991D01*
X58959Y198991D02*
X58959Y199896D01*
X58053Y199896D01*
X59943Y198125D02*
X59943Y201668D01*
X61715Y198125D01*
X61715Y201668D01*
X63565Y198125D02*
X64011Y198233D01*
X64342Y198550D01*
X64470Y198991D01*
X63565Y198125D02*
X62699Y198125D01*
X62699Y201668D01*
X63565Y201668D01*
X64470Y200802D02*
X64342Y201242D01*
X64011Y201559D01*
X63565Y201668D01*
X64470Y200802D02*
X64470Y198991D01*
X195081Y89709D02*
X196852Y89709D01*
X195947Y90615D02*
X195947Y88804D01*
X197837Y90772D02*
X198545Y91481D01*
X198545Y87937D01*
X200947Y90772D02*
X200852Y91126D01*
X200593Y91386D01*
X200238Y91481D01*
X199884Y91386D01*
X199624Y91126D01*
X199530Y90772D01*
X200947Y90772D02*
X199530Y87937D01*
X200947Y87937D01*
X201931Y91481D02*
X202797Y87937D01*
X203703Y91481D01*
X278602Y201771D02*
X278697Y201417D01*
X278956Y201157D01*
X279311Y201062D01*
X279665Y201157D01*
X279924Y201417D01*
X280019Y201771D01*
X280019Y202283D02*
X280019Y201771D01*
X280019Y202283D02*
X279924Y202637D01*
X279665Y202897D01*
X279311Y202992D01*
X279114Y202992D02*
X279311Y202992D01*
X279114Y202992D01*
X279311Y202992D02*
X279672Y203099D01*
X279932Y203373D01*
X280019Y203740D01*
X280019Y203897D02*
X280019Y203740D01*
X280019Y203897D02*
X279924Y204251D01*
X279665Y204511D01*
X279311Y204606D01*
X278956Y204511D01*
X278697Y204251D01*
X278602Y203897D01*
X281003Y201062D02*
X281358Y201062D01*
X281043Y200354D01*
X282342Y201771D02*
X282437Y201417D01*
X282696Y201157D01*
X283051Y201062D01*
X283405Y201157D01*
X283664Y201417D01*
X283759Y201771D01*
X283759Y202283D02*
X283759Y201771D01*
X283759Y202283D02*
X283664Y202637D01*
X283405Y202897D01*
X283051Y202992D01*
X282854Y202992D02*
X283051Y202992D01*
X282854Y202992D01*
X283051Y202992D02*
X283412Y203099D01*
X283672Y203373D01*
X283759Y203740D01*
X283759Y203897D02*
X283759Y203740D01*
X283759Y203897D02*
X283664Y204251D01*
X283405Y204511D01*
X283051Y204606D01*
X282696Y204511D01*
X282437Y204251D01*
X282342Y203897D01*
X284744Y204606D02*
X285610Y201062D01*
X286515Y204606D01*
G54D14*
X62815Y102967D02*
X64028Y98006D01*
X65296Y102967D01*
X66563Y98006D01*
X67776Y102967D01*
X69154Y102967D02*
X69154Y98006D01*
X71359Y98006D01*
X72737Y98006D02*
X74445Y102967D01*
X76209Y98006D01*
X73233Y99495D02*
X75713Y99495D01*
X77587Y98006D02*
X77587Y102967D01*
X80067Y98006D01*
X80067Y102967D01*
X83926Y102967D02*
X86406Y102967D01*
X85138Y102967D02*
X85138Y98006D01*
X87784Y98006D02*
X87784Y102967D01*
X89768Y100211D02*
X89670Y100642D01*
X89395Y100987D01*
X88997Y101178D01*
X88555Y101178D01*
X88157Y100987D01*
X87882Y100642D01*
X87784Y100211D01*
X89768Y100211D02*
X89768Y98006D01*
X91146Y99715D02*
X93130Y99715D01*
X93130Y100211D01*
X93032Y100642D01*
X92757Y100987D01*
X92359Y101178D01*
X91918Y101178D01*
X91520Y100987D01*
X91244Y100642D01*
X91146Y100211D01*
X91146Y98999D01*
X91252Y98551D01*
X91549Y98200D01*
X91971Y98020D01*
X92430Y98049D01*
X92826Y98282D01*
X93075Y98668D01*
X94508Y98006D02*
X94508Y101258D01*
X95776Y101038D02*
X95475Y101215D01*
X95126Y101237D01*
X94806Y101097D01*
X94584Y100828D01*
X94508Y100487D01*
X97154Y98006D02*
X97154Y101258D01*
X99138Y100211D02*
X99040Y100642D01*
X98765Y100987D01*
X98367Y101178D01*
X97925Y101178D01*
X97528Y100987D01*
X97252Y100642D01*
X97154Y100211D01*
X99138Y100211D02*
X99138Y98006D01*
X101123Y100211D02*
X101024Y100642D01*
X100749Y100987D01*
X100351Y101178D01*
X99910Y101178D01*
X99512Y100987D01*
X99237Y100642D01*
X99138Y100211D01*
X101123Y100211D02*
X101123Y98006D01*
X104485Y100211D02*
X104485Y98999D01*
X104485Y100211D02*
X104386Y100642D01*
X104111Y100987D01*
X103713Y101178D01*
X103272Y101178D01*
X102874Y100987D01*
X102599Y100642D01*
X102500Y100211D01*
X102500Y98999D02*
X102500Y100211D01*
X102500Y98999D02*
X102599Y98568D01*
X102874Y98223D01*
X103272Y98031D01*
X103713Y98031D01*
X104111Y98223D01*
X104386Y98568D01*
X104485Y98999D01*
X105863Y98006D02*
X105863Y101258D01*
X107847Y100211D02*
X107749Y100642D01*
X107473Y100987D01*
X107076Y101178D01*
X106634Y101178D01*
X106236Y100987D01*
X105961Y100642D01*
X105863Y100211D01*
X107847Y100211D02*
X107847Y98006D01*
X109831Y100211D02*
X109733Y100642D01*
X109458Y100987D01*
X109060Y101178D01*
X108618Y101178D01*
X108220Y100987D01*
X107945Y100642D01*
X107847Y100211D01*
X109831Y100211D02*
X109831Y98006D01*
X111209Y99715D02*
X113193Y99715D01*
X113193Y100211D01*
X113095Y100642D01*
X112820Y100987D01*
X112422Y101178D01*
X111981Y101178D01*
X111583Y100987D01*
X111307Y100642D01*
X111209Y100211D01*
X111209Y98999D01*
X111315Y98551D01*
X111612Y98200D01*
X112034Y98020D01*
X112493Y98049D01*
X112889Y98282D01*
X113138Y98668D01*
X114571Y101258D02*
X116060Y101258D01*
X115288Y102967D02*
X115288Y98723D01*
X115401Y98354D01*
X115684Y98092D01*
X116060Y98006D01*
X117437Y99715D02*
X119422Y99715D01*
X119422Y100211D01*
X119323Y100642D01*
X119048Y100987D01*
X118650Y101178D01*
X118209Y101178D01*
X117811Y100987D01*
X117536Y100642D01*
X117437Y100211D01*
X117437Y98999D01*
X117544Y98551D01*
X117840Y98200D01*
X118263Y98020D01*
X118721Y98049D01*
X119118Y98282D01*
X119367Y98668D01*
X120800Y98006D02*
X120800Y101258D01*
X122067Y101038D02*
X121766Y101215D01*
X121418Y101237D01*
X121097Y101097D01*
X120875Y100828D01*
X120800Y100487D01*
X125926Y98006D02*
X125926Y102967D01*
X127634Y99495D01*
X129398Y102967D01*
X129398Y98006D01*
X130776Y98006D02*
X130776Y101479D01*
X130776Y102471D02*
X130776Y102967D01*
X132154Y98006D02*
X132154Y101258D01*
X134138Y100211D02*
X134040Y100642D01*
X133765Y100987D01*
X133367Y101178D01*
X132925Y101178D01*
X132528Y100987D01*
X132252Y100642D01*
X132154Y100211D01*
X134138Y100211D02*
X134138Y98006D01*
X135516Y98006D02*
X135516Y101479D01*
X135516Y102471D02*
X135516Y102967D01*
G54D16*
X202803Y151799D02*
X202803Y111799D01*
X230795Y111799D01*
X230795Y151799D01*
X202803Y151799D01*
X237902Y170385D02*
X257981Y170385D01*
X257981Y136428D02*
X237902Y136428D01*
X237902Y173830D01*
X257981Y173830D01*
X257981Y136428D02*
X257981Y173830D01*
X247941Y125129D02*
X247941Y136428D01*
X247941Y173830D02*
X247941Y185129D01*
X273437Y185671D02*
X273437Y177187D01*
X263437Y185671D02*
X263437Y177187D01*
X278437Y177187D02*
X258437Y177187D01*
X263437Y185671D02*
X273437Y185671D01*
X258437Y177187D02*
X258437Y199687D01*
X278437Y199687D01*
X278437Y177187D01*
X166827Y121338D02*
X166685Y122828D01*
X166263Y124265D01*
X165577Y125595D01*
X164652Y126772D01*
X163521Y127752D01*
X162224Y128501D01*
X160810Y128990D01*
X159328Y129203D01*
X157833Y129132D01*
X156378Y128779D01*
X155016Y128157D01*
X153797Y127289D01*
X152764Y126206D01*
X151954Y124946D01*
X151398Y123557D01*
X151115Y122087D01*
X151115Y120590D01*
X151398Y119120D01*
X151954Y117730D01*
X152764Y116471D01*
X153797Y115388D01*
X155016Y114519D01*
X156378Y113897D01*
X157833Y113544D01*
X159328Y113473D01*
X160810Y113686D01*
X162224Y114176D01*
X163521Y114924D01*
X164652Y115905D01*
X165577Y117081D01*
X166263Y118412D01*
X166685Y119848D01*
X166827Y121338D01*
X144568Y153318D02*
X145830Y152259D01*
X147256Y151436D01*
X148804Y150873D01*
X150426Y150587D01*
X152073Y150587D01*
X153695Y150873D01*
X155243Y151436D01*
X156669Y152259D01*
X157931Y153318D01*
X158990Y154580D01*
X159813Y156006D01*
X160376Y157554D01*
X160662Y159176D01*
X160662Y160823D01*
X160376Y162445D01*
X159813Y163993D01*
X158990Y165419D01*
X157931Y166681D01*
X156669Y167740D01*
X155243Y168563D01*
X153695Y169126D01*
X152073Y169412D01*
X150426Y169412D01*
X148804Y169126D01*
X147256Y168563D01*
X145830Y167740D01*
X144568Y166681D01*
X144568Y153318D01*
X99687Y149375D02*
X99687Y159375D01*
X129687Y159375D01*
X129687Y149375D01*
X99687Y149375D01*
X94687Y154375D02*
X99687Y154375D01*
X129687Y154375D02*
X134687Y154375D01*
X294611Y154763D02*
X294611Y165236D01*
X264138Y165236D01*
X264138Y154763D01*
X294611Y154763D01*
X60000Y123125D02*
X60772Y123247D01*
X61469Y123602D01*
X62022Y124155D01*
X62377Y124852D01*
X62500Y125625D01*
X62377Y126397D01*
X62022Y127094D01*
X61469Y127647D01*
X60772Y128002D01*
X60000Y128125D01*
X60000Y115625D02*
X60000Y135625D01*
X60000Y115625D02*
X140000Y115625D01*
X140000Y135625D01*
X60000Y135625D01*
X69532Y160280D02*
X69532Y148469D01*
X89217Y148469D01*
X89217Y160280D01*
X69532Y160280D01*
X35000Y17140D02*
X35000Y25625D01*
X45000Y17140D02*
X45000Y25625D01*
X30000Y25625D02*
X50000Y25625D01*
X45000Y17140D02*
X35000Y17140D01*
X50000Y25625D02*
X50000Y3125D01*
X30000Y3125D01*
X30000Y25625D01*
X60000Y17140D02*
X60000Y25625D01*
X70000Y17140D02*
X70000Y25625D01*
X55000Y25625D02*
X75000Y25625D01*
X70000Y17140D02*
X60000Y17140D01*
X75000Y25625D02*
X75000Y3125D01*
X55000Y3125D01*
X55000Y25625D01*
X85000Y17140D02*
X85000Y25625D01*
X95000Y17140D02*
X95000Y25625D01*
X80000Y25625D02*
X100000Y25625D01*
X95000Y17140D02*
X85000Y17140D01*
X100000Y25625D02*
X100000Y3125D01*
X80000Y3125D01*
X80000Y25625D01*
X110000Y17140D02*
X110000Y25625D01*
X120000Y17140D02*
X120000Y25625D01*
X105000Y25625D02*
X125000Y25625D01*
X120000Y17140D02*
X110000Y17140D01*
X125000Y25625D02*
X125000Y3125D01*
X105000Y3125D01*
X105000Y25625D01*
X135000Y17140D02*
X135000Y25625D01*
X145000Y17140D02*
X145000Y25625D01*
X130000Y25625D02*
X150000Y25625D01*
X145000Y17140D02*
X135000Y17140D01*
X150000Y25625D02*
X150000Y3125D01*
X130000Y3125D01*
X130000Y25625D01*
X160000Y17140D02*
X160000Y25625D01*
X170000Y17140D02*
X170000Y25625D01*
X155000Y25625D02*
X175000Y25625D01*
X170000Y17140D02*
X160000Y17140D01*
X175000Y25625D02*
X175000Y3125D01*
X155000Y3125D01*
X155000Y25625D01*
X185000Y17140D02*
X185000Y25625D01*
X195000Y17140D02*
X195000Y25625D01*
X180000Y25625D02*
X200000Y25625D01*
X195000Y17140D02*
X185000Y17140D01*
X200000Y25625D02*
X200000Y3125D01*
X180000Y3125D01*
X180000Y25625D01*
X210000Y17140D02*
X210000Y25625D01*
X220000Y17140D02*
X220000Y25625D01*
X205000Y25625D02*
X225000Y25625D01*
X220000Y17140D02*
X210000Y17140D01*
X225000Y25625D02*
X225000Y3125D01*
X205000Y3125D01*
X205000Y25625D01*
X192500Y40625D02*
X182500Y40625D01*
X182500Y70625D01*
X192500Y70625D01*
X192500Y40625D01*
X187500Y35625D02*
X187500Y40625D01*
X187500Y70625D02*
X187500Y75625D01*
X167500Y40625D02*
X157500Y40625D01*
X157500Y70625D01*
X167500Y70625D01*
X167500Y40625D01*
X162500Y35625D02*
X162500Y40625D01*
X162500Y70625D02*
X162500Y75625D01*
X142500Y40625D02*
X132500Y40625D01*
X132500Y70625D01*
X142500Y70625D01*
X142500Y40625D01*
X137500Y35625D02*
X137500Y40625D01*
X137500Y70625D02*
X137500Y75625D01*
X117500Y40625D02*
X107500Y40625D01*
X107500Y70625D01*
X117500Y70625D01*
X117500Y40625D01*
X112500Y35625D02*
X112500Y40625D01*
X112500Y70625D02*
X112500Y75625D01*
X102500Y40625D02*
X92500Y40625D01*
X92500Y70625D01*
X102500Y70625D01*
X102500Y40625D01*
X97500Y35625D02*
X97500Y40625D01*
X97500Y70625D02*
X97500Y75625D01*
X77500Y40625D02*
X67500Y40625D01*
X67500Y70625D01*
X77500Y70625D01*
X77500Y40625D01*
X72500Y35625D02*
X72500Y40625D01*
X72500Y70625D02*
X72500Y75625D01*
X52500Y40625D02*
X42500Y40625D01*
X42500Y70625D01*
X52500Y70625D01*
X52500Y40625D01*
X47500Y35625D02*
X47500Y40625D01*
X47500Y70625D02*
X47500Y75625D01*
X27500Y40625D02*
X17500Y40625D01*
X17500Y70625D01*
X27500Y70625D01*
X27500Y40625D01*
X22500Y35625D02*
X22500Y40625D01*
X22500Y70625D02*
X22500Y75625D01*
X205905Y80467D02*
X194094Y80467D01*
X194094Y60782D01*
X205905Y60782D01*
X205905Y80467D01*
X180905Y80467D02*
X169094Y80467D01*
X169094Y60782D01*
X180905Y60782D01*
X180905Y80467D01*
X155905Y80467D02*
X144094Y80467D01*
X144094Y60782D01*
X155905Y60782D01*
X155905Y80467D01*
X130905Y80467D02*
X119094Y80467D01*
X119094Y60782D01*
X130905Y60782D01*
X130905Y80467D01*
X90905Y80467D02*
X79094Y80467D01*
X79094Y60782D01*
X90905Y60782D01*
X90905Y80467D01*
X65905Y80467D02*
X54094Y80467D01*
X54094Y60782D01*
X65905Y60782D01*
X65905Y80467D01*
X40905Y80467D02*
X29094Y80467D01*
X29094Y60782D01*
X40905Y60782D01*
X40905Y80467D01*
X15905Y80467D02*
X4094Y80467D01*
X4094Y60782D01*
X15905Y60782D01*
X15905Y80467D01*
X318171Y98437D02*
X309687Y98437D01*
X318171Y128437D02*
X309687Y128437D01*
X309687Y93437D02*
X309687Y133437D01*
X318171Y128437D02*
X318171Y98437D01*
X309687Y133437D02*
X332187Y133437D01*
X332187Y93437D01*
X309687Y93437D01*
X272261Y85784D02*
X253363Y85784D01*
X253363Y44840D01*
X272261Y44840D01*
X272261Y85784D01*
X266867Y44840D02*
X266867Y85784D01*
X290374Y44062D02*
X290231Y45552D01*
X289809Y46988D01*
X289124Y48319D01*
X288198Y49496D01*
X287067Y50476D01*
X285770Y51224D01*
X284356Y51714D01*
X282874Y51927D01*
X281379Y51856D01*
X279924Y51503D01*
X278562Y50881D01*
X277343Y50013D01*
X276310Y48929D01*
X275501Y47670D01*
X274944Y46280D01*
X274661Y44810D01*
X274661Y43314D01*
X274944Y41844D01*
X275501Y40454D01*
X276310Y39195D01*
X277343Y38111D01*
X278562Y37243D01*
X279924Y36621D01*
X281379Y36268D01*
X282874Y36197D01*
X284356Y36410D01*
X285770Y36900D01*
X287067Y37648D01*
X288198Y38628D01*
X289124Y39805D01*
X289809Y41136D01*
X290231Y42572D01*
X290374Y44062D01*
X269436Y95625D02*
X269294Y97115D01*
X268872Y98551D01*
X268186Y99882D01*
X267261Y101058D01*
X266129Y102038D01*
X264833Y102787D01*
X263418Y103277D01*
X261937Y103490D01*
X260441Y103418D01*
X258987Y103065D01*
X257625Y102444D01*
X256406Y101575D01*
X255373Y100492D01*
X254563Y99233D01*
X254007Y97843D01*
X253724Y96373D01*
X253724Y94876D01*
X254007Y93406D01*
X254563Y92016D01*
X255373Y90757D01*
X256406Y89674D01*
X257625Y88805D01*
X258987Y88184D01*
X260441Y87831D01*
X261937Y87759D01*
X263418Y87972D01*
X264833Y88462D01*
X266129Y89211D01*
X267261Y90191D01*
X268186Y91367D01*
X268872Y92698D01*
X269294Y94134D01*
X269436Y95625D01*
X299419Y125000D02*
X299274Y127444D01*
X298841Y129854D01*
X298125Y132197D01*
X297138Y134438D01*
X295893Y136546D01*
X294407Y138493D01*
X292701Y140250D01*
X290799Y141793D01*
X288728Y143100D01*
X286518Y144154D01*
X284198Y144938D01*
X281801Y145442D01*
X279362Y145660D01*
X276914Y145587D01*
X274492Y145226D01*
X272130Y144580D01*
X269860Y143660D01*
X267716Y142477D01*
X265726Y141050D01*
X263919Y139397D01*
X262320Y137542D01*
X260952Y135510D01*
X259834Y133332D01*
X258981Y131036D01*
X258406Y128656D01*
X258117Y126224D01*
X258117Y123775D01*
X258406Y121343D01*
X258981Y118963D01*
X259834Y116667D01*
X260952Y114488D01*
X262320Y112457D01*
X263919Y110602D01*
X265726Y108949D01*
X267716Y107522D01*
X269860Y106339D01*
X272130Y105419D01*
X274492Y104773D01*
X276914Y104412D01*
X279362Y104339D01*
X281801Y104557D01*
X284198Y105061D01*
X286518Y105846D01*
X288729Y106899D01*
X290799Y108206D01*
X292701Y109749D01*
X294407Y111506D01*
X295893Y113453D01*
X297138Y115561D01*
X298125Y117802D01*
X298841Y120145D01*
X299274Y122555D01*
X299419Y125000D01*
X210219Y82077D02*
X230298Y82077D01*
X230298Y48120D02*
X210219Y48120D01*
X210219Y85522D01*
X230298Y85522D01*
X230298Y48120D02*
X230298Y85522D01*
X220258Y36821D02*
X220258Y48120D01*
X220258Y85522D02*
X220258Y96821D01*
X266560Y25000D02*
X266416Y27372D01*
X265988Y29710D01*
X265280Y31980D01*
X264305Y34148D01*
X263075Y36182D01*
X261609Y38053D01*
X259928Y39734D01*
X258057Y41200D01*
X256023Y42430D01*
X253855Y43405D01*
X251585Y44113D01*
X249247Y44541D01*
X246874Y44685D01*
X244502Y44541D01*
X242164Y44113D01*
X239894Y43405D01*
X237726Y42430D01*
X235692Y41200D01*
X233821Y39734D01*
X232140Y38053D01*
X230674Y36182D01*
X229444Y34148D01*
X228469Y31980D01*
X227761Y29710D01*
X227333Y27372D01*
X227189Y24999D01*
X227333Y22627D01*
X227761Y20289D01*
X228469Y18019D01*
X229444Y15851D01*
X230674Y13817D01*
X232140Y11946D01*
X233821Y10265D01*
X235692Y8799D01*
X237726Y7569D01*
X239894Y6594D01*
X242164Y5886D01*
X244502Y5458D01*
X246875Y5314D01*
X249247Y5458D01*
X251585Y5886D01*
X253855Y6594D01*
X256023Y7569D01*
X258057Y8799D01*
X259928Y10265D01*
X261609Y11946D01*
X263075Y13817D01*
X264305Y15851D01*
X265280Y18019D01*
X265988Y20289D01*
X266416Y22627D01*
X266560Y25000D01*
X262623Y25000D02*
X262476Y27144D01*
X262039Y29248D01*
X261319Y31274D01*
X260330Y33182D01*
X259090Y34938D01*
X257623Y36509D01*
X255956Y37865D01*
X254120Y38982D01*
X252148Y39838D01*
X250079Y40418D01*
X247949Y40711D01*
X245800Y40711D01*
X243670Y40418D01*
X241601Y39838D01*
X239629Y38982D01*
X237793Y37865D01*
X236126Y36509D01*
X234659Y34938D01*
X233419Y33182D01*
X232430Y31274D01*
X231710Y29248D01*
X231273Y27144D01*
X231126Y25000D01*
X231273Y22855D01*
X231710Y20751D01*
X232430Y18725D01*
X233419Y16817D01*
X234659Y15061D01*
X236126Y13490D01*
X237793Y12134D01*
X239629Y11017D01*
X241601Y10161D01*
X243670Y9581D01*
X245800Y9288D01*
X247949Y9288D01*
X250079Y9581D01*
X252148Y10161D01*
X254120Y11017D01*
X255956Y12134D01*
X257623Y13490D01*
X259090Y15061D01*
X260330Y16817D01*
X261319Y18725D01*
X262039Y20751D01*
X262476Y22855D01*
X262623Y24999D01*
X21250Y94394D02*
X21250Y83371D01*
X11250Y94394D02*
X11250Y83371D01*
X91250Y83371D02*
X11250Y83371D01*
X91250Y94394D02*
X91250Y83371D01*
X91250Y94394D02*
X11250Y94394D01*
X118750Y94394D02*
X118750Y83371D01*
X108750Y94394D02*
X108750Y83371D01*
X188750Y83371D02*
X108750Y83371D01*
X188750Y94394D02*
X188750Y83371D01*
X188750Y94394D02*
X108750Y94394D01*
X302187Y185671D02*
X302187Y177187D01*
X292187Y185671D02*
X292187Y177187D01*
X307187Y177187D02*
X287187Y177187D01*
X292187Y185671D02*
X302187Y185671D01*
X287187Y177187D02*
X287187Y199687D01*
X307187Y199687D01*
X307187Y177187D01*
X24749Y163750D02*
X24606Y165240D01*
X24184Y166676D01*
X23499Y168007D01*
X22573Y169183D01*
X21442Y170163D01*
X20145Y170912D01*
X18731Y171402D01*
X17249Y171615D01*
X15754Y171543D01*
X14299Y171190D01*
X12937Y170569D01*
X11718Y169700D01*
X10685Y168617D01*
X9876Y167358D01*
X9319Y165968D01*
X9036Y164498D01*
X9036Y163001D01*
X9319Y161531D01*
X9876Y160141D01*
X10685Y158882D01*
X11718Y157799D01*
X12937Y156930D01*
X14299Y156309D01*
X15754Y155956D01*
X17249Y155884D01*
X18731Y156097D01*
X20145Y156587D01*
X21442Y157336D01*
X22573Y158316D01*
X23499Y159492D01*
X24184Y160823D01*
X24606Y162259D01*
X24749Y163750D01*
X318171Y143125D02*
X309687Y143125D01*
X318171Y163125D02*
X309687Y163125D01*
X309687Y138125D02*
X309687Y168125D01*
X318171Y163125D02*
X318171Y143125D01*
X309687Y168125D02*
X332187Y168125D01*
X332187Y138125D01*
X309687Y138125D01*
X310155Y57741D02*
X310155Y66008D01*
X315469Y66008D01*
X315469Y57741D01*
X310155Y57741D02*
X315469Y57741D01*
X12878Y150625D02*
X12878Y110625D01*
X40871Y110625D01*
X40871Y150625D01*
X12878Y150625D01*
X44124Y163750D02*
X43981Y165240D01*
X43559Y166676D01*
X42874Y168007D01*
X41948Y169183D01*
X40817Y170163D01*
X39520Y170912D01*
X38106Y171402D01*
X36624Y171615D01*
X35129Y171543D01*
X33674Y171190D01*
X32312Y170569D01*
X31093Y169700D01*
X30060Y168617D01*
X29251Y167358D01*
X28694Y165968D01*
X28411Y164498D01*
X28411Y163001D01*
X28694Y161531D01*
X29251Y160141D01*
X30060Y158882D01*
X31093Y157799D01*
X32312Y156930D01*
X33674Y156309D01*
X35129Y155956D01*
X36624Y155884D01*
X38106Y156097D01*
X39520Y156587D01*
X40817Y157336D01*
X41948Y158316D01*
X42874Y159492D01*
X43559Y160823D01*
X43981Y162259D01*
X44124Y163750D01*
X68592Y148469D02*
X68592Y160280D01*
X48907Y160280D01*
X48907Y148469D01*
X68592Y148469D01*
X272187Y16515D02*
X272187Y25000D01*
X302187Y16515D02*
X302187Y25000D01*
X267187Y25000D02*
X307187Y25000D01*
X302187Y16515D02*
X272187Y16515D01*
X307187Y25000D02*
X307187Y2500D01*
X267187Y2500D01*
X267187Y25000D01*
X59375Y213750D02*
X64375Y213750D01*
X66875Y211250D01*
X66875Y206250D02*
X64375Y203750D01*
X56875Y211250D02*
X56875Y203750D01*
X59375Y213750D02*
X56875Y211250D01*
X64375Y203750D02*
X56875Y203750D01*
X76875Y211250D02*
X79375Y213750D01*
X84375Y213750D01*
X86875Y211250D01*
X86875Y206250D01*
X84375Y203750D01*
X79375Y203750D01*
X76875Y206250D01*
X66875Y211250D02*
X66875Y206250D01*
X66875Y211250D02*
X69375Y213750D01*
X74375Y213750D01*
X76875Y211250D01*
X76875Y206250D01*
X74375Y203750D01*
X69375Y203750D01*
X66875Y206250D01*
X89375Y213750D02*
X94375Y213750D01*
X96875Y211250D01*
X96875Y206250D01*
X94375Y203750D01*
X89375Y213750D02*
X86875Y211250D01*
X86875Y206250D02*
X89375Y203750D01*
X94375Y203750D02*
X89375Y203750D01*
X189687Y213750D02*
X194687Y213750D01*
X197187Y211250D01*
X197187Y206250D02*
X194687Y203750D01*
X187187Y211250D02*
X187187Y203750D01*
X189687Y213750D02*
X187187Y211250D01*
X194687Y203750D02*
X187187Y203750D01*
X207187Y211250D02*
X209687Y213750D01*
X214687Y213750D01*
X217187Y211250D01*
X217187Y206250D01*
X214687Y203750D01*
X209687Y203750D01*
X207187Y206250D01*
X197187Y211250D02*
X197187Y206250D01*
X197187Y211250D02*
X199687Y213750D01*
X204687Y213750D01*
X207187Y211250D01*
X207187Y206250D01*
X204687Y203750D01*
X199687Y203750D01*
X197187Y206250D01*
X219687Y213750D02*
X224687Y213750D01*
X227187Y211250D01*
X227187Y206250D01*
X224687Y203750D01*
X219687Y213750D02*
X217187Y211250D01*
X217187Y206250D02*
X219687Y203750D01*
X224687Y203750D02*
X219687Y203750D01*
X258905Y202844D02*
X258905Y214655D01*
X239219Y214655D01*
X239219Y202844D01*
X258905Y202844D01*
X35000Y176562D02*
X27500Y176562D01*
X27500Y194062D01*
X35000Y176562D02*
X37500Y179062D01*
X40000Y176562D01*
X45000Y176562D01*
X47500Y179062D01*
X50000Y176562D01*
X55000Y176562D01*
X57500Y179062D01*
X60000Y176562D01*
X65000Y176562D01*
X67500Y179062D01*
X70000Y176562D01*
X75000Y176562D01*
X77500Y179062D01*
X80000Y176562D01*
X85000Y176562D01*
X87500Y179062D01*
X27500Y194062D02*
X30000Y196562D01*
X35000Y196562D01*
X37500Y194062D01*
X40000Y196562D01*
X45000Y196562D01*
X47500Y194062D01*
X50000Y196562D01*
X55000Y196562D01*
X57500Y194062D01*
X60000Y196562D01*
X65000Y196562D01*
X67500Y194062D01*
X70000Y196562D01*
X75000Y196562D01*
X77500Y194062D01*
X80000Y196562D01*
X85000Y196562D01*
X87500Y194062D01*
X90000Y196562D01*
X95000Y196562D01*
X97500Y194062D01*
X100000Y196562D01*
X105000Y196562D01*
X107500Y194062D01*
X110000Y196562D01*
X115000Y196562D01*
X117500Y194062D01*
X120000Y196562D01*
X125000Y196562D01*
X127500Y194062D01*
X130000Y196562D01*
X135000Y196562D01*
X137500Y194062D01*
X140000Y196562D01*
X145000Y196562D01*
X147500Y194062D02*
X145000Y196562D01*
X147500Y194062D02*
X150000Y196562D01*
X155000Y196562D02*
X150000Y196562D01*
X155000Y196562D02*
X157500Y194062D01*
X160000Y196562D01*
X165000Y196562D02*
X160000Y196562D01*
X165000Y196562D02*
X167500Y194062D01*
X170000Y196562D01*
X175000Y196562D02*
X170000Y196562D01*
X175000Y196562D02*
X177500Y194062D01*
X180000Y196562D01*
X185000Y196562D02*
X180000Y196562D01*
X185000Y196562D02*
X187500Y194062D01*
X190000Y196562D01*
X195000Y196562D02*
X190000Y196562D01*
X195000Y196562D02*
X197500Y194062D01*
X200000Y196562D01*
X205000Y196562D02*
X200000Y196562D01*
X205000Y196562D02*
X207500Y194062D01*
X210000Y196562D01*
X215000Y196562D02*
X210000Y196562D01*
X215000Y196562D02*
X217500Y194062D01*
X217500Y179062D02*
X215000Y176562D01*
X210000Y176562D01*
X207500Y179062D02*
X210000Y176562D01*
X207500Y179062D02*
X205000Y176562D01*
X200000Y176562D01*
X197500Y179062D02*
X200000Y176562D01*
X197500Y179062D02*
X195000Y176562D01*
X190000Y176562D01*
X187500Y179062D02*
X190000Y176562D01*
X187500Y179062D02*
X185000Y176562D01*
X180000Y176562D02*
X185000Y176562D01*
X180000Y176562D02*
X177500Y179062D01*
X175000Y176562D01*
X170000Y176562D02*
X175000Y176562D01*
X170000Y176562D02*
X167500Y179062D01*
X165000Y176562D01*
X160000Y176562D01*
X157500Y179062D02*
X160000Y176562D01*
X157500Y179062D02*
X155000Y176562D01*
X150000Y176562D01*
X147500Y179062D02*
X150000Y176562D01*
X147500Y179062D02*
X145000Y176562D01*
X140000Y176562D01*
X137500Y179062D02*
X140000Y176562D01*
X137500Y179062D02*
X135000Y176562D01*
X130000Y176562D01*
X127500Y179062D02*
X130000Y176562D01*
X127500Y179062D02*
X125000Y176562D01*
X120000Y176562D01*
X117500Y179062D02*
X120000Y176562D01*
X117500Y179062D02*
X115000Y176562D01*
X110000Y176562D01*
X107500Y179062D02*
X110000Y176562D01*
X107500Y179062D02*
X105000Y176562D01*
X100000Y176562D01*
X97500Y179062D02*
X100000Y176562D01*
X97500Y179062D02*
X95000Y176562D01*
X90000Y176562D01*
X87500Y179062D02*
X90000Y176562D01*
X37500Y194062D02*
X37500Y179062D01*
X47500Y194062D02*
X47500Y179062D01*
X57500Y194062D02*
X57500Y179062D01*
X67500Y194062D02*
X67500Y179062D01*
X77500Y194062D02*
X77500Y179062D01*
X87500Y194062D02*
X87500Y179062D01*
X97500Y194062D02*
X97500Y179062D01*
X107500Y194062D02*
X107500Y179062D01*
X117500Y194062D02*
X117500Y179062D01*
X127500Y194062D02*
X127500Y179062D01*
X137500Y194062D02*
X137500Y179062D01*
X147500Y194062D02*
X147500Y179062D01*
X157500Y194062D02*
X157500Y179062D01*
X167500Y194062D02*
X167500Y179062D01*
X177500Y194062D02*
X177500Y179062D01*
X187500Y194062D02*
X187500Y179062D01*
X197500Y194062D02*
X197500Y179062D01*
X207500Y194062D02*
X207500Y179062D01*
X217500Y194062D02*
X217500Y179062D01*
X217500Y194062D02*
X220000Y196562D01*
X225000Y196562D02*
X220000Y196562D01*
X225000Y196562D02*
X227500Y194062D01*
X227500Y179062D02*
X225000Y176562D01*
X220000Y176562D01*
X217500Y179062D02*
X220000Y176562D01*
X227500Y194062D02*
X227500Y179062D01*
X214375Y151250D02*
X214497Y150477D01*
X214852Y149780D01*
X215405Y149227D01*
X216102Y148872D01*
X216875Y148750D01*
X217647Y148872D01*
X218344Y149227D01*
X218897Y149780D01*
X219252Y150477D01*
X219375Y151250D01*
X23764Y150137D02*
X23886Y149364D01*
X24241Y148667D01*
X24795Y148114D01*
X25491Y147759D01*
X26264Y147637D01*
X27037Y147759D01*
X27733Y148114D01*
X28287Y148667D01*
X28642Y149364D01*
X28764Y150137D01*
X171875Y138562D02*
X171875Y137687D01*
X175812Y142500D02*
X189187Y142500D01*
X189187Y133750D02*
X175812Y133750D01*
X193125Y138562D02*
X193125Y137687D01*
X171875Y123312D02*
X171875Y124187D01*
X189187Y128125D02*
X175812Y128125D01*
X189187Y119375D02*
X175812Y119375D01*
X193125Y124187D02*
X193125Y123312D01*
X158312Y129687D02*
X159187Y129687D01*
X154375Y147000D02*
X154375Y133624D01*
X163125Y147000D02*
X163125Y133624D01*
X159187Y150937D02*
X158312Y150937D01*
X230000Y95187D02*
X230000Y96062D01*
X233937Y100000D02*
X246687Y100000D01*
X233937Y91250D02*
X246687Y91250D01*
X250625Y96062D02*
X250625Y95187D01*
X283250Y57500D02*
X282374Y57500D01*
X278437Y74812D02*
X278437Y61437D01*
X287187Y74812D02*
X287187Y61437D01*
X282374Y78750D02*
X283250Y78750D01*
X282687Y80625D02*
X283562Y80625D01*
X278750Y84562D02*
X278750Y97937D01*
X287500Y97937D02*
X287500Y84562D01*
X282687Y101875D02*
X283562Y101875D01*
X172500Y157625D02*
X172500Y156749D01*
X176437Y161562D02*
X188562Y161562D01*
X176437Y152812D02*
X188562Y152812D01*
X192500Y157625D02*
X192500Y156749D01*
X175812Y142500D02*
X174793Y142365D01*
X173843Y141972D01*
X173028Y141346D01*
X172402Y140531D01*
X172009Y139581D01*
X171875Y138562D01*
X193125Y138562D02*
X192990Y139581D01*
X192597Y140531D01*
X191971Y141346D01*
X191156Y141972D01*
X190206Y142365D01*
X189187Y142500D01*
X189187Y133750D02*
X190206Y133884D01*
X191156Y134277D01*
X191971Y134903D01*
X192597Y135718D01*
X192990Y136668D01*
X193125Y137687D01*
X171875Y137687D02*
X172009Y136668D01*
X172402Y135718D01*
X173028Y134903D01*
X173843Y134277D01*
X174793Y133884D01*
X175812Y133750D01*
X193125Y124187D02*
X192990Y125206D01*
X192597Y126156D01*
X191971Y126971D01*
X191156Y127597D01*
X190206Y127990D01*
X189187Y128125D01*
X189187Y119375D02*
X190206Y119509D01*
X191156Y119902D01*
X191971Y120528D01*
X192597Y121343D01*
X192990Y122293D01*
X193125Y123312D01*
X171875Y123312D02*
X172009Y122293D01*
X172402Y121343D01*
X173028Y120528D01*
X173843Y119902D01*
X174793Y119509D01*
X175812Y119375D01*
X175812Y128125D02*
X174793Y127990D01*
X173843Y127597D01*
X173028Y126971D01*
X172402Y126156D01*
X172009Y125206D01*
X171875Y124187D01*
X163125Y147000D02*
X162990Y148019D01*
X162597Y148968D01*
X161971Y149784D01*
X161156Y150410D01*
X160206Y150803D01*
X159187Y150937D01*
X158312Y150937D02*
X157293Y150803D01*
X156343Y150410D01*
X155528Y149784D01*
X154902Y148968D01*
X154509Y148019D01*
X154375Y147000D01*
X154375Y133624D02*
X154509Y132605D01*
X154902Y131656D01*
X155528Y130840D01*
X156343Y130214D01*
X157293Y129821D01*
X158312Y129687D01*
X159187Y129687D02*
X160206Y129821D01*
X161156Y130214D01*
X161971Y130840D01*
X162597Y131656D01*
X162990Y132605D01*
X163125Y133624D01*
X176437Y161562D02*
X175418Y161428D01*
X174468Y161035D01*
X173653Y160409D01*
X173027Y159593D01*
X172634Y158644D01*
X172500Y157625D01*
X192500Y157625D02*
X192365Y158644D01*
X191972Y159593D01*
X191346Y160409D01*
X190531Y161035D01*
X189581Y161428D01*
X188562Y161562D01*
X172500Y156749D02*
X172634Y155730D01*
X173027Y154781D01*
X173653Y153965D01*
X174468Y153339D01*
X175418Y152946D01*
X176437Y152812D01*
X188562Y152812D02*
X189581Y152946D01*
X190531Y153339D01*
X191346Y153965D01*
X191972Y154781D01*
X192365Y155730D01*
X192500Y156749D01*
X230000Y95187D02*
X230134Y94168D01*
X230527Y93218D01*
X231153Y92403D01*
X231968Y91777D01*
X232918Y91384D01*
X233937Y91250D01*
X233937Y100000D02*
X232918Y99865D01*
X231968Y99472D01*
X231153Y98846D01*
X230527Y98031D01*
X230134Y97081D01*
X230000Y96062D01*
X250625Y96062D02*
X250490Y97081D01*
X250097Y98031D01*
X249471Y98846D01*
X248656Y99472D01*
X247706Y99865D01*
X246687Y100000D01*
X246687Y91250D02*
X247706Y91384D01*
X248656Y91777D01*
X249471Y92403D01*
X250097Y93218D01*
X250490Y94168D01*
X250625Y95187D01*
X282374Y78750D02*
X281355Y78615D01*
X280406Y78222D01*
X279590Y77596D01*
X278964Y76781D01*
X278571Y75831D01*
X278437Y74812D01*
X287187Y74812D02*
X287053Y75831D01*
X286660Y76781D01*
X286034Y77596D01*
X285218Y78222D01*
X284269Y78615D01*
X283250Y78750D01*
X283250Y57500D02*
X284269Y57634D01*
X285218Y58027D01*
X286034Y58653D01*
X286660Y59468D01*
X287053Y60418D01*
X287187Y61437D01*
X278437Y61437D02*
X278571Y60418D01*
X278964Y59468D01*
X279590Y58653D01*
X280406Y58027D01*
X281355Y57634D01*
X282374Y57500D01*
X278750Y84562D02*
X278884Y83543D01*
X279277Y82593D01*
X279903Y81778D01*
X280718Y81152D01*
X281668Y80759D01*
X282687Y80625D01*
X282687Y101875D02*
X281668Y101740D01*
X280718Y101347D01*
X279903Y100721D01*
X279277Y99906D01*
X278884Y98956D01*
X278750Y97937D01*
X287500Y97937D02*
X287365Y98956D01*
X286972Y99906D01*
X286346Y100721D01*
X285531Y101347D01*
X284581Y101740D01*
X283562Y101875D01*
X283562Y80625D02*
X284581Y80759D01*
X285531Y81152D01*
X286346Y81778D01*
X286972Y82593D01*
X287365Y83543D01*
X287500Y84562D01*
X293750Y80937D02*
X293750Y43437D01*
X331875Y72812D02*
X323750Y80937D01*
X331875Y72812D02*
X331875Y43437D01*
X293750Y43437D01*
X293750Y80937D02*
X323750Y80937D01*
X294611Y149138D02*
X294611Y159611D01*
X264138Y159611D02*
X264138Y149138D01*
X294611Y149138D01*
G54D19*
X65000Y120625D03*
X211875Y146250D03*
X21264Y145137D03*
M02*
