M48
METRIC
T1F00S00C0.600
T2F00S00C0.700
T3F00S00C0.800
T4F00S00C0.900
T5F00S00C0.950
T6F00S00C1.000
T7F00S00C1.200
T8F00S00C1.250
T9F00S00C1.500
T10F00S00C3.000
%
M71
G05
T1
X40.3742Y31.5701
X40.3742Y30.0701
X3.5363Y41.5925
X5.0363Y41.5925
X9.9575Y41.5925
X8.4575Y41.5925
T2
X38.4175Y42.5450
X38.4175Y40.6400
X38.4175Y38.7350
T3
X51.2570Y37.2870
X51.2570Y34.7470
X51.2570Y32.2070
X51.2570Y29.6670
X58.8770Y29.6670
X58.8770Y32.2070
X58.8770Y34.7470
X58.8770Y37.2870
X47.6250Y35.0838
X45.0850Y35.0838
X47.6250Y39.9256
X45.0850Y39.9256
X47.6250Y31.4325
X45.0850Y31.4325
X40.2953Y34.3134
X40.2953Y36.8534
X24.0506Y39.2113
X34.2106Y39.2113
X16.5100Y28.0988
X19.0500Y28.0988
X21.5900Y28.0988
X24.1300Y28.0988
X26.6700Y28.0988
X29.2100Y28.0988
X31.7500Y28.0988
X34.2900Y28.0988
X34.2900Y35.7188
X31.7500Y35.7188
X29.2100Y35.7188
X26.6700Y35.7188
X24.1300Y35.7188
X21.5900Y35.7188
X19.0500Y35.7188
X16.5100Y35.7188
X18.8913Y39.2113
X21.4313Y39.2113
X47.6250Y9.0488
X47.6250Y19.2088
X41.2750Y9.0488
X41.2750Y19.2088
X34.9250Y9.0488
X34.9250Y19.2088
X28.5750Y9.0488
X28.5750Y19.2088
X24.7650Y9.0488
X24.7650Y19.2088
X18.4150Y9.0488
X18.4150Y19.2088
X12.0650Y9.0488
X12.0650Y19.2088
X5.7150Y9.0488
X5.7150Y19.2088
X50.8000Y19.2088
X50.8000Y16.6688
X44.4500Y19.2088
X44.4500Y16.6688
X38.1000Y19.2088
X38.1000Y16.6688
X31.7500Y19.2088
X31.7500Y16.6688
X21.5900Y19.2088
X21.5900Y16.6688
X15.2400Y19.2088
X15.2400Y16.6688
X8.8900Y19.2088
X8.8900Y16.6688
X2.5400Y19.2088
X2.5400Y16.6688
X71.7550Y9.9219
X71.7550Y12.4619
X67.7069Y24.2888
X65.1669Y24.2888
X59.8488Y24.2888
X62.3888Y24.2888
X71.8344Y18.5738
X71.8344Y16.0338
X71.9138Y21.9075
X71.9138Y24.4475
X60.2063Y6.3500
X65.2063Y6.3500
X9.2075Y22.7013
X11.7475Y22.7013
X14.2875Y22.7013
X16.8275Y22.7013
X19.3675Y22.7013
X21.9075Y22.7013
X4.1275Y22.7013
X6.6675Y22.7013
X33.9725Y22.7013
X36.5125Y22.7013
X39.0525Y22.7013
X41.5925Y22.7013
X44.1325Y22.7013
X46.6725Y22.7013
X28.8925Y22.7013
X31.4325Y22.7013
X3.0163Y36.9888
X3.0163Y34.4488
X3.0163Y31.9088
X3.0163Y29.3688
X10.6363Y29.3688
X10.6363Y31.9088
X10.6363Y34.4488
X10.6363Y36.9888
X16.1925Y39.2113
X13.6525Y39.2113
X64.5319Y53.0225
X61.9919Y53.0225
T4
X73.3025Y31.7500
X68.3025Y31.7500
T5
X73.3513Y41.3200
X68.5713Y41.3200
T6
X69.4531Y48.1806
X66.9131Y48.1806
X11.4300Y3.3338
X8.8900Y3.3338
X17.7800Y3.3338
X15.2400Y3.3338
X24.1300Y3.3338
X21.5900Y3.3338
X30.4800Y3.3338
X27.9400Y3.3338
X36.8300Y3.3338
X34.2900Y3.3338
X43.1800Y3.3338
X40.6400Y3.3338
X49.5300Y3.3338
X46.9900Y3.3338
X55.8800Y3.3338
X53.3400Y3.3338
X81.8356Y32.6231
X81.8356Y30.0831
X81.8356Y27.5431
X81.8356Y25.0031
X74.2156Y48.1806
X76.7556Y48.1806
X81.8356Y41.4338
X81.8356Y38.8938
X81.8356Y36.3538
X76.7556Y3.1750
X74.2156Y3.1750
X71.6756Y3.1750
X69.1356Y3.1750
X15.7163Y53.0225
X18.2563Y53.0225
X20.7963Y53.0225
X23.3363Y53.0225
X48.8156Y53.0225
X51.3556Y53.0225
X53.8956Y53.0225
X56.4356Y53.0225
X8.2550Y46.1169
X8.2550Y48.6569
X10.7950Y46.1169
X10.7950Y48.6569
X13.3350Y46.1169
X13.3350Y48.6569
X15.8750Y46.1169
X15.8750Y48.6569
X18.4150Y46.1169
X18.4150Y48.6569
X20.9550Y46.1169
X20.9550Y48.6569
X23.4950Y46.1169
X23.4950Y48.6569
X26.0350Y46.1169
X26.0350Y48.6569
X28.5750Y46.1169
X28.5750Y48.6569
X31.1150Y46.1169
X31.1150Y48.6569
X33.6550Y46.1169
X33.6550Y48.6569
X36.1950Y46.1169
X36.1950Y48.6569
X38.7350Y46.1169
X38.7350Y48.6569
X41.2750Y46.1169
X41.2750Y48.6569
X43.8150Y46.1169
X43.8150Y48.6569
X46.3550Y46.1169
X46.3550Y48.6569
X48.8950Y46.1169
X48.8950Y48.6569
X51.4350Y46.1169
X51.4350Y48.6569
X53.9750Y46.1169
X53.9750Y48.6569
X56.5150Y46.1169
X56.5150Y48.6569
X51.0381Y24.6063
X71.7550Y53.0225
X59.2138Y53.0225
T7
X60.6544Y19.9894
X64.6544Y18.2894
X60.6544Y16.5894
X64.6544Y14.8894
X60.6544Y13.1894
T8
X70.9613Y41.3200
T9
X62.9773Y31.7829
X62.9773Y47.0229
X55.9458Y9.3526
X55.9458Y24.5926
T10
X3.2000Y3.9938
X3.2000Y47.3938
X81.8000Y47.3938
X81.8000Y3.9938
M17
M30
