%FSLAX35Y35*%
%MOIN*%
%IN23=Platinen-Umriss(X.GKO)*%
%ADD10C,0.00591*%
%ADD11C,0.00354*%
%ADD12C,0.00394*%
%ADD13C,0.00409*%
%ADD14C,0.00827*%
%ADD15C,0.01000*%
%ADD16C,0.01181*%
%ADD17C,0.01575*%
%ADD18C,0.01969*%
%ADD19C,0.03937*%
%ADD20C,0.05906*%
%ADD21C,0.07087*%
%ADD22C,0.07874*%
%ADD23C,0.21323*%
%AMR_24*21,1,0.01575,0.01575,0,0,0.000*%
%ADD24R_24*%
%AMR_25*21,1,0.01772,0.01772,0,0,0.000*%
%ADD25R_25*%
%AMR_26*21,1,0.02165,0.02165,0,0,0.000*%
%ADD26R_26*%
%AMR_27*21,1,0.02362,0.02362,0,0,0.000*%
%ADD27R_27*%
%AMR_28*21,1,0.02500,0.02500,0,0,0.000*%
%ADD28R_28*%
%AMR_29*21,1,0.03150,0.03150,0,0,0.000*%
%ADD29R_29*%
%AMR_30*21,1,0.03543,0.03543,0,0,0.000*%
%ADD30R_30*%
%AMR_31*21,1,0.03937,0.03937,0,0,0.000*%
%ADD31R_31*%
%AMR_32*21,1,0.05000,0.09843,0,0,0.000*%
%ADD32R_32*%
%AMR_33*21,1,0.05000,0.10000,0,0,270.000*%
%ADD33R_33*%
%AMR_34*21,1,0.05331,0.05331,0,0,0.000*%
%ADD34R_34*%
%AMR_35*21,1,0.06299,0.06299,0,0,0.000*%
%ADD35R_35*%
%AMR_36*21,1,0.06299,0.06299,0,0,180.000*%
%ADD36R_36*%
%AMR_37*21,1,0.06299,0.06299,0,0,270.000*%
%ADD37R_37*%
%AMR_38*21,1,0.19685,0.19685,0,0,0.000*%
%ADD38R_38*%
%AMOCT_39*4,1,8,0.021654,0.024606,0.010827,0.035433,-0.010827,0.035433,-0.021654,0.024606,-0.021654,-0.024606,-0.010827,-0.035433,0.010827,-0.035433,0.021654,-0.024606,0.021654,0.024606,270.000*%
%ADD39OCT_39*%
%AMOCT_40*4,1,8,0.023622,0.023622,0.011811,0.035433,-0.011811,0.035433,-0.023622,0.023622,-0.023622,-0.023622,-0.011811,-0.035433,0.011811,-0.035433,0.023622,-0.023622,0.023622,0.023622,0.000*%
%ADD40OCT_40*%
%AMOCT_41*4,1,8,0.023622,0.023622,0.011811,0.035433,-0.011811,0.035433,-0.023622,0.023622,-0.023622,-0.023622,-0.011811,-0.035433,0.011811,-0.035433,0.023622,-0.023622,0.023622,0.023622,180.000*%
%ADD41OCT_41*%
%AMOCT_42*4,1,8,0.023622,0.023622,0.011811,0.035433,-0.011811,0.035433,-0.023622,0.023622,-0.023622,-0.023622,-0.011811,-0.035433,0.011811,-0.035433,0.023622,-0.023622,0.023622,0.023622,270.000*%
%ADD42OCT_42*%
%AMOCT_43*4,1,8,0.031496,0.015748,0.015748,0.031496,-0.015748,0.031496,-0.031496,0.015748,-0.031496,-0.015748,-0.015748,-0.031496,0.015748,-0.031496,0.031496,-0.015748,0.031496,0.015748,0.000*%
%ADD43OCT_43*%
%AMOCT_44*4,1,8,0.031496,0.015748,0.015748,0.031496,-0.015748,0.031496,-0.031496,0.015748,-0.031496,-0.015748,-0.015748,-0.031496,0.015748,-0.031496,0.031496,-0.015748,0.031496,0.015748,180.000*%
%ADD44OCT_44*%
%AMOCT_45*4,1,8,0.031496,0.015748,0.015748,0.031496,-0.015748,0.031496,-0.031496,0.015748,-0.031496,-0.015748,-0.015748,-0.031496,0.015748,-0.031496,0.031496,-0.015748,0.031496,0.015748,270.000*%
%ADD45OCT_45*%
%AMOCT_46*4,1,8,0.035433,0.017717,0.017717,0.035433,-0.017717,0.035433,-0.035433,0.017717,-0.035433,-0.017717,-0.017717,-0.035433,0.017717,-0.035433,0.035433,-0.017717,0.035433,0.017717,0.000*%
%ADD46OCT_46*%
%AMOCT_47*4,1,8,0.035433,0.017717,0.017717,0.035433,-0.017717,0.035433,-0.035433,0.017717,-0.035433,-0.017717,-0.017717,-0.035433,0.017717,-0.035433,0.035433,-0.017717,0.035433,0.017717,90.000*%
%ADD47OCT_47*%
%AMOCT_48*4,1,8,0.035433,0.017717,0.017717,0.035433,-0.017717,0.035433,-0.035433,0.017717,-0.035433,-0.017717,-0.017717,-0.035433,0.017717,-0.035433,0.035433,-0.017717,0.035433,0.017717,180.000*%
%ADD48OCT_48*%
%AMOCT_49*4,1,8,0.035433,0.017717,0.017717,0.035433,-0.017717,0.035433,-0.035433,0.017717,-0.035433,-0.017717,-0.017717,-0.035433,0.017717,-0.035433,0.035433,-0.017717,0.035433,0.017717,270.000*%
%ADD49OCT_49*%
%AMOCT_50*4,1,8,0.037402,0.018701,0.018701,0.037402,-0.018701,0.037402,-0.037402,0.018701,-0.037402,-0.018701,-0.018701,-0.037402,0.018701,-0.037402,0.037402,-0.018701,0.037402,0.018701,180.000*%
%ADD50OCT_50*%
%AMOCT_51*4,1,8,0.039370,0.019685,0.019685,0.039370,-0.019685,0.039370,-0.039370,0.019685,-0.039370,-0.019685,-0.019685,-0.039370,0.019685,-0.039370,0.039370,-0.019685,0.039370,0.019685,0.000*%
%ADD51OCT_51*%
%AMOCT_52*4,1,8,0.043307,0.021654,0.021654,0.043307,-0.021654,0.043307,-0.043307,0.021654,-0.043307,-0.021654,-0.021654,-0.043307,0.021654,-0.043307,0.043307,-0.021654,0.043307,0.021654,180.000*%
%ADD52OCT_52*%
%AMOCT_53*4,1,8,0.043307,0.021654,0.021654,0.043307,-0.021654,0.043307,-0.043307,0.021654,-0.043307,-0.021654,-0.021654,-0.043307,0.021654,-0.043307,0.043307,-0.021654,0.043307,0.021654,270.000*%
%ADD53OCT_53*%
%AMOCT_54*4,1,8,0.049213,0.024606,0.024606,0.049213,-0.024606,0.049213,-0.049213,0.024606,-0.049213,-0.024606,-0.024606,-0.049213,0.024606,-0.049213,0.049213,-0.024606,0.049213,0.024606,90.000*%
%ADD54OCT_54*%
%AMO_55*20,1,0.05000,0.00000,-0.02421,0.00000,0.02421,0*1,1,0.05000,0.00000,-0.02421*1,1,0.05000,0.00000,0.02421*%
%ADD55O_55*%
%AMO_56*20,1,0.05000,-0.02500,0.00000,0.02500,0.00000,0*1,1,0.05000,-0.02500,0.00000*1,1,0.05000,0.02500,0.00000*%
%ADD56O_56*%
%AMRR_57*21,1,0.06299,0.05039,0,0,0.000*21,1,0.05039,0.06299,0,0,0.000*1,1,0.01260,0.02520,0.02520*1,1,0.01260,-0.02520,-0.02520*1,1,0.01260,0.02520,-0.02520*1,1,0.01260,-0.02520,0.02520*%
%ADD57RR_57*%
%AMRR_58*21,1,0.15748,0.05315,0,0,270.000*21,1,0.13976,0.07087,0,0,270.000*1,1,0.01772,0.02657,-0.06988*1,1,0.01772,-0.02657,0.06988*1,1,0.01772,-0.02657,-0.06988*1,1,0.01772,0.02657,0.06988*%
%ADD58RR_58*%
G54D15*
X322834Y0D02*
X11811Y0D01*
X334645Y11811D02*
X334645Y192376D01*
X322834Y204187D02*
X297155Y204187D01*
X0Y11811D02*
X0Y192376D01*
X322834Y0D02*
X324682Y145D01*
X326484Y578D01*
X328196Y1287D01*
X329776Y2255D01*
X331186Y3459D01*
X332389Y4868D01*
X333358Y6448D01*
X334067Y8161D01*
X334500Y9963D01*
X334645Y11811D01*
X334645Y192376D02*
X334500Y194224D01*
X334067Y196026D01*
X333358Y197739D01*
X332389Y199319D01*
X331186Y200728D01*
X329776Y201932D01*
X328196Y202900D01*
X326484Y203609D01*
X324682Y204042D01*
X322834Y204187D01*
X0Y11811D02*
X145Y9963D01*
X578Y8161D01*
X1287Y6448D01*
X2255Y4868D01*
X3459Y3459D01*
X4868Y2255D01*
X6448Y1287D01*
X8161Y578D01*
X9963Y145D01*
X11811Y0D01*
X11811Y204187D02*
X9963Y204042D01*
X8161Y203609D01*
X6448Y202900D01*
X4868Y201932D01*
X3459Y200728D01*
X2255Y199319D01*
X1287Y197739D01*
X578Y196026D01*
X145Y194224D01*
X0Y192376D01*
X43437Y211906D02*
X43437Y210093D01*
X285344Y217812D02*
X49343Y217812D01*
X291250Y211906D02*
X291250Y210093D01*
X11811Y204187D02*
X37531Y204187D01*
X291250Y211906D02*
X291136Y213059D01*
X290800Y214166D01*
X290254Y215187D01*
X289520Y216082D01*
X288625Y216817D01*
X287604Y217362D01*
X286496Y217699D01*
X285344Y217812D01*
X291250Y210093D02*
X291363Y208941D01*
X291699Y207833D01*
X292245Y206812D01*
X292979Y205917D01*
X293874Y205183D01*
X294895Y204637D01*
X296003Y204301D01*
X297155Y204187D01*
X49343Y217812D02*
X48190Y217699D01*
X47083Y217362D01*
X46062Y216817D01*
X45167Y216082D01*
X44432Y215187D01*
X43887Y214166D01*
X43550Y213059D01*
X43437Y211906D01*
X37531Y204187D02*
X38684Y204301D01*
X39791Y204637D01*
X40812Y205183D01*
X41707Y205917D01*
X42442Y206812D01*
X42987Y207833D01*
X43324Y208941D01*
X43437Y210093D01*
M02*
