%FSLAX35Y35*%
%MOIN*%
%IN7=Bestueckungsdruckunten(X.GBO)*%
%ADD10C,0.00591*%
%ADD11C,0.00354*%
%ADD12C,0.00394*%
%ADD13C,0.00409*%
%ADD14C,0.00827*%
%ADD15C,0.01000*%
%ADD16C,0.01181*%
%ADD17C,0.01575*%
%ADD18C,0.01969*%
%ADD19C,0.03937*%
%ADD20C,0.05906*%
%ADD21C,0.07087*%
%ADD22C,0.07874*%
%ADD23C,0.21323*%
%AMR_24*21,1,0.01575,0.01575,0,0,0.000*%
%ADD24R_24*%
%AMR_25*21,1,0.01772,0.01772,0,0,0.000*%
%ADD25R_25*%
%AMR_26*21,1,0.02165,0.02165,0,0,0.000*%
%ADD26R_26*%
%AMR_27*21,1,0.02362,0.02362,0,0,0.000*%
%ADD27R_27*%
%AMR_28*21,1,0.02500,0.02500,0,0,0.000*%
%ADD28R_28*%
%AMR_29*21,1,0.03150,0.03150,0,0,0.000*%
%ADD29R_29*%
%AMR_30*21,1,0.03543,0.03543,0,0,0.000*%
%ADD30R_30*%
%AMR_31*21,1,0.03937,0.03937,0,0,0.000*%
%ADD31R_31*%
%AMR_32*21,1,0.05000,0.09843,0,0,0.000*%
%ADD32R_32*%
%AMR_33*21,1,0.05000,0.10000,0,0,270.000*%
%ADD33R_33*%
%AMR_34*21,1,0.05331,0.05331,0,0,0.000*%
%ADD34R_34*%
%AMR_35*21,1,0.06299,0.06299,0,0,0.000*%
%ADD35R_35*%
%AMR_36*21,1,0.06299,0.06299,0,0,180.000*%
%ADD36R_36*%
%AMR_37*21,1,0.06299,0.06299,0,0,270.000*%
%ADD37R_37*%
%AMR_38*21,1,0.19685,0.19685,0,0,0.000*%
%ADD38R_38*%
%AMOCT_39*4,1,8,0.021654,0.024606,0.010827,0.035433,-0.010827,0.035433,-0.021654,0.024606,-0.021654,-0.024606,-0.010827,-0.035433,0.010827,-0.035433,0.021654,-0.024606,0.021654,0.024606,270.000*%
%ADD39OCT_39*%
%AMOCT_40*4,1,8,0.023622,0.023622,0.011811,0.035433,-0.011811,0.035433,-0.023622,0.023622,-0.023622,-0.023622,-0.011811,-0.035433,0.011811,-0.035433,0.023622,-0.023622,0.023622,0.023622,0.000*%
%ADD40OCT_40*%
%AMOCT_41*4,1,8,0.023622,0.023622,0.011811,0.035433,-0.011811,0.035433,-0.023622,0.023622,-0.023622,-0.023622,-0.011811,-0.035433,0.011811,-0.035433,0.023622,-0.023622,0.023622,0.023622,180.000*%
%ADD41OCT_41*%
%AMOCT_42*4,1,8,0.023622,0.023622,0.011811,0.035433,-0.011811,0.035433,-0.023622,0.023622,-0.023622,-0.023622,-0.011811,-0.035433,0.011811,-0.035433,0.023622,-0.023622,0.023622,0.023622,270.000*%
%ADD42OCT_42*%
%AMOCT_43*4,1,8,0.031496,0.015748,0.015748,0.031496,-0.015748,0.031496,-0.031496,0.015748,-0.031496,-0.015748,-0.015748,-0.031496,0.015748,-0.031496,0.031496,-0.015748,0.031496,0.015748,0.000*%
%ADD43OCT_43*%
%AMOCT_44*4,1,8,0.031496,0.015748,0.015748,0.031496,-0.015748,0.031496,-0.031496,0.015748,-0.031496,-0.015748,-0.015748,-0.031496,0.015748,-0.031496,0.031496,-0.015748,0.031496,0.015748,180.000*%
%ADD44OCT_44*%
%AMOCT_45*4,1,8,0.031496,0.015748,0.015748,0.031496,-0.015748,0.031496,-0.031496,0.015748,-0.031496,-0.015748,-0.015748,-0.031496,0.015748,-0.031496,0.031496,-0.015748,0.031496,0.015748,270.000*%
%ADD45OCT_45*%
%AMOCT_46*4,1,8,0.035433,0.017717,0.017717,0.035433,-0.017717,0.035433,-0.035433,0.017717,-0.035433,-0.017717,-0.017717,-0.035433,0.017717,-0.035433,0.035433,-0.017717,0.035433,0.017717,0.000*%
%ADD46OCT_46*%
%AMOCT_47*4,1,8,0.035433,0.017717,0.017717,0.035433,-0.017717,0.035433,-0.035433,0.017717,-0.035433,-0.017717,-0.017717,-0.035433,0.017717,-0.035433,0.035433,-0.017717,0.035433,0.017717,90.000*%
%ADD47OCT_47*%
%AMOCT_48*4,1,8,0.035433,0.017717,0.017717,0.035433,-0.017717,0.035433,-0.035433,0.017717,-0.035433,-0.017717,-0.017717,-0.035433,0.017717,-0.035433,0.035433,-0.017717,0.035433,0.017717,180.000*%
%ADD48OCT_48*%
%AMOCT_49*4,1,8,0.035433,0.017717,0.017717,0.035433,-0.017717,0.035433,-0.035433,0.017717,-0.035433,-0.017717,-0.017717,-0.035433,0.017717,-0.035433,0.035433,-0.017717,0.035433,0.017717,270.000*%
%ADD49OCT_49*%
%AMOCT_50*4,1,8,0.037402,0.018701,0.018701,0.037402,-0.018701,0.037402,-0.037402,0.018701,-0.037402,-0.018701,-0.018701,-0.037402,0.018701,-0.037402,0.037402,-0.018701,0.037402,0.018701,180.000*%
%ADD50OCT_50*%
%AMOCT_51*4,1,8,0.039370,0.019685,0.019685,0.039370,-0.019685,0.039370,-0.039370,0.019685,-0.039370,-0.019685,-0.019685,-0.039370,0.019685,-0.039370,0.039370,-0.019685,0.039370,0.019685,0.000*%
%ADD51OCT_51*%
%AMOCT_52*4,1,8,0.043307,0.021654,0.021654,0.043307,-0.021654,0.043307,-0.043307,0.021654,-0.043307,-0.021654,-0.021654,-0.043307,0.021654,-0.043307,0.043307,-0.021654,0.043307,0.021654,180.000*%
%ADD52OCT_52*%
%AMOCT_53*4,1,8,0.043307,0.021654,0.021654,0.043307,-0.021654,0.043307,-0.043307,0.021654,-0.043307,-0.021654,-0.021654,-0.043307,0.021654,-0.043307,0.043307,-0.021654,0.043307,0.021654,270.000*%
%ADD53OCT_53*%
%AMOCT_54*4,1,8,0.049213,0.024606,0.024606,0.049213,-0.024606,0.049213,-0.049213,0.024606,-0.049213,-0.024606,-0.024606,-0.049213,0.024606,-0.049213,0.049213,-0.024606,0.049213,0.024606,90.000*%
%ADD54OCT_54*%
%AMO_55*20,1,0.05000,0.00000,-0.02421,0.00000,0.02421,0*1,1,0.05000,0.00000,-0.02421*1,1,0.05000,0.00000,0.02421*%
%ADD55O_55*%
%AMO_56*20,1,0.05000,-0.02500,0.00000,0.02500,0.00000,0*1,1,0.05000,-0.02500,0.00000*1,1,0.05000,0.02500,0.00000*%
%ADD56O_56*%
%AMRR_57*21,1,0.06299,0.05039,0,0,0.000*21,1,0.05039,0.06299,0,0,0.000*1,1,0.01260,0.02520,0.02520*1,1,0.01260,-0.02520,-0.02520*1,1,0.01260,0.02520,-0.02520*1,1,0.01260,-0.02520,0.02520*%
%ADD57RR_57*%
%AMRR_58*21,1,0.15748,0.05315,0,0,270.000*21,1,0.13976,0.07087,0,0,270.000*1,1,0.01772,0.02657,-0.06988*1,1,0.01772,-0.02657,0.06988*1,1,0.01772,-0.02657,-0.06988*1,1,0.01772,0.02657,0.06988*%
%ADD58RR_58*%
G54D12*
X120011Y62724D02*
X120790Y62577D01*
X121406Y62235D01*
X120015Y62547D02*
X120724Y62412D01*
X121303Y62090D01*
X111461Y63432D02*
X111962Y63561D01*
X112399Y63465D01*
X112837Y63118D01*
X113182Y62650D01*
X113517Y62007D01*
X113838Y61190D01*
X109791Y64445D02*
X110005Y65090D01*
X110251Y65550D01*
X110455Y65792D01*
X110656Y65943D01*
X110874Y66022D01*
X111080Y66021D01*
X111279Y65951D01*
X111486Y65793D01*
X111661Y65559D01*
X111785Y65262D01*
X111841Y64919D01*
X111805Y64497D01*
X111645Y64054D01*
X111341Y63595D01*
X111265Y65366D02*
X110883Y64516D01*
X110696Y63721D01*
X110620Y62984D01*
X110582Y62442D01*
X110520Y61933D01*
X110377Y61483D01*
X110212Y61227D01*
X110136Y61148D01*
X110115Y61131D01*
X110102Y61124D01*
X110090Y61121D01*
X110060Y61121D01*
X110010Y61129D01*
X109864Y61179D01*
X109680Y61271D01*
X109260Y61544D01*
X108836Y61876D01*
X108471Y62209D01*
X108149Y62586D01*
X107963Y62936D01*
X107919Y63262D01*
X108000Y63610D01*
X108217Y63973D01*
X108566Y64314D01*
X109072Y64635D01*
X109748Y64916D01*
X111419Y65277D02*
X111051Y64460D01*
X110871Y63694D01*
X110797Y62971D01*
X110758Y62427D01*
X110694Y61901D01*
X110536Y61405D01*
X110389Y61165D01*
X110220Y60988D01*
X110153Y60954D01*
X110070Y60943D01*
X109970Y60956D01*
X109594Y61116D01*
X108934Y61568D01*
X108346Y62084D01*
X108003Y62484D01*
X107795Y62879D01*
X107742Y63273D01*
X107836Y63677D01*
X108079Y64083D01*
X108483Y64474D01*
X109061Y64828D01*
X109828Y65128D01*
X110141Y65700D01*
X110489Y66048D01*
X110742Y66172D01*
X110993Y66208D01*
X111234Y66164D01*
X111483Y66031D01*
X111698Y65821D01*
X111977Y65224D01*
X112000Y64580D01*
X111757Y63889D01*
X111863Y63731D02*
X112285Y63699D01*
X112602Y63554D01*
X112906Y63303D01*
X113294Y62806D01*
X113660Y62120D01*
X114005Y61248D01*
X111372Y62097D02*
X111624Y62309D01*
X111867Y62437D01*
X112098Y62490D01*
X112312Y62479D01*
X112668Y62329D01*
X112924Y62116D01*
X113039Y61997D01*
X113136Y61882D01*
X113262Y61661D01*
X113380Y61300D01*
X113420Y60799D01*
X113316Y60159D01*
X111524Y61998D02*
X111747Y62178D01*
X111948Y62278D01*
X112129Y62314D01*
X112293Y62302D01*
X112580Y62175D01*
X112805Y61985D01*
X112954Y61828D01*
X113103Y61582D01*
X113207Y61259D01*
X113243Y60802D01*
X113146Y60207D01*
X114294Y60403D02*
X114724Y60490D01*
X115067Y60680D01*
X115180Y60835D01*
X115240Y61027D01*
X115268Y61115D01*
X115329Y61200D01*
X115412Y61258D01*
X115553Y61301D01*
X115690Y61293D01*
X115992Y61167D01*
X116242Y60970D01*
X116435Y60724D01*
X116635Y60310D01*
X116777Y59880D01*
X116944Y58999D01*
X116981Y58106D01*
X116920Y57217D01*
X116776Y56714D01*
X116481Y56274D01*
X116074Y55938D01*
X115592Y55744D01*
X114973Y55706D01*
X114350Y55829D01*
X113759Y56059D01*
X113220Y56359D01*
X112733Y56720D01*
X112194Y57250D01*
X111762Y57881D01*
X111495Y58596D01*
X111322Y59323D01*
X114333Y60231D02*
X114770Y60319D01*
X115192Y60555D01*
X115320Y60721D01*
X115397Y60917D01*
X115415Y60998D01*
X115433Y61048D01*
X115457Y61076D01*
X115494Y61101D01*
X115571Y61125D01*
X115655Y61119D01*
X115863Y61037D01*
X116051Y60906D01*
X116285Y60630D01*
X116470Y60246D01*
X116607Y59833D01*
X116768Y58980D01*
X116804Y58110D01*
X116745Y57240D01*
X116616Y56789D01*
X116350Y56393D01*
X115983Y56090D01*
X115552Y55917D01*
X114842Y55899D01*
X114113Y56099D01*
X113441Y56430D01*
X112848Y56855D01*
X112328Y57366D01*
X111921Y57960D01*
X111665Y58644D01*
X111495Y59360D01*
X100982Y51038D02*
X100476Y50228D01*
X100004Y49696D01*
X99713Y49480D01*
X99443Y49365D01*
X99194Y49348D01*
X98970Y49431D01*
X98778Y49602D01*
X98604Y49850D01*
X98341Y50358D01*
X98039Y51028D01*
X100826Y51122D02*
X100333Y50333D01*
X99886Y49828D01*
X99686Y49672D01*
X99506Y49573D01*
X99349Y49526D01*
X99218Y49523D01*
X99102Y49559D01*
X98989Y49638D01*
X98874Y49765D01*
X98756Y49941D01*
X98502Y50432D01*
X98201Y51100D01*
X97891Y51852D02*
X97575Y52463D01*
X97213Y53355D01*
X96843Y54480D01*
X96449Y56038D01*
X96161Y57767D01*
X96056Y59141D01*
X96140Y60523D01*
X96496Y61847D01*
X96931Y62764D01*
X97498Y63589D01*
X98182Y64295D01*
X98972Y64857D01*
X99917Y65269D01*
X100948Y65458D01*
X102001Y65443D01*
X102993Y65287D01*
X103895Y65017D01*
X104955Y64499D01*
X105847Y63824D01*
X106566Y63018D01*
X107107Y62104D01*
X107467Y61111D01*
X98042Y51946D02*
X97819Y52359D01*
X97561Y52944D01*
X97287Y53675D01*
X97013Y54530D01*
X96622Y56074D01*
X96337Y57788D01*
X96234Y59145D01*
X96315Y60495D01*
X96661Y61784D01*
X97255Y62954D01*
X98065Y63947D01*
X99061Y64704D01*
X99969Y65100D01*
X100960Y65281D01*
X101985Y65266D01*
X102954Y65114D01*
X103833Y64851D01*
X104862Y64349D01*
X105727Y63694D01*
X106423Y62913D01*
X106947Y62029D01*
X107296Y61066D01*
X91751Y63558D02*
X92503Y63335D01*
X93016Y62997D01*
X93248Y62677D01*
X93348Y62315D01*
X93345Y61887D01*
X93290Y61307D01*
X93227Y60700D01*
X93163Y59945D01*
X93110Y59025D01*
X93081Y57922D01*
X93090Y56617D01*
X91719Y63384D02*
X92222Y63255D01*
X92611Y63081D01*
X92892Y62871D01*
X93088Y62600D01*
X93172Y62297D01*
X93168Y61900D01*
X93113Y61325D01*
X93051Y60717D01*
X92986Y59958D01*
X92933Y59033D01*
X92904Y57924D01*
X92913Y56613D01*
X113557Y50262D02*
X114003Y50413D01*
X114225Y50507D01*
X114422Y50640D01*
X114528Y50776D01*
X114581Y50954D01*
X114574Y51342D01*
X114441Y51724D01*
X105178Y46585D02*
X104752Y46962D01*
X104563Y47250D01*
X104906Y45261D02*
X104894Y45037D01*
X104852Y44958D01*
X104786Y44897D01*
X104706Y44863D01*
X104641Y44845D01*
X102456Y48237D02*
X102467Y47830D01*
X102451Y47745D01*
X102311Y47564D01*
X102114Y47444D01*
X101807Y47381D01*
X101365Y47337D01*
X96573Y51825D02*
X96548Y52220D01*
X96423Y52618D01*
X96255Y52146D01*
X96198Y52059D01*
X94776Y45061D02*
X94979Y44764D01*
X95557Y44267D01*
X95845Y43935D01*
X95979Y43621D01*
X95929Y43622D01*
X95794Y43625D01*
X94606Y45008D02*
X94903Y44589D01*
X95308Y44248D01*
X95602Y43968D01*
X95794Y43625D01*
X95764Y46296D02*
X95218Y45940D01*
X94810Y45621D01*
X99415Y46444D02*
X99217Y46095D01*
X99031Y45842D01*
X102335Y48605D02*
X102081Y48804D01*
X101874Y48946D01*
X102539Y45140D02*
X102028Y45364D01*
X101730Y45696D01*
X104665Y45035D02*
X104409Y45144D01*
X104182Y45172D01*
X104729Y45253D02*
X104731Y45113D01*
X104720Y45079D01*
X104699Y45053D01*
X104665Y45035D01*
X109325Y48405D02*
X109222Y48708D01*
X109193Y48965D01*
X113625Y50098D02*
X114013Y50229D01*
X114399Y50402D01*
X114635Y50614D01*
X114756Y50928D01*
X90415Y56643D02*
X90258Y57631D01*
X90120Y58445D01*
X89991Y59129D01*
X89860Y59724D01*
X89717Y60275D01*
X89531Y60882D01*
X89303Y61543D01*
X89086Y62109D01*
X88939Y62679D01*
X88946Y62911D01*
X89021Y63122D01*
X89169Y63297D01*
X89380Y63428D01*
X89752Y63534D01*
X90224Y63560D01*
X90798Y63503D01*
X90590Y56671D02*
X90433Y57660D01*
X90295Y58476D01*
X90165Y59164D01*
X90032Y59766D01*
X89887Y60324D01*
X89700Y60937D01*
X89469Y61604D01*
X89253Y62170D01*
X89116Y62696D01*
X89120Y62881D01*
X89175Y63034D01*
X89284Y63162D01*
X89453Y63267D01*
X89779Y63358D01*
X90219Y63383D01*
X90769Y63328D01*
X95604Y63360D02*
X95453Y63442D01*
X95350Y63564D01*
X95292Y63703D01*
X95271Y63917D01*
X95313Y64121D01*
X95389Y64260D01*
X95511Y64367D01*
X95657Y64420D01*
X95805Y64427D01*
X96230Y64289D01*
X96623Y64031D01*
X96957Y63707D01*
X97040Y63582D01*
X97079Y63419D01*
X95657Y63528D02*
X95566Y63578D01*
X95502Y63654D01*
X95463Y63749D01*
X95448Y63907D01*
X95479Y64059D01*
X95529Y64151D01*
X95600Y64214D01*
X95689Y64246D01*
X95791Y64250D01*
X96149Y64132D01*
X96513Y63892D01*
X96818Y63597D01*
X96887Y63492D01*
X96899Y63458D01*
X96902Y63430D01*
X101193Y57644D02*
X101610Y56913D01*
X101980Y56030D01*
X102247Y55072D01*
X102345Y54352D01*
X102328Y53666D01*
X102166Y53048D01*
X101832Y52533D01*
X101369Y52199D01*
X100742Y52011D01*
X99939Y51991D01*
X101046Y57545D02*
X101451Y56835D01*
X101813Y55971D01*
X102073Y55037D01*
X102168Y54341D01*
X102152Y53689D01*
X102003Y53117D01*
X101704Y52656D01*
X101291Y52358D01*
X100715Y52187D01*
X99953Y52168D01*
X106733Y54348D02*
X106746Y53798D01*
X106670Y53001D01*
X106467Y52042D01*
X106097Y51010D01*
X105643Y50161D01*
X105110Y49434D01*
X104674Y49013D01*
X104243Y48783D01*
X104005Y48764D01*
X103793Y48833D01*
X103615Y48956D01*
X103398Y49202D01*
X103232Y49507D01*
X103018Y50249D01*
X102920Y51098D01*
X102898Y51971D01*
X102925Y52788D01*
X102977Y53469D01*
X103033Y53936D01*
X106557Y54328D02*
X106573Y53965D01*
X106546Y53447D01*
X106460Y52813D01*
X106262Y51971D01*
X105935Y51082D01*
X105493Y50255D01*
X104977Y49550D01*
X104700Y49267D01*
X104435Y49063D01*
X104197Y48954D01*
X103950Y48957D01*
X103731Y49090D01*
X103545Y49302D01*
X103394Y49578D01*
X103176Y50376D01*
X103087Y51316D01*
X103081Y52271D01*
X103112Y52955D01*
X103160Y53520D01*
X103208Y53909D01*
X113714Y54753D02*
X114412Y54317D01*
X114933Y54084D01*
X115230Y54014D01*
X115440Y54015D01*
X115560Y54053D01*
X115640Y54110D01*
X115693Y54179D01*
X115723Y54251D01*
X115735Y54309D01*
X115728Y54349D01*
X115694Y54405D01*
X115580Y54515D01*
X115401Y54643D01*
X115023Y54857D01*
X114195Y55222D01*
X113613Y54607D02*
X114328Y54161D01*
X114877Y53916D01*
X115209Y53837D01*
X115469Y53840D01*
X115640Y53895D01*
X115765Y53985D01*
X115847Y54092D01*
X115893Y54200D01*
X115912Y54303D01*
X115894Y54412D01*
X115833Y54515D01*
X115469Y54810D01*
X114909Y55111D01*
X114258Y55388D01*
X118859Y56315D02*
X118730Y57204D01*
X118588Y57932D01*
X118437Y58568D01*
X118278Y59181D01*
X118109Y59874D01*
X117947Y60685D01*
X117897Y61521D01*
X117986Y61933D01*
X118215Y62250D01*
X118457Y62385D01*
X118774Y62463D01*
X119177Y62490D01*
X119035Y56336D02*
X118905Y57234D01*
X118761Y57970D01*
X118608Y58611D01*
X118450Y59225D01*
X118324Y59733D01*
X118198Y60300D01*
X118094Y60920D01*
X118073Y61507D01*
X118114Y61758D01*
X118197Y61962D01*
X118326Y62112D01*
X118520Y62220D01*
X118799Y62287D01*
X119179Y62313D01*
X112297Y61419D02*
X112247Y61558D01*
X112119Y61631D01*
X111973Y61606D01*
X111878Y61493D01*
X111878Y61345D01*
X111973Y61232D01*
X112119Y61206D01*
X112247Y61280D01*
X112297Y61419D01*
X122146Y62006D02*
X122481Y61585D01*
X122684Y61079D01*
X122751Y60520D01*
X122679Y59942D01*
X122523Y59376D01*
X122362Y58821D01*
X122140Y58019D01*
X121963Y57278D01*
X121855Y56626D01*
X121836Y56095D01*
X122026Y61875D02*
X122328Y61496D01*
X122512Y61035D01*
X122573Y60521D01*
X122506Y59982D01*
X122353Y59426D01*
X122191Y58870D01*
X121903Y57806D01*
X121706Y56858D01*
X121659Y56082D01*
X123466Y54897D02*
X121556Y55123D01*
X121598Y55475D01*
X123508Y55249D02*
X121598Y55475D01*
X123508Y55249D02*
X123466Y54897D01*
X121406Y62235D02*
X121303Y62090D01*
X120015Y62547D02*
X120011Y62724D01*
X109791Y64445D02*
X109620Y64489D01*
X109748Y64916D01*
X111265Y65366D02*
X111419Y65277D01*
X114005Y61248D02*
X113838Y61190D01*
X113316Y60159D02*
X113146Y60207D01*
X111493Y60937D02*
X111317Y60913D01*
X111322Y59323D02*
X111495Y59360D01*
X114333Y60231D02*
X114294Y60403D01*
X118723Y55240D02*
X116731Y55240D01*
X116731Y55595D01*
X118723Y55595D02*
X116731Y55595D01*
X118723Y55595D02*
X118723Y55240D01*
X114008Y54120D02*
X114091Y53964D01*
X107451Y55267D02*
X107564Y55404D01*
X98039Y51028D02*
X98201Y51100D01*
X100826Y51122D02*
X100982Y51038D01*
X107467Y61111D02*
X107296Y61066D01*
X98042Y51946D02*
X97891Y51852D01*
X93090Y56617D02*
X92913Y56613D01*
X91719Y63384D02*
X91751Y63558D01*
X91834Y46464D02*
X91657Y46453D01*
X90643Y54951D02*
X90817Y54985D01*
X119157Y46311D02*
X118982Y46335D01*
X119003Y54456D02*
X119179Y54468D01*
X112588Y42091D02*
X111280Y42708D01*
X111356Y42868D01*
X112667Y42250D02*
X111356Y42868D01*
X111822Y40854D02*
X111856Y41028D01*
X108524Y42174D02*
X108574Y42343D01*
X106773Y40734D02*
X106895Y40862D01*
X101283Y41664D02*
X101213Y41501D01*
X102174Y40110D02*
X102116Y39943D01*
X110619Y45928D02*
X110539Y46078D01*
X109161Y48338D02*
X109076Y48572D01*
X110760Y46040D02*
X110738Y46082D01*
X116169Y45875D02*
X116012Y45793D01*
X88660Y55600D02*
X90234Y55886D01*
X90297Y55538D01*
X88723Y55252D02*
X90297Y55538D01*
X88723Y55252D02*
X88660Y55600D01*
X93209Y55990D02*
X95837Y56089D01*
X95850Y55735D01*
X93222Y55636D02*
X95850Y55735D01*
X93222Y55636D02*
X93209Y55990D01*
X98178Y40285D02*
X98195Y40109D01*
X98931Y42271D02*
X98863Y42107D01*
X106117Y40326D02*
X106204Y40171D01*
X104630Y41948D02*
X104576Y41779D01*
X115108Y41626D02*
X114931Y42451D01*
X114029Y42798D02*
X113944Y42954D01*
X115289Y41627D02*
X115106Y42479D01*
X114327Y40671D02*
X114296Y40846D01*
X120358Y43208D02*
X120183Y43238D01*
X121508Y54193D02*
X121681Y54158D01*
X93161Y44874D02*
X92984Y44888D01*
X92967Y55100D02*
X93144Y55090D01*
X90798Y63503D02*
X90769Y63328D01*
X90590Y56671D02*
X90415Y56643D01*
X97079Y63419D02*
X96902Y63430D01*
X95657Y63528D02*
X95604Y63360D01*
X99939Y51991D02*
X99953Y52168D01*
X101046Y57545D02*
X101193Y57644D01*
X103033Y53936D02*
X103208Y53909D01*
X106557Y54328D02*
X106733Y54348D01*
X114195Y55222D02*
X114258Y55388D01*
X113613Y54607D02*
X113714Y54753D01*
X119177Y62490D02*
X119179Y62313D01*
X119035Y56336D02*
X118859Y56315D01*
X111119Y60398D02*
X111121Y60576D01*
X113192Y59492D02*
X113055Y59380D01*
X121836Y56095D02*
X121659Y56082D01*
X122026Y61875D02*
X122146Y62006D01*
X111341Y63595D02*
X111320Y63532D01*
X111341Y63470D01*
X111395Y63431D01*
X111461Y63432D01*
X111757Y63889D02*
X111746Y63813D01*
X111788Y63749D01*
X111863Y63731D01*
X111372Y62097D02*
X111287Y61508D01*
X111317Y60913D01*
X111524Y61998D02*
X111465Y61469D01*
X111493Y60937D01*
X107564Y55404D02*
X108463Y54675D01*
X109486Y54133D01*
X110594Y53798D01*
X111746Y53683D01*
X112898Y53792D01*
X114008Y54120D01*
X107451Y55267D02*
X108379Y54518D01*
X109434Y53963D01*
X110576Y53621D01*
X111763Y53506D01*
X112949Y53622D01*
X114091Y53964D01*
X91834Y46464D02*
X91465Y50741D01*
X90817Y54985D01*
X91657Y46453D02*
X91289Y50719D01*
X90643Y54951D01*
X119157Y46311D02*
X119393Y49026D01*
X119400Y51751D01*
X119179Y54468D01*
X118982Y46335D02*
X119216Y49038D01*
X119223Y51752D01*
X119003Y54456D01*
X111856Y41028D02*
X112177Y41045D01*
X112452Y41211D01*
X112618Y41487D01*
X112634Y41808D01*
X112680Y41906D01*
X112663Y42013D01*
X112588Y42091D01*
X112819Y41767D02*
X112843Y42039D01*
X112667Y42250D01*
X111822Y40854D02*
X112211Y40870D01*
X112550Y41059D01*
X112769Y41381D01*
X112819Y41767D01*
X106895Y40862D02*
X107447Y40510D01*
X108092Y40389D01*
X108735Y40517D01*
X109283Y40876D01*
X109298Y41288D01*
X109160Y41675D01*
X108889Y41985D01*
X108524Y42174D01*
X109443Y40786D02*
X109478Y41275D01*
X109326Y41742D01*
X109009Y42116D01*
X108574Y42343D01*
X106773Y40734D02*
X107394Y40340D01*
X108119Y40212D01*
X108838Y40368D01*
X109443Y40786D01*
X102116Y39943D02*
X101565Y40065D01*
X101001Y40057D01*
X100454Y39917D01*
X99268Y40675D02*
X99583Y40309D01*
X99990Y40049D01*
X100454Y39917D01*
X99487Y41510D02*
X99264Y41122D01*
X99268Y40675D01*
X101283Y41664D02*
X100679Y41815D01*
X100058Y41761D01*
X99487Y41510D01*
X101213Y41501D02*
X100671Y41638D01*
X100113Y41593D01*
X99600Y41371D01*
X99436Y41081D01*
X99432Y40748D01*
X99865Y40318D01*
X100435Y40098D01*
X102174Y40110D02*
X101599Y40240D01*
X101008Y40236D01*
X100435Y40098D01*
X116012Y45793D02*
X115633Y46204D01*
X115164Y46509D01*
X112865Y49289D02*
X113110Y48372D01*
X113605Y47561D01*
X114309Y46923D01*
X115164Y46509D01*
X113557Y50262D02*
X113218Y50025D01*
X112977Y49688D01*
X112865Y49289D01*
X113675Y50779D02*
X114155Y51172D01*
X114441Y51724D01*
X113675Y50779D02*
X112877Y50538D01*
X112187Y50071D01*
X111667Y49420D01*
X111605Y46940D02*
X111667Y49420D01*
X110974Y45906D02*
X111351Y46385D01*
X111605Y46940D01*
X110619Y45928D02*
X110792Y45846D01*
X110974Y45906D01*
X110539Y46078D02*
X110667Y46433D01*
X110599Y46803D01*
X109161Y48338D02*
X110599Y46803D01*
X109076Y48572D02*
X108616Y48070D01*
X108332Y47451D01*
X108041Y45342D02*
X108332Y47451D01*
X107663Y45230D02*
X107874Y45213D01*
X108041Y45342D01*
X107550Y45650D02*
X107568Y45430D01*
X107663Y45230D01*
X107550Y45650D02*
X107458Y45891D01*
X107262Y46059D01*
X105178Y46585D02*
X106203Y46256D01*
X107262Y46059D01*
X104906Y45261D02*
X104821Y46270D01*
X104563Y47250D01*
X104641Y44845D02*
X104428Y44953D01*
X104193Y44995D01*
X102489Y44969D02*
X103342Y44890D01*
X104193Y44995D01*
X101573Y45614D02*
X101961Y45192D01*
X102489Y44969D01*
X101638Y46403D02*
X101510Y46016D01*
X101573Y45614D01*
X102832Y47375D02*
X101638Y46403D01*
X102832Y47375D02*
X102754Y47854D01*
X102456Y48237D01*
X101365Y47337D02*
X100683Y47171D01*
X100067Y46833D01*
X99562Y46346D01*
X99111Y45673D02*
X99562Y46346D01*
X98740Y45901D02*
X98883Y45717D01*
X99111Y45673D01*
X98740Y45901D02*
X98871Y46298D01*
X98860Y46716D01*
X98710Y47106D01*
X96123Y49304D02*
X97336Y48110D01*
X98710Y47106D01*
X95912Y50619D02*
X95833Y50165D01*
X95906Y49710D01*
X96123Y49304D01*
X95912Y50619D02*
X96304Y51188D01*
X96573Y51825D01*
X96198Y52060D02*
X95246Y50938D01*
X94975Y50337D01*
X94872Y49686D01*
X94944Y49030D01*
X95186Y48417D01*
X96045Y46940D01*
X95888Y46169D02*
X96072Y46532D01*
X96046Y46938D01*
X94940Y45501D02*
X95888Y46169D01*
X94940Y45501D02*
X94802Y45302D01*
X94776Y45061D01*
X94810Y45621D02*
X94625Y45342D01*
X94606Y45008D01*
X95764Y46296D02*
X95898Y46573D01*
X95879Y46879D01*
X95029Y48334D02*
X95879Y46879D01*
X95090Y51023D02*
X94808Y50381D01*
X94701Y49687D01*
X94776Y48989D01*
X95029Y48334D01*
X96055Y52164D02*
X95090Y51023D01*
X96055Y52164D02*
X96223Y52512D01*
X96258Y52898D01*
X96155Y53271D01*
X96750Y51824D02*
X96701Y52359D01*
X96496Y52856D01*
X96155Y53271D01*
X96075Y50548D02*
X96480Y51150D01*
X96750Y51824D01*
X96075Y50548D02*
X96013Y50152D01*
X96080Y49757D01*
X96269Y49404D01*
X97497Y48231D01*
X98854Y47210D01*
X98936Y45911D02*
X99051Y46345D01*
X99023Y46793D01*
X98854Y47210D01*
X98936Y45911D02*
X98973Y45862D01*
X99031Y45842D01*
X101321Y47508D02*
X100598Y47328D01*
X99948Y46965D01*
X99415Y46444D01*
X101321Y47508D02*
X101669Y47501D01*
X102001Y47605D01*
X102283Y47809D01*
X102267Y48224D01*
X102126Y48615D01*
X101874Y48946D01*
X102995Y47298D02*
X102953Y47810D01*
X102722Y48268D01*
X102335Y48605D01*
X101792Y46315D02*
X102995Y47298D01*
X101792Y46315D02*
X101689Y46012D01*
X101730Y45696D01*
X102539Y45140D02*
X103362Y45052D01*
X104182Y45172D01*
X104567Y47800D02*
X104515Y46518D01*
X104729Y45253D01*
X104567Y47800D02*
X104697Y47380D01*
X104940Y47014D01*
X105277Y46732D01*
X107328Y46223D01*
X107725Y45675D02*
X107596Y45999D01*
X107328Y46223D01*
X107725Y45675D02*
X107770Y45381D01*
X107830Y45381D01*
X107877Y45417D01*
X108159Y47491D01*
X109193Y48965D02*
X108582Y48294D01*
X108159Y47491D01*
X109325Y48405D02*
X110744Y46904D01*
X110738Y46082D02*
X110845Y46492D01*
X110744Y46904D01*
X110760Y46040D02*
X110805Y46021D01*
X110852Y46036D01*
X111203Y46462D01*
X111430Y46966D01*
X111500Y49481D02*
X111430Y46966D01*
X113598Y50938D02*
X112770Y50657D01*
X112053Y50159D01*
X111500Y49481D01*
X113598Y50938D02*
X113982Y51267D01*
X114255Y51692D01*
X114393Y52178D01*
X114756Y50928D02*
X114694Y51588D01*
X114393Y52178D01*
X113625Y50098D02*
X113227Y49761D01*
X113041Y49274D01*
X113279Y48404D01*
X113755Y47638D01*
X114432Y47042D01*
X115251Y46664D01*
X116169Y45875D02*
X115765Y46333D01*
X115251Y46664D01*
X98863Y42107D02*
X98309Y42254D01*
X97737Y42244D01*
X97188Y42080D01*
X96793Y41833D01*
X96570Y41423D01*
X96579Y40957D01*
X96816Y40556D01*
X97477Y40321D01*
X98178Y40285D01*
X96711Y40411D02*
X97430Y40150D01*
X98195Y40109D01*
X97125Y42245D02*
X96734Y42022D01*
X96466Y41661D01*
X96367Y41222D01*
X96453Y40780D01*
X96711Y40411D01*
X98931Y42271D02*
X98334Y42429D01*
X97717Y42420D01*
X97125Y42245D01*
X104576Y41779D02*
X104036Y41845D01*
X103510Y41708D01*
X103346Y41454D01*
X103299Y41155D01*
X103376Y40862D01*
X103663Y40380D01*
X104112Y40043D01*
X104797Y39968D01*
X105479Y40064D01*
X106117Y40326D01*
X104053Y39875D02*
X104787Y39791D01*
X105519Y39892D01*
X106204Y40171D01*
X103213Y40793D02*
X103541Y40250D01*
X104053Y39875D01*
X103406Y41855D02*
X103190Y41540D01*
X103122Y41164D01*
X103213Y40793D01*
X104630Y41948D02*
X104009Y42021D01*
X103406Y41855D01*
X114296Y40846D02*
X114665Y40989D01*
X114950Y41263D01*
X115108Y41626D01*
X114931Y42451D02*
X114840Y42665D01*
X114643Y42790D01*
X114337Y42875D01*
X114029Y42798D01*
X114713Y42954D02*
X114329Y43052D01*
X113944Y42954D01*
X115106Y42479D02*
X114979Y42775D01*
X114713Y42954D01*
X114327Y40671D02*
X114771Y40847D01*
X115110Y41184D01*
X115289Y41627D01*
X120358Y43208D02*
X121088Y48674D01*
X121681Y54158D01*
X120183Y43238D02*
X120913Y48707D01*
X121508Y54193D01*
X93161Y44874D02*
X93288Y49982D01*
X93144Y55090D01*
X92984Y44888D02*
X93110Y49994D01*
X92967Y55100D01*
X113055Y59380D02*
X112498Y59872D01*
X111840Y60218D01*
X111119Y60398D01*
X113192Y59492D02*
X112596Y60017D01*
X111892Y60385D01*
X111121Y60576D01*
G54D16*
X261626Y170649D02*
X261626Y163562D01*
X258476Y163562D01*
X256193Y170177D02*
X256193Y170885D01*
X254067Y170885D02*
X254067Y170177D01*
X256508Y168366D02*
X256508Y165137D01*
X253673Y165137D02*
X253781Y164595D01*
X254088Y164135D01*
X254548Y163828D01*
X255091Y163720D01*
X255633Y163828D01*
X256093Y164135D01*
X256400Y164595D01*
X256508Y165137D01*
X253673Y168366D02*
X253673Y163720D01*
X250681Y169625D02*
X250585Y170029D01*
X250342Y170366D01*
X249989Y170583D01*
X249579Y170649D01*
X250681Y169625D02*
X250681Y168208D01*
X250681Y163562D01*
X251705Y168208D02*
X249579Y168208D01*
X247610Y168208D02*
X245484Y168208D01*
X246587Y170649D02*
X246587Y164586D01*
X245484Y163562D02*
X245894Y163628D01*
X246248Y163846D01*
X246491Y164182D01*
X246587Y164586D01*
X243516Y166003D02*
X240681Y166003D01*
X240681Y166712D01*
X243516Y166712D02*
X243408Y167254D01*
X243101Y167714D01*
X242641Y168022D01*
X242098Y168129D01*
X241556Y168022D01*
X241096Y167714D01*
X240789Y167254D01*
X240681Y166712D01*
X243516Y166712D02*
X243516Y164980D01*
X240760Y164507D02*
X241050Y164023D01*
X241505Y163691D01*
X242054Y163562D01*
X242610Y163657D01*
X243085Y163962D01*
X243404Y164427D01*
X243516Y164980D01*
X238713Y163562D02*
X238713Y168208D01*
X238713Y167106D02*
X238605Y167593D01*
X238287Y167978D01*
X237830Y168177D01*
X237331Y168147D01*
X236902Y167893D01*
X233909Y163562D02*
X234301Y163640D01*
X234633Y163862D01*
X234855Y164194D01*
X234933Y164586D01*
X233909Y163562D02*
X233201Y163562D01*
X232098Y164586D02*
X232194Y164182D01*
X232437Y163846D01*
X232791Y163628D01*
X233201Y163562D01*
X232098Y164586D02*
X232098Y164980D01*
X233201Y166003D02*
X232791Y165938D01*
X232437Y165720D01*
X232194Y165384D01*
X232098Y164980D01*
X233201Y166003D02*
X233909Y166003D01*
X234388Y166113D01*
X234771Y166418D01*
X234984Y166861D01*
X234984Y167351D01*
X234771Y167793D01*
X234388Y168099D01*
X233909Y168208D01*
X233201Y168208D01*
X232779Y168124D01*
X232421Y167885D01*
X232182Y167528D01*
X232098Y167106D01*
X230130Y168208D02*
X228004Y168208D01*
X229106Y170649D02*
X229106Y164586D01*
X228004Y163562D02*
X228414Y163628D01*
X228767Y163846D01*
X229011Y164182D01*
X229106Y164586D01*
X226035Y166003D02*
X223201Y166003D01*
X223201Y166712D01*
X226035Y166712D02*
X225928Y167254D01*
X225620Y167714D01*
X225160Y168022D01*
X224618Y168129D01*
X224076Y168022D01*
X223616Y167714D01*
X223309Y167254D01*
X223201Y166712D01*
X226035Y166712D02*
X226035Y164980D01*
X223280Y164507D02*
X223569Y164023D01*
X224025Y163691D01*
X224574Y163562D01*
X225130Y163657D01*
X225605Y163962D01*
X225923Y164427D01*
X226035Y164980D01*
X221232Y168208D02*
X221232Y164980D01*
X218398Y164980D02*
X218506Y164437D01*
X218813Y163978D01*
X219273Y163670D01*
X219815Y163562D01*
X220357Y163670D01*
X220817Y163978D01*
X221124Y164437D01*
X221232Y164980D01*
X218398Y168208D02*
X218398Y163562D01*
X216429Y166003D02*
X213594Y166003D01*
X213594Y166712D01*
X216429Y166712D02*
X216321Y167254D01*
X216014Y167714D01*
X215554Y168022D01*
X215012Y168129D01*
X214469Y168022D01*
X214010Y167714D01*
X213702Y167254D01*
X213594Y166712D01*
X216429Y166712D02*
X216429Y164980D01*
X213673Y164507D02*
X213963Y164023D01*
X214418Y163691D01*
X214968Y163562D01*
X215524Y163657D01*
X215998Y163962D01*
X216317Y164427D01*
X216429Y164980D01*
X211626Y163562D02*
X211626Y168208D01*
X211626Y167106D02*
X211518Y167593D01*
X211201Y167978D01*
X210743Y168177D01*
X210245Y168147D01*
X209815Y167893D01*
X207846Y168208D02*
X207846Y164980D01*
X205012Y164980D02*
X205120Y164437D01*
X205427Y163978D01*
X205887Y163670D01*
X206429Y163562D01*
X206972Y163670D01*
X207431Y163978D01*
X207739Y164437D01*
X207846Y164980D01*
X205012Y168208D02*
X205012Y163562D01*
X203043Y163562D02*
X203043Y168208D01*
X203043Y166712D02*
X202935Y167254D01*
X202628Y167714D01*
X202168Y168022D01*
X201626Y168129D01*
X201084Y168022D01*
X200624Y167714D01*
X200317Y167254D01*
X200209Y166712D01*
X200209Y163562D01*
X195406Y162854D02*
X195518Y162301D01*
X195836Y161836D01*
X196311Y161531D01*
X196867Y161436D01*
X197416Y161565D01*
X197872Y161897D01*
X198161Y162381D01*
X195406Y162854D02*
X195406Y166712D01*
X198240Y166712D02*
X198132Y167254D01*
X197825Y167714D01*
X197365Y168022D01*
X196823Y168129D01*
X196280Y168022D01*
X195821Y167714D01*
X195513Y167254D01*
X195406Y166712D01*
X198240Y166712D02*
X198240Y164980D01*
X195406Y164980D02*
X195513Y164437D01*
X195821Y163978D01*
X196280Y163670D01*
X196823Y163562D01*
X197365Y163670D01*
X197825Y163978D01*
X198132Y164437D01*
X198240Y164980D01*
X279205Y105856D02*
X279847Y105973D01*
X280406Y106311D01*
X280808Y106825D01*
X281003Y107449D01*
X280963Y108100D01*
X280695Y108696D01*
X280233Y109157D01*
X279638Y109425D01*
X278986Y109465D01*
X278363Y109270D01*
X277849Y108868D01*
X277511Y108309D01*
X277394Y107667D01*
X279205Y105856D02*
X278524Y105736D01*
X277941Y105365D01*
X277544Y104799D01*
X277395Y104124D01*
X277514Y103443D01*
X277886Y102860D01*
X278452Y102463D01*
X279126Y102313D01*
X279807Y102433D01*
X280390Y102804D01*
X280787Y103370D01*
X280937Y104045D01*
X275425Y106958D02*
X273299Y106958D01*
X274402Y109399D02*
X274402Y103336D01*
X273299Y102312D02*
X273709Y102378D01*
X274063Y102596D01*
X274306Y102932D01*
X274402Y103336D01*
X271331Y104753D02*
X268496Y104753D01*
X268496Y105462D01*
X271331Y105462D02*
X271223Y106004D01*
X270916Y106464D01*
X270456Y106772D01*
X269913Y106879D01*
X269371Y106772D01*
X268911Y106464D01*
X268604Y106004D01*
X268496Y105462D01*
X271331Y105462D02*
X271331Y103730D01*
X268575Y103257D02*
X268865Y102773D01*
X269320Y102441D01*
X269869Y102312D01*
X270425Y102407D01*
X270900Y102712D01*
X271219Y103177D01*
X271331Y103730D01*
X266528Y100187D02*
X266528Y106958D01*
X263693Y103730D02*
X263801Y103187D01*
X264108Y102728D01*
X264568Y102420D01*
X265110Y102312D01*
X265653Y102420D01*
X266112Y102728D01*
X266420Y103187D01*
X266528Y103730D01*
X263693Y105462D02*
X263693Y103730D01*
X266528Y105462D02*
X266420Y106004D01*
X266112Y106464D01*
X265653Y106772D01*
X265110Y106879D01*
X264568Y106772D01*
X264108Y106464D01*
X263801Y106004D01*
X263693Y105462D01*
X258575Y109399D02*
X261724Y102312D01*
X256606Y109399D02*
X256606Y104045D01*
X253102Y104045D02*
X253209Y103439D01*
X253517Y102906D01*
X253988Y102510D01*
X254566Y102300D01*
X255182Y102300D01*
X255760Y102510D01*
X256231Y102906D01*
X256539Y103439D01*
X256646Y104045D01*
X253063Y104045D02*
X253063Y109399D01*
X251094Y100187D02*
X251094Y106958D01*
X248260Y103730D02*
X248368Y103187D01*
X248675Y102728D01*
X249135Y102420D01*
X249677Y102312D01*
X250220Y102420D01*
X250679Y102728D01*
X250987Y103187D01*
X251094Y103730D01*
X248260Y105462D02*
X248260Y103730D01*
X251094Y105462D02*
X250987Y106004D01*
X250679Y106464D01*
X250220Y106772D01*
X249677Y106879D01*
X249135Y106772D01*
X248675Y106464D01*
X248368Y106004D01*
X248260Y105462D01*
X239913Y103730D02*
X240040Y103144D01*
X240397Y102663D01*
X240920Y102372D01*
X241518Y102323D01*
X242082Y102525D01*
X242512Y102942D01*
X239913Y103730D02*
X239913Y105147D01*
X242748Y105147D02*
X242640Y105690D01*
X242333Y106149D01*
X241873Y106457D01*
X241331Y106564D01*
X240788Y106457D01*
X240329Y106149D01*
X240021Y105690D01*
X239913Y105147D01*
X242748Y105147D02*
X242748Y109399D01*
X239913Y109399D01*
X237945Y109399D02*
X236213Y102312D01*
X234402Y109399D01*
X228890Y105856D02*
X225740Y105856D01*
X223772Y107667D02*
X222039Y105856D01*
X223772Y104045D01*
X216528Y107982D02*
X215110Y109399D01*
X215110Y102312D01*
X213142Y107982D02*
X213034Y108524D01*
X212727Y108984D01*
X212267Y109291D01*
X211724Y109399D01*
X211182Y109291D01*
X210722Y108984D01*
X210415Y108524D01*
X210307Y107982D01*
X213142Y102312D01*
X210307Y102312D01*
X208339Y109399D02*
X206606Y102312D01*
X204795Y109399D01*
X134003Y167106D02*
X134645Y167223D01*
X135204Y167561D01*
X135607Y168075D01*
X135801Y168699D01*
X135761Y169350D01*
X135493Y169946D01*
X135032Y170407D01*
X134436Y170675D01*
X133785Y170715D01*
X133161Y170520D01*
X132647Y170118D01*
X132310Y169559D01*
X132192Y168917D01*
X134003Y167106D02*
X133322Y166986D01*
X132739Y166615D01*
X132343Y166049D01*
X132193Y165374D01*
X132313Y164693D01*
X132684Y164110D01*
X133250Y163713D01*
X133925Y163563D01*
X134605Y163683D01*
X135188Y164054D01*
X135585Y164620D01*
X135735Y165295D01*
X130223Y168208D02*
X130223Y164980D01*
X127389Y164980D02*
X127497Y164437D01*
X127804Y163978D01*
X128264Y163670D01*
X128806Y163562D01*
X129348Y163670D01*
X129808Y163978D01*
X130116Y164437D01*
X130223Y164980D01*
X127389Y168208D02*
X127389Y163562D01*
X125420Y163562D02*
X125420Y168208D01*
X125420Y166712D02*
X125312Y167254D01*
X125005Y167714D01*
X124545Y168022D01*
X124003Y168129D01*
X123461Y168022D01*
X123001Y167714D01*
X122694Y167254D01*
X122586Y166712D01*
X122586Y163562D01*
X122586Y166712D02*
X122478Y167254D01*
X122170Y167714D01*
X121711Y168022D01*
X121168Y168129D01*
X120626Y168022D01*
X120166Y167714D01*
X119859Y167254D01*
X119751Y166712D01*
X119751Y163562D01*
X117782Y163562D02*
X117782Y168208D01*
X117782Y166712D02*
X117675Y167254D01*
X117367Y167714D01*
X116908Y168022D01*
X116365Y168129D01*
X115823Y168022D01*
X115363Y167714D01*
X115056Y167254D01*
X114948Y166712D01*
X114948Y163562D01*
X114948Y166712D02*
X114840Y167254D01*
X114533Y167714D01*
X114073Y168022D01*
X113531Y168129D01*
X112988Y168022D01*
X112528Y167714D01*
X112221Y167254D01*
X112113Y166712D01*
X112113Y163562D01*
X110145Y166003D02*
X107310Y166003D01*
X107310Y166712D01*
X110145Y166712D02*
X110037Y167254D01*
X109730Y167714D01*
X109270Y168022D01*
X108727Y168129D01*
X108185Y168022D01*
X107725Y167714D01*
X107418Y167254D01*
X107310Y166712D01*
X110145Y166712D02*
X110145Y164980D01*
X107389Y164507D02*
X107679Y164023D01*
X108134Y163691D01*
X108683Y163562D01*
X109239Y163657D01*
X109714Y163962D01*
X110033Y164427D01*
X110145Y164980D01*
X105342Y163562D02*
X105342Y168208D01*
X105342Y167106D02*
X105234Y167593D01*
X104916Y167978D01*
X104459Y168177D01*
X103960Y168147D01*
X103531Y167893D01*
X126850Y122625D02*
X124409Y129712D01*
X121889Y122625D01*
X126141Y124751D02*
X122598Y124751D01*
X116771Y129712D02*
X119921Y122625D01*
X111259Y124357D02*
X111358Y123812D01*
X111621Y123323D01*
X112021Y122940D01*
X112521Y122699D01*
X113070Y122625D01*
X114803Y122625D01*
X114803Y129712D01*
X113070Y129712D01*
X112521Y129637D01*
X112021Y129397D01*
X111621Y129013D01*
X111358Y128525D01*
X111259Y127979D01*
X111259Y124357D01*
X105748Y129712D02*
X104015Y122625D01*
X102204Y129712D01*
X100393Y122625D01*
X98661Y129712D01*
X96692Y125775D02*
X96585Y126317D01*
X96277Y126777D01*
X95817Y127084D01*
X95275Y127192D01*
X94733Y127084D01*
X94273Y126777D01*
X93966Y126317D01*
X93858Y125775D01*
X93954Y125371D01*
X94197Y125034D01*
X94550Y124817D01*
X94960Y124751D01*
X95669Y124751D01*
X95669Y122586D02*
X96130Y122691D01*
X96500Y122986D01*
X96705Y123412D01*
X96705Y123885D01*
X96500Y124311D01*
X96130Y124606D01*
X95669Y124712D01*
X95669Y122625D02*
X94960Y122625D01*
X93858Y123649D02*
X93954Y123245D01*
X94197Y122908D01*
X94550Y122691D01*
X94960Y122625D01*
X93858Y125775D02*
X93858Y123334D01*
X93149Y122625D01*
X91181Y122625D02*
X91181Y127271D01*
X91181Y125775D02*
X91073Y126317D01*
X90765Y126777D01*
X90306Y127084D01*
X89763Y127192D01*
X89221Y127084D01*
X88761Y126777D01*
X88454Y126317D01*
X88346Y125775D01*
X88346Y122625D01*
X83543Y129712D02*
X83543Y122625D01*
X86377Y125775D02*
X86270Y126317D01*
X85962Y126777D01*
X85503Y127084D01*
X84960Y127192D01*
X84418Y127084D01*
X83958Y126777D01*
X83651Y126317D01*
X83543Y125775D01*
X86377Y125775D02*
X86377Y124042D01*
X83543Y124042D02*
X83651Y123500D01*
X83958Y123040D01*
X84418Y122733D01*
X84960Y122625D01*
X85503Y122733D01*
X85962Y123040D01*
X86270Y123500D01*
X86377Y124042D01*
X81574Y129712D02*
X81574Y123649D01*
X80551Y122625D02*
X80942Y122703D01*
X81274Y122925D01*
X81496Y123257D01*
X81574Y123649D01*
X78582Y125066D02*
X75748Y125066D01*
X75748Y125775D01*
X78582Y125775D02*
X78474Y126317D01*
X78167Y126777D01*
X77707Y127084D01*
X77165Y127192D01*
X76622Y127084D01*
X76163Y126777D01*
X75855Y126317D01*
X75748Y125775D01*
X78582Y125775D02*
X78582Y124042D01*
X75826Y123570D02*
X76116Y123086D01*
X76572Y122753D01*
X77121Y122624D01*
X77677Y122720D01*
X78151Y123024D01*
X78470Y123490D01*
X78582Y124042D01*
X73779Y122625D02*
X73779Y127271D01*
X73779Y126168D02*
X73671Y126656D01*
X73354Y127041D01*
X72896Y127240D01*
X72398Y127209D01*
X71968Y126956D01*
G54D18*
X222812Y27812D02*
X233125Y17500D01*
X222812Y27812D02*
X213750Y27812D01*
X207500Y34062D01*
X207500Y43562D01*
X207500Y46729D02*
X207500Y56229D01*
X207500Y59395D02*
X207500Y68895D01*
X207500Y72062D02*
X207500Y81562D01*
X177812Y111250D02*
X185909Y103153D01*
X188607Y100454D02*
X196704Y92357D01*
X199403Y89659D02*
X207500Y81562D01*
X177812Y111250D02*
X165758Y111250D01*
X161741Y111250D02*
X149687Y111250D01*
X146250Y114687D01*
X146250Y126205D01*
X146250Y130044D02*
X146250Y141562D01*
X146250Y147500D01*
X135500Y147500D01*
X131916Y147500D02*
X121166Y147500D01*
X117583Y147500D02*
X106833Y147500D01*
X103250Y147500D02*
X92500Y147500D01*
X89375Y150625D02*
X92500Y147500D01*
X89375Y167812D02*
X89375Y160446D01*
X89375Y157991D02*
X89375Y150625D01*
X3125Y162812D02*
X8348Y168035D01*
X10089Y169776D02*
X15312Y175000D01*
X3125Y37812D02*
X3125Y49909D01*
X3125Y53941D02*
X3125Y66038D01*
X3125Y70070D02*
X3125Y82167D01*
X3125Y86199D02*
X3125Y98296D01*
X3125Y102328D02*
X3125Y114425D01*
X3125Y118457D02*
X3125Y130554D01*
X3125Y134586D02*
X3125Y146683D01*
X3125Y150715D02*
X3125Y162812D01*
X12500Y28437D02*
X3125Y37812D01*
X236250Y177500D02*
X236250Y186339D01*
X236250Y189285D02*
X236250Y198125D01*
X239062Y200937D01*
X250227Y200937D01*
X253948Y200937D02*
X265113Y200937D01*
X268835Y200937D02*
X280000Y200937D01*
X283750Y171562D02*
X285000Y170312D01*
X294687Y170312D01*
X300625Y164375D01*
X300625Y35312D02*
X300625Y46375D01*
X300625Y50062D02*
X300625Y61125D01*
X300625Y64812D02*
X300625Y75875D01*
X300625Y79562D02*
X300625Y90625D01*
X300625Y94312D02*
X300625Y105375D01*
X300625Y109062D02*
X300625Y120125D01*
X300625Y123812D02*
X300625Y134875D01*
X300625Y138562D02*
X300625Y149625D01*
X300625Y153312D02*
X300625Y164375D01*
X293125Y27812D02*
X300625Y35312D01*
X270312Y27812D02*
X280089Y27812D01*
X283348Y27812D02*
X293125Y27812D01*
X270312Y27812D02*
X265000Y22500D01*
X256875Y116250D02*
X256875Y125491D01*
X256875Y128571D02*
X256875Y137812D01*
X266250Y147187D01*
X275539Y147187D01*
X278636Y147187D02*
X287926Y147187D01*
X291022Y147187D02*
X300312Y147187D01*
X162812Y157187D02*
X153125Y147500D01*
X162812Y157187D02*
X162812Y164821D01*
X162812Y167366D02*
X162812Y175000D01*
X146250Y147500D02*
X153125Y147500D01*
X89375Y167812D02*
X89375Y175000D01*
X15312Y175000D02*
X27006Y175000D01*
X30904Y175000D02*
X42598Y175000D01*
X46496Y175000D02*
X58190Y175000D01*
X62088Y175000D02*
X73782Y175000D01*
X77680Y175000D02*
X89375Y175000D01*
X260000Y17500D02*
X248482Y17500D01*
X244642Y17500D02*
X233125Y17500D01*
X260000Y17500D02*
X265000Y22500D01*
X12500Y28125D02*
X24547Y28125D01*
X28563Y28125D02*
X40611Y28125D01*
X44627Y28125D02*
X56675Y28125D01*
X60691Y28125D02*
X72739Y28125D01*
X76755Y28125D02*
X88803Y28125D01*
X92819Y28125D02*
X104867Y28125D01*
X108882Y28125D02*
X120930Y28125D01*
X124946Y28125D02*
X136994Y28125D01*
X141010Y28125D02*
X153058Y28125D01*
X157074Y28125D02*
X169122Y28125D01*
X173138Y28125D02*
X185186Y28125D01*
X189202Y28125D02*
X201250Y28125D01*
X207187Y34062D01*
X178125Y111250D02*
X189819Y111250D01*
X193717Y111250D02*
X205411Y111250D01*
X209309Y111250D02*
X221003Y111250D01*
X224901Y111250D02*
X236595Y111250D01*
X240493Y111250D02*
X252187Y111250D01*
X256875Y115937D01*
X233750Y175000D02*
X222644Y175000D01*
X218942Y175000D02*
X207836Y175000D01*
X204134Y175000D02*
X193028Y175000D01*
X189326Y175000D02*
X178221Y175000D01*
X174519Y175000D02*
X163413Y175000D01*
X159711Y175000D02*
X148605Y175000D01*
X144903Y175000D02*
X133798Y175000D01*
X130096Y175000D02*
X118990Y175000D01*
X115288Y175000D02*
X104182Y175000D01*
X100480Y175000D02*
X89375Y175000D01*
X233750Y175000D02*
X236250Y177500D01*
X283437Y171875D02*
X283437Y183125D01*
X283437Y186875D02*
X283437Y198125D01*
X280625Y200937D01*
M02*
